<svg xmlns="http://www.w3.org/2000/svg" xmlns:xlink="http://www.w3.org/1999/xlink" width="600" height="400" viewBox="0 0 2400 1600">
<defs>
  <clipPath id="clip670">
    <rect x="0" y="0" width="2400" height="1600"></rect>
  </clipPath>
</defs>
<path clip-path="url(#clip670)" d="
M0 1600 L2400 1600 L2400 0 L0 0  Z
  " fill="#ffffff" fill-rule="evenodd" fill-opacity="1"></path>
<defs>
  <clipPath id="clip671">
    <rect x="480" y="0" width="1681" height="1600"></rect>
  </clipPath>
</defs>
<path clip-path="url(#clip670)" d="
M249.542 1423.18 L2180.46 1423.18 L2180.46 47.2441 L249.542 47.2441  Z
  " fill="#ffffff" fill-rule="evenodd" fill-opacity="1"></path>
<defs>
  <clipPath id="clip672">
    <rect x="249" y="47" width="1932" height="1377"></rect>
  </clipPath>
</defs>
<polyline clip-path="url(#clip672)" style="stroke:#000000; stroke-linecap:round; stroke-linejoin:round; stroke-width:2; stroke-opacity:0.1; fill:none" points="
  304.191,1423.18 304.191,47.2441 
  "></polyline>
<polyline clip-path="url(#clip672)" style="stroke:#000000; stroke-linecap:round; stroke-linejoin:round; stroke-width:2; stroke-opacity:0.1; fill:none" points="
  694.038,1423.18 694.038,47.2441 
  "></polyline>
<polyline clip-path="url(#clip672)" style="stroke:#000000; stroke-linecap:round; stroke-linejoin:round; stroke-width:2; stroke-opacity:0.1; fill:none" points="
  1083.89,1423.18 1083.89,47.2441 
  "></polyline>
<polyline clip-path="url(#clip672)" style="stroke:#000000; stroke-linecap:round; stroke-linejoin:round; stroke-width:2; stroke-opacity:0.1; fill:none" points="
  1473.73,1423.18 1473.73,47.2441 
  "></polyline>
<polyline clip-path="url(#clip672)" style="stroke:#000000; stroke-linecap:round; stroke-linejoin:round; stroke-width:2; stroke-opacity:0.1; fill:none" points="
  1863.58,1423.18 1863.58,47.2441 
  "></polyline>
<polyline clip-path="url(#clip670)" style="stroke:#000000; stroke-linecap:round; stroke-linejoin:round; stroke-width:4; stroke-opacity:1; fill:none" points="
  249.542,1423.18 2180.46,1423.18 
  "></polyline>
<polyline clip-path="url(#clip670)" style="stroke:#000000; stroke-linecap:round; stroke-linejoin:round; stroke-width:4; stroke-opacity:1; fill:none" points="
  304.191,1423.18 304.191,1404.28 
  "></polyline>
<polyline clip-path="url(#clip670)" style="stroke:#000000; stroke-linecap:round; stroke-linejoin:round; stroke-width:4; stroke-opacity:1; fill:none" points="
  694.038,1423.18 694.038,1404.28 
  "></polyline>
<polyline clip-path="url(#clip670)" style="stroke:#000000; stroke-linecap:round; stroke-linejoin:round; stroke-width:4; stroke-opacity:1; fill:none" points="
  1083.89,1423.18 1083.89,1404.28 
  "></polyline>
<polyline clip-path="url(#clip670)" style="stroke:#000000; stroke-linecap:round; stroke-linejoin:round; stroke-width:4; stroke-opacity:1; fill:none" points="
  1473.73,1423.18 1473.73,1404.28 
  "></polyline>
<polyline clip-path="url(#clip670)" style="stroke:#000000; stroke-linecap:round; stroke-linejoin:round; stroke-width:4; stroke-opacity:1; fill:none" points="
  1863.58,1423.18 1863.58,1404.28 
  "></polyline>
<path clip-path="url(#clip670)" d="M304.191 1454.1 Q300.58 1454.1 298.751 1457.66 Q296.945 1461.2 296.945 1468.33 Q296.945 1475.44 298.751 1479.01 Q300.58 1482.55 304.191 1482.55 Q307.825 1482.55 309.63 1479.01 Q311.459 1475.44 311.459 1468.33 Q311.459 1461.2 309.63 1457.66 Q307.825 1454.1 304.191 1454.1 M304.191 1450.39 Q310.001 1450.39 313.056 1455 Q316.135 1459.58 316.135 1468.33 Q316.135 1477.06 313.056 1481.67 Q310.001 1486.25 304.191 1486.25 Q298.38 1486.25 295.302 1481.67 Q292.246 1477.06 292.246 1468.33 Q292.246 1459.58 295.302 1455 Q298.38 1450.39 304.191 1450.39 Z" fill="#000000" fill-rule="evenodd" fill-opacity="1"></path><path clip-path="url(#clip670)" d="M657.731 1481.64 L674.05 1481.64 L674.05 1485.58 L652.106 1485.58 L652.106 1481.64 Q654.768 1478.89 659.351 1474.26 Q663.958 1469.61 665.138 1468.27 Q667.384 1465.74 668.263 1464.01 Q669.166 1462.25 669.166 1460.56 Q669.166 1457.8 667.221 1456.07 Q665.3 1454.33 662.198 1454.33 Q659.999 1454.33 657.546 1455.09 Q655.115 1455.86 652.337 1457.41 L652.337 1452.69 Q655.161 1451.55 657.615 1450.97 Q660.069 1450.39 662.106 1450.39 Q667.476 1450.39 670.671 1453.08 Q673.865 1455.77 673.865 1460.26 Q673.865 1462.39 673.055 1464.31 Q672.268 1466.2 670.161 1468.8 Q669.583 1469.47 666.481 1472.69 Q663.379 1475.88 657.731 1481.64 Z" fill="#000000" fill-rule="evenodd" fill-opacity="1"></path><path clip-path="url(#clip670)" d="M683.911 1451.02 L702.268 1451.02 L702.268 1454.96 L688.194 1454.96 L688.194 1463.43 Q689.212 1463.08 690.231 1462.92 Q691.249 1462.73 692.268 1462.73 Q698.055 1462.73 701.434 1465.9 Q704.814 1469.08 704.814 1474.49 Q704.814 1480.07 701.342 1483.17 Q697.869 1486.25 691.55 1486.25 Q689.374 1486.25 687.106 1485.88 Q684.86 1485.51 682.453 1484.77 L682.453 1480.07 Q684.536 1481.2 686.758 1481.76 Q688.981 1482.32 691.457 1482.32 Q695.462 1482.32 697.8 1480.21 Q700.138 1478.1 700.138 1474.49 Q700.138 1470.88 697.8 1468.77 Q695.462 1466.67 691.457 1466.67 Q689.582 1466.67 687.707 1467.08 Q685.856 1467.5 683.911 1468.38 L683.911 1451.02 Z" fill="#000000" fill-rule="evenodd" fill-opacity="1"></path><path clip-path="url(#clip670)" d="M724.027 1454.1 Q720.416 1454.1 718.587 1457.66 Q716.781 1461.2 716.781 1468.33 Q716.781 1475.44 718.587 1479.01 Q720.416 1482.55 724.027 1482.55 Q727.661 1482.55 729.467 1479.01 Q731.295 1475.44 731.295 1468.33 Q731.295 1461.2 729.467 1457.66 Q727.661 1454.1 724.027 1454.1 M724.027 1450.39 Q729.837 1450.39 732.892 1455 Q735.971 1459.58 735.971 1468.33 Q735.971 1477.06 732.892 1481.67 Q729.837 1486.25 724.027 1486.25 Q718.217 1486.25 715.138 1481.67 Q712.082 1477.06 712.082 1468.33 Q712.082 1459.58 715.138 1455 Q718.217 1450.39 724.027 1450.39 Z" fill="#000000" fill-rule="evenodd" fill-opacity="1"></path><path clip-path="url(#clip670)" d="M1043.5 1451.02 L1061.86 1451.02 L1061.86 1454.96 L1047.79 1454.96 L1047.79 1463.43 Q1048.81 1463.08 1049.82 1462.92 Q1050.84 1462.73 1051.86 1462.73 Q1057.65 1462.73 1061.03 1465.9 Q1064.41 1469.08 1064.41 1474.49 Q1064.41 1480.07 1060.94 1483.17 Q1057.46 1486.25 1051.14 1486.25 Q1048.97 1486.25 1046.7 1485.88 Q1044.45 1485.51 1042.05 1484.77 L1042.05 1480.07 Q1044.13 1481.2 1046.35 1481.76 Q1048.57 1482.32 1051.05 1482.32 Q1055.06 1482.32 1057.39 1480.21 Q1059.73 1478.1 1059.73 1474.49 Q1059.73 1470.88 1057.39 1468.77 Q1055.06 1466.67 1051.05 1466.67 Q1049.18 1466.67 1047.3 1467.08 Q1045.45 1467.5 1043.5 1468.38 L1043.5 1451.02 Z" fill="#000000" fill-rule="evenodd" fill-opacity="1"></path><path clip-path="url(#clip670)" d="M1083.62 1454.1 Q1080.01 1454.1 1078.18 1457.66 Q1076.37 1461.2 1076.37 1468.33 Q1076.37 1475.44 1078.18 1479.01 Q1080.01 1482.55 1083.62 1482.55 Q1087.25 1482.55 1089.06 1479.01 Q1090.89 1475.44 1090.89 1468.33 Q1090.89 1461.2 1089.06 1457.66 Q1087.25 1454.1 1083.62 1454.1 M1083.62 1450.39 Q1089.43 1450.39 1092.49 1455 Q1095.56 1459.58 1095.56 1468.33 Q1095.56 1477.06 1092.49 1481.67 Q1089.43 1486.25 1083.62 1486.25 Q1077.81 1486.25 1074.73 1481.67 Q1071.68 1477.06 1071.68 1468.33 Q1071.68 1459.58 1074.73 1455 Q1077.81 1450.39 1083.62 1450.39 Z" fill="#000000" fill-rule="evenodd" fill-opacity="1"></path><path clip-path="url(#clip670)" d="M1113.78 1454.1 Q1110.17 1454.1 1108.34 1457.66 Q1106.54 1461.2 1106.54 1468.33 Q1106.54 1475.44 1108.34 1479.01 Q1110.17 1482.55 1113.78 1482.55 Q1117.42 1482.55 1119.22 1479.01 Q1121.05 1475.44 1121.05 1468.33 Q1121.05 1461.2 1119.22 1457.66 Q1117.42 1454.1 1113.78 1454.1 M1113.78 1450.39 Q1119.59 1450.39 1122.65 1455 Q1125.73 1459.58 1125.73 1468.33 Q1125.73 1477.06 1122.65 1481.67 Q1119.59 1486.25 1113.78 1486.25 Q1107.97 1486.25 1104.89 1481.67 Q1101.84 1477.06 1101.84 1468.33 Q1101.84 1459.58 1104.89 1455 Q1107.97 1450.39 1113.78 1450.39 Z" fill="#000000" fill-rule="evenodd" fill-opacity="1"></path><path clip-path="url(#clip670)" d="M1432.01 1451.02 L1454.23 1451.02 L1454.23 1453.01 L1441.69 1485.58 L1436.8 1485.58 L1448.61 1454.96 L1432.01 1454.96 L1432.01 1451.02 Z" fill="#000000" fill-rule="evenodd" fill-opacity="1"></path><path clip-path="url(#clip670)" d="M1463.4 1451.02 L1481.76 1451.02 L1481.76 1454.96 L1467.68 1454.96 L1467.68 1463.43 Q1468.7 1463.08 1469.72 1462.92 Q1470.74 1462.73 1471.76 1462.73 Q1477.54 1462.73 1480.92 1465.9 Q1484.3 1469.08 1484.3 1474.49 Q1484.3 1480.07 1480.83 1483.17 Q1477.36 1486.25 1471.04 1486.25 Q1468.86 1486.25 1466.59 1485.88 Q1464.35 1485.51 1461.94 1484.77 L1461.94 1480.07 Q1464.02 1481.2 1466.25 1481.76 Q1468.47 1482.32 1470.94 1482.32 Q1474.95 1482.32 1477.29 1480.21 Q1479.63 1478.1 1479.63 1474.49 Q1479.63 1470.88 1477.29 1468.77 Q1474.95 1466.67 1470.94 1466.67 Q1469.07 1466.67 1467.19 1467.08 Q1465.34 1467.5 1463.4 1468.38 L1463.4 1451.02 Z" fill="#000000" fill-rule="evenodd" fill-opacity="1"></path><path clip-path="url(#clip670)" d="M1503.51 1454.1 Q1499.9 1454.1 1498.07 1457.66 Q1496.27 1461.2 1496.27 1468.33 Q1496.27 1475.44 1498.07 1479.01 Q1499.9 1482.55 1503.51 1482.55 Q1507.15 1482.55 1508.95 1479.01 Q1510.78 1475.44 1510.78 1468.33 Q1510.78 1461.2 1508.95 1457.66 Q1507.15 1454.1 1503.51 1454.1 M1503.51 1450.39 Q1509.32 1450.39 1512.38 1455 Q1515.46 1459.58 1515.46 1468.33 Q1515.46 1477.06 1512.38 1481.67 Q1509.32 1486.25 1503.51 1486.25 Q1497.7 1486.25 1494.63 1481.67 Q1491.57 1477.06 1491.57 1468.33 Q1491.57 1459.58 1494.63 1455 Q1497.7 1450.39 1503.51 1450.39 Z" fill="#000000" fill-rule="evenodd" fill-opacity="1"></path><path clip-path="url(#clip670)" d="M1808.11 1481.64 L1815.75 1481.64 L1815.75 1455.28 L1807.44 1456.95 L1807.44 1452.69 L1815.7 1451.02 L1820.38 1451.02 L1820.38 1481.64 L1828.02 1481.64 L1828.02 1485.58 L1808.11 1485.58 L1808.11 1481.64 Z" fill="#000000" fill-rule="evenodd" fill-opacity="1"></path><path clip-path="url(#clip670)" d="M1847.46 1454.1 Q1843.85 1454.1 1842.02 1457.66 Q1840.21 1461.2 1840.21 1468.33 Q1840.21 1475.44 1842.02 1479.01 Q1843.85 1482.55 1847.46 1482.55 Q1851.09 1482.55 1852.9 1479.01 Q1854.73 1475.44 1854.73 1468.33 Q1854.73 1461.2 1852.9 1457.66 Q1851.09 1454.1 1847.46 1454.1 M1847.46 1450.39 Q1853.27 1450.39 1856.33 1455 Q1859.4 1459.58 1859.4 1468.33 Q1859.4 1477.06 1856.33 1481.67 Q1853.27 1486.25 1847.46 1486.25 Q1841.65 1486.25 1838.57 1481.67 Q1835.52 1477.06 1835.52 1468.33 Q1835.52 1459.58 1838.57 1455 Q1841.65 1450.39 1847.46 1450.39 Z" fill="#000000" fill-rule="evenodd" fill-opacity="1"></path><path clip-path="url(#clip670)" d="M1877.62 1454.1 Q1874.01 1454.1 1872.18 1457.66 Q1870.38 1461.2 1870.38 1468.33 Q1870.38 1475.44 1872.18 1479.01 Q1874.01 1482.55 1877.62 1482.55 Q1881.26 1482.55 1883.06 1479.01 Q1884.89 1475.44 1884.89 1468.33 Q1884.89 1461.2 1883.06 1457.66 Q1881.26 1454.1 1877.62 1454.1 M1877.62 1450.39 Q1883.43 1450.39 1886.49 1455 Q1889.57 1459.58 1889.57 1468.33 Q1889.57 1477.06 1886.49 1481.67 Q1883.43 1486.25 1877.62 1486.25 Q1871.81 1486.25 1868.73 1481.67 Q1865.68 1477.06 1865.68 1468.33 Q1865.68 1459.58 1868.73 1455 Q1871.81 1450.39 1877.62 1450.39 Z" fill="#000000" fill-rule="evenodd" fill-opacity="1"></path><path clip-path="url(#clip670)" d="M1907.78 1454.1 Q1904.17 1454.1 1902.34 1457.66 Q1900.54 1461.2 1900.54 1468.33 Q1900.54 1475.44 1902.34 1479.01 Q1904.17 1482.55 1907.78 1482.55 Q1911.42 1482.55 1913.22 1479.01 Q1915.05 1475.44 1915.05 1468.33 Q1915.05 1461.2 1913.22 1457.66 Q1911.42 1454.1 1907.78 1454.1 M1907.78 1450.39 Q1913.59 1450.39 1916.65 1455 Q1919.73 1459.58 1919.73 1468.33 Q1919.73 1477.06 1916.65 1481.67 Q1913.59 1486.25 1907.78 1486.25 Q1901.97 1486.25 1898.89 1481.67 Q1895.84 1477.06 1895.84 1468.33 Q1895.84 1459.58 1898.89 1455 Q1901.97 1450.39 1907.78 1450.39 Z" fill="#000000" fill-rule="evenodd" fill-opacity="1"></path><path clip-path="url(#clip670)" d="M1102.45 1522.27 L1102.45 1532.4 L1114.52 1532.4 L1114.52 1536.95 L1102.45 1536.95 L1102.45 1556.3 Q1102.45 1560.66 1103.63 1561.9 Q1104.84 1563.14 1108.5 1563.14 L1114.52 1563.14 L1114.52 1568.04 L1108.5 1568.04 Q1101.72 1568.04 1099.14 1565.53 Q1096.57 1562.98 1096.57 1556.3 L1096.57 1536.95 L1092.27 1536.95 L1092.27 1532.4 L1096.57 1532.4 L1096.57 1522.27 L1102.45 1522.27 Z" fill="#000000" fill-rule="evenodd" fill-opacity="1"></path><path clip-path="url(#clip670)" d="M1122.22 1532.4 L1128.08 1532.4 L1128.08 1568.04 L1122.22 1568.04 L1122.22 1532.4 M1122.22 1518.52 L1128.08 1518.52 L1128.08 1525.93 L1122.22 1525.93 L1122.22 1518.52 Z" fill="#000000" fill-rule="evenodd" fill-opacity="1"></path><path clip-path="url(#clip670)" d="M1168.08 1539.24 Q1170.28 1535.29 1173.34 1533.41 Q1176.39 1531.54 1180.53 1531.54 Q1186.1 1531.54 1189.12 1535.45 Q1192.15 1539.33 1192.15 1546.53 L1192.15 1568.04 L1186.26 1568.04 L1186.26 1546.72 Q1186.26 1541.59 1184.44 1539.11 Q1182.63 1536.63 1178.91 1536.63 Q1174.35 1536.63 1171.71 1539.65 Q1169.07 1542.68 1169.07 1547.9 L1169.07 1568.04 L1163.18 1568.04 L1163.18 1546.72 Q1163.18 1541.56 1161.37 1539.11 Q1159.55 1536.63 1155.77 1536.63 Q1151.28 1536.63 1148.64 1539.68 Q1146 1542.71 1146 1547.9 L1146 1568.04 L1140.11 1568.04 L1140.11 1532.4 L1146 1532.4 L1146 1537.93 Q1148 1534.66 1150.8 1533.1 Q1153.6 1531.54 1157.45 1531.54 Q1161.34 1531.54 1164.04 1533.51 Q1166.78 1535.48 1168.08 1539.24 Z" fill="#000000" fill-rule="evenodd" fill-opacity="1"></path><path clip-path="url(#clip670)" d="M1234.32 1548.76 L1234.32 1551.62 L1207.39 1551.62 Q1207.77 1557.67 1211.02 1560.85 Q1214.3 1564 1220.12 1564 Q1223.5 1564 1226.65 1563.17 Q1229.83 1562.35 1232.95 1560.69 L1232.95 1566.23 Q1229.8 1567.57 1226.49 1568.27 Q1223.18 1568.97 1219.77 1568.97 Q1211.24 1568.97 1206.25 1564 Q1201.28 1559.04 1201.28 1550.57 Q1201.28 1541.82 1205.99 1536.69 Q1210.73 1531.54 1218.76 1531.54 Q1225.95 1531.54 1230.12 1536.18 Q1234.32 1540.8 1234.32 1548.76 M1228.46 1547.04 Q1228.4 1542.23 1225.76 1539.37 Q1223.15 1536.5 1218.82 1536.5 Q1213.92 1536.5 1210.96 1539.27 Q1208.03 1542.04 1207.58 1547.07 L1228.46 1547.04 Z" fill="#000000" fill-rule="evenodd" fill-opacity="1"></path><path clip-path="url(#clip670)" d="M1278.72 1518.58 Q1274.46 1525.9 1272.39 1533.06 Q1270.32 1540.23 1270.32 1547.58 Q1270.32 1554.93 1272.39 1562.16 Q1274.49 1569.35 1278.72 1576.64 L1273.63 1576.64 Q1268.85 1569.16 1266.47 1561.93 Q1264.11 1554.71 1264.11 1547.58 Q1264.11 1540.48 1266.47 1533.29 Q1268.82 1526.09 1273.63 1518.58 L1278.72 1518.58 Z" fill="#000000" fill-rule="evenodd" fill-opacity="1"></path><path clip-path="url(#clip670)" d="M1312.81 1533.45 L1312.81 1538.98 Q1310.33 1537.71 1307.65 1537.07 Q1304.98 1536.44 1302.11 1536.44 Q1297.75 1536.44 1295.56 1537.77 Q1293.39 1539.11 1293.39 1541.79 Q1293.39 1543.82 1294.95 1545 Q1296.51 1546.15 1301.22 1547.2 L1303.23 1547.64 Q1309.47 1548.98 1312.08 1551.43 Q1314.72 1553.85 1314.72 1558.21 Q1314.72 1563.17 1310.77 1566.07 Q1306.86 1568.97 1299.98 1568.97 Q1297.12 1568.97 1294 1568.39 Q1290.91 1567.85 1287.47 1566.74 L1287.47 1560.69 Q1290.72 1562.38 1293.87 1563.24 Q1297.02 1564.07 1300.11 1564.07 Q1304.25 1564.07 1306.48 1562.66 Q1308.7 1561.23 1308.7 1558.65 Q1308.7 1556.27 1307.08 1554.99 Q1305.49 1553.72 1300.05 1552.54 L1298.01 1552.07 Q1292.57 1550.92 1290.15 1548.56 Q1287.73 1546.18 1287.73 1542.04 Q1287.73 1537.01 1291.29 1534.27 Q1294.86 1531.54 1301.41 1531.54 Q1304.66 1531.54 1307.53 1532.01 Q1310.39 1532.49 1312.81 1533.45 Z" fill="#000000" fill-rule="evenodd" fill-opacity="1"></path><path clip-path="url(#clip670)" d="M1323.12 1518.58 L1328.21 1518.58 Q1332.99 1526.09 1335.34 1533.29 Q1337.73 1540.48 1337.73 1547.58 Q1337.73 1554.71 1335.34 1561.93 Q1332.99 1569.16 1328.21 1576.64 L1323.12 1576.64 Q1327.35 1569.35 1329.42 1562.16 Q1331.52 1554.93 1331.52 1547.58 Q1331.52 1540.23 1329.42 1533.06 Q1327.35 1525.9 1323.12 1518.58 Z" fill="#000000" fill-rule="evenodd" fill-opacity="1"></path><polyline clip-path="url(#clip670)" style="stroke:#000000; stroke-linecap:round; stroke-linejoin:round; stroke-width:4; stroke-opacity:1; fill:none" points="
  249.542,1423.18 249.542,47.2441 
  "></polyline>
<polyline clip-path="url(#clip670)" style="stroke:#000000; stroke-linecap:round; stroke-linejoin:round; stroke-width:4; stroke-opacity:1; fill:none" points="
  249.542,1384.24 268.44,1384.24 
  "></polyline>
<polyline clip-path="url(#clip670)" style="stroke:#000000; stroke-linecap:round; stroke-linejoin:round; stroke-width:4; stroke-opacity:1; fill:none" points="
  249.542,1094.51 268.44,1094.51 
  "></polyline>
<polyline clip-path="url(#clip670)" style="stroke:#000000; stroke-linecap:round; stroke-linejoin:round; stroke-width:4; stroke-opacity:1; fill:none" points="
  249.542,804.777 268.44,804.777 
  "></polyline>
<polyline clip-path="url(#clip670)" style="stroke:#000000; stroke-linecap:round; stroke-linejoin:round; stroke-width:4; stroke-opacity:1; fill:none" points="
  249.542,515.047 268.44,515.047 
  "></polyline>
<polyline clip-path="url(#clip670)" style="stroke:#000000; stroke-linecap:round; stroke-linejoin:round; stroke-width:4; stroke-opacity:1; fill:none" points="
  249.542,225.316 268.44,225.316 
  "></polyline>
<path clip-path="url(#clip670)" d="M126.205 1370.04 Q122.593 1370.04 120.765 1373.6 Q118.959 1377.14 118.959 1384.27 Q118.959 1391.38 120.765 1394.94 Q122.593 1398.49 126.205 1398.49 Q129.839 1398.49 131.644 1394.94 Q133.473 1391.38 133.473 1384.27 Q133.473 1377.14 131.644 1373.6 Q129.839 1370.04 126.205 1370.04 M126.205 1366.33 Q132.015 1366.33 135.07 1370.94 Q138.149 1375.52 138.149 1384.27 Q138.149 1393 135.07 1397.61 Q132.015 1402.19 126.205 1402.19 Q120.394 1402.19 117.316 1397.61 Q114.26 1393 114.26 1384.27 Q114.26 1375.52 117.316 1370.94 Q120.394 1366.33 126.205 1366.33 Z" fill="#000000" fill-rule="evenodd" fill-opacity="1"></path><path clip-path="url(#clip670)" d="M146.366 1395.64 L151.251 1395.64 L151.251 1401.52 L146.366 1401.52 L146.366 1395.64 Z" fill="#000000" fill-rule="evenodd" fill-opacity="1"></path><path clip-path="url(#clip670)" d="M171.436 1370.04 Q167.825 1370.04 165.996 1373.6 Q164.19 1377.14 164.19 1384.27 Q164.19 1391.38 165.996 1394.94 Q167.825 1398.49 171.436 1398.49 Q175.07 1398.49 176.876 1394.94 Q178.704 1391.38 178.704 1384.27 Q178.704 1377.14 176.876 1373.6 Q175.07 1370.04 171.436 1370.04 M171.436 1366.33 Q177.246 1366.33 180.301 1370.94 Q183.38 1375.52 183.38 1384.27 Q183.38 1393 180.301 1397.61 Q177.246 1402.19 171.436 1402.19 Q165.626 1402.19 162.547 1397.61 Q159.491 1393 159.491 1384.27 Q159.491 1375.52 162.547 1370.94 Q165.626 1366.33 171.436 1366.33 Z" fill="#000000" fill-rule="evenodd" fill-opacity="1"></path><path clip-path="url(#clip670)" d="M201.598 1370.04 Q197.987 1370.04 196.158 1373.6 Q194.352 1377.14 194.352 1384.27 Q194.352 1391.38 196.158 1394.94 Q197.987 1398.49 201.598 1398.49 Q205.232 1398.49 207.037 1394.94 Q208.866 1391.38 208.866 1384.27 Q208.866 1377.14 207.037 1373.6 Q205.232 1370.04 201.598 1370.04 M201.598 1366.33 Q207.408 1366.33 210.463 1370.94 Q213.542 1375.52 213.542 1384.27 Q213.542 1393 210.463 1397.61 Q207.408 1402.19 201.598 1402.19 Q195.787 1402.19 192.709 1397.61 Q189.653 1393 189.653 1384.27 Q189.653 1375.52 192.709 1370.94 Q195.787 1366.33 201.598 1366.33 Z" fill="#000000" fill-rule="evenodd" fill-opacity="1"></path><path clip-path="url(#clip670)" d="M127.2 1080.31 Q123.589 1080.31 121.76 1083.87 Q119.955 1087.41 119.955 1094.54 Q119.955 1101.65 121.76 1105.21 Q123.589 1108.76 127.2 1108.76 Q130.834 1108.76 132.64 1105.21 Q134.468 1101.65 134.468 1094.54 Q134.468 1087.41 132.64 1083.87 Q130.834 1080.31 127.2 1080.31 M127.2 1076.6 Q133.01 1076.6 136.066 1081.21 Q139.144 1085.79 139.144 1094.54 Q139.144 1103.27 136.066 1107.88 Q133.01 1112.46 127.2 1112.46 Q121.39 1112.46 118.311 1107.88 Q115.256 1103.27 115.256 1094.54 Q115.256 1085.79 118.311 1081.21 Q121.39 1076.6 127.2 1076.6 Z" fill="#000000" fill-rule="evenodd" fill-opacity="1"></path><path clip-path="url(#clip670)" d="M147.362 1105.91 L152.246 1105.91 L152.246 1111.79 L147.362 1111.79 L147.362 1105.91 Z" fill="#000000" fill-rule="evenodd" fill-opacity="1"></path><path clip-path="url(#clip670)" d="M172.431 1080.31 Q168.82 1080.31 166.991 1083.87 Q165.186 1087.41 165.186 1094.54 Q165.186 1101.65 166.991 1105.21 Q168.82 1108.76 172.431 1108.76 Q176.065 1108.76 177.871 1105.21 Q179.7 1101.65 179.7 1094.54 Q179.7 1087.41 177.871 1083.87 Q176.065 1080.31 172.431 1080.31 M172.431 1076.6 Q178.241 1076.6 181.297 1081.21 Q184.376 1085.79 184.376 1094.54 Q184.376 1103.27 181.297 1107.88 Q178.241 1112.46 172.431 1112.46 Q166.621 1112.46 163.542 1107.88 Q160.487 1103.27 160.487 1094.54 Q160.487 1085.79 163.542 1081.21 Q166.621 1076.6 172.431 1076.6 Z" fill="#000000" fill-rule="evenodd" fill-opacity="1"></path><path clip-path="url(#clip670)" d="M192.639 1077.23 L210.996 1077.23 L210.996 1081.16 L196.922 1081.16 L196.922 1089.64 Q197.94 1089.29 198.959 1089.13 Q199.977 1088.94 200.996 1088.94 Q206.783 1088.94 210.162 1092.11 Q213.542 1095.28 213.542 1100.7 Q213.542 1106.28 210.07 1109.38 Q206.598 1112.46 200.278 1112.46 Q198.102 1112.46 195.834 1112.09 Q193.588 1111.72 191.181 1110.98 L191.181 1106.28 Q193.264 1107.41 195.487 1107.97 Q197.709 1108.52 200.186 1108.52 Q204.19 1108.52 206.528 1106.42 Q208.866 1104.31 208.866 1100.7 Q208.866 1097.09 206.528 1094.98 Q204.19 1092.88 200.186 1092.88 Q198.311 1092.88 196.436 1093.29 Q194.584 1093.71 192.639 1094.59 L192.639 1077.23 Z" fill="#000000" fill-rule="evenodd" fill-opacity="1"></path><path clip-path="url(#clip670)" d="M126.205 790.576 Q122.593 790.576 120.765 794.141 Q118.959 797.682 118.959 804.812 Q118.959 811.918 120.765 815.483 Q122.593 819.025 126.205 819.025 Q129.839 819.025 131.644 815.483 Q133.473 811.918 133.473 804.812 Q133.473 797.682 131.644 794.141 Q129.839 790.576 126.205 790.576 M126.205 786.872 Q132.015 786.872 135.07 791.479 Q138.149 796.062 138.149 804.812 Q138.149 813.539 135.07 818.145 Q132.015 822.729 126.205 822.729 Q120.394 822.729 117.316 818.145 Q114.26 813.539 114.26 804.812 Q114.26 796.062 117.316 791.479 Q120.394 786.872 126.205 786.872 Z" fill="#000000" fill-rule="evenodd" fill-opacity="1"></path><path clip-path="url(#clip670)" d="M146.366 816.178 L151.251 816.178 L151.251 822.057 L146.366 822.057 L146.366 816.178 Z" fill="#000000" fill-rule="evenodd" fill-opacity="1"></path><path clip-path="url(#clip670)" d="M162.246 818.122 L169.885 818.122 L169.885 791.756 L161.575 793.423 L161.575 789.164 L169.839 787.497 L174.514 787.497 L174.514 818.122 L182.153 818.122 L182.153 822.057 L162.246 822.057 L162.246 818.122 Z" fill="#000000" fill-rule="evenodd" fill-opacity="1"></path><path clip-path="url(#clip670)" d="M201.598 790.576 Q197.987 790.576 196.158 794.141 Q194.352 797.682 194.352 804.812 Q194.352 811.918 196.158 815.483 Q197.987 819.025 201.598 819.025 Q205.232 819.025 207.037 815.483 Q208.866 811.918 208.866 804.812 Q208.866 797.682 207.037 794.141 Q205.232 790.576 201.598 790.576 M201.598 786.872 Q207.408 786.872 210.463 791.479 Q213.542 796.062 213.542 804.812 Q213.542 813.539 210.463 818.145 Q207.408 822.729 201.598 822.729 Q195.787 822.729 192.709 818.145 Q189.653 813.539 189.653 804.812 Q189.653 796.062 192.709 791.479 Q195.787 786.872 201.598 786.872 Z" fill="#000000" fill-rule="evenodd" fill-opacity="1"></path><path clip-path="url(#clip670)" d="M127.2 500.845 Q123.589 500.845 121.76 504.41 Q119.955 507.952 119.955 515.081 Q119.955 522.188 121.76 525.753 Q123.589 529.294 127.2 529.294 Q130.834 529.294 132.64 525.753 Q134.468 522.188 134.468 515.081 Q134.468 507.952 132.64 504.41 Q130.834 500.845 127.2 500.845 M127.2 497.142 Q133.01 497.142 136.066 501.748 Q139.144 506.332 139.144 515.081 Q139.144 523.808 136.066 528.415 Q133.01 532.998 127.2 532.998 Q121.39 532.998 118.311 528.415 Q115.256 523.808 115.256 515.081 Q115.256 506.332 118.311 501.748 Q121.39 497.142 127.2 497.142 Z" fill="#000000" fill-rule="evenodd" fill-opacity="1"></path><path clip-path="url(#clip670)" d="M147.362 526.447 L152.246 526.447 L152.246 532.327 L147.362 532.327 L147.362 526.447 Z" fill="#000000" fill-rule="evenodd" fill-opacity="1"></path><path clip-path="url(#clip670)" d="M163.241 528.392 L170.88 528.392 L170.88 502.026 L162.57 503.693 L162.57 499.433 L170.834 497.767 L175.51 497.767 L175.51 528.392 L183.149 528.392 L183.149 532.327 L163.241 532.327 L163.241 528.392 Z" fill="#000000" fill-rule="evenodd" fill-opacity="1"></path><path clip-path="url(#clip670)" d="M192.639 497.767 L210.996 497.767 L210.996 501.702 L196.922 501.702 L196.922 510.174 Q197.94 509.827 198.959 509.665 Q199.977 509.48 200.996 509.48 Q206.783 509.48 210.162 512.651 Q213.542 515.822 213.542 521.239 Q213.542 526.818 210.07 529.919 Q206.598 532.998 200.278 532.998 Q198.102 532.998 195.834 532.628 Q193.588 532.257 191.181 531.517 L191.181 526.818 Q193.264 527.952 195.487 528.507 Q197.709 529.063 200.186 529.063 Q204.19 529.063 206.528 526.956 Q208.866 524.85 208.866 521.239 Q208.866 517.628 206.528 515.521 Q204.19 513.415 200.186 513.415 Q198.311 513.415 196.436 513.831 Q194.584 514.248 192.639 515.128 L192.639 497.767 Z" fill="#000000" fill-rule="evenodd" fill-opacity="1"></path><path clip-path="url(#clip670)" d="M126.205 211.115 Q122.593 211.115 120.765 214.68 Q118.959 218.221 118.959 225.351 Q118.959 232.457 120.765 236.022 Q122.593 239.564 126.205 239.564 Q129.839 239.564 131.644 236.022 Q133.473 232.457 133.473 225.351 Q133.473 218.221 131.644 214.68 Q129.839 211.115 126.205 211.115 M126.205 207.411 Q132.015 207.411 135.07 212.018 Q138.149 216.601 138.149 225.351 Q138.149 234.078 135.07 238.684 Q132.015 243.268 126.205 243.268 Q120.394 243.268 117.316 238.684 Q114.26 234.078 114.26 225.351 Q114.26 216.601 117.316 212.018 Q120.394 207.411 126.205 207.411 Z" fill="#000000" fill-rule="evenodd" fill-opacity="1"></path><path clip-path="url(#clip670)" d="M146.366 236.717 L151.251 236.717 L151.251 242.596 L146.366 242.596 L146.366 236.717 Z" fill="#000000" fill-rule="evenodd" fill-opacity="1"></path><path clip-path="url(#clip670)" d="M165.464 238.661 L181.783 238.661 L181.783 242.596 L159.839 242.596 L159.839 238.661 Q162.501 235.906 167.084 231.277 Q171.69 226.624 172.871 225.282 Q175.116 222.758 175.996 221.022 Q176.899 219.263 176.899 217.573 Q176.899 214.819 174.954 213.083 Q173.033 211.346 169.931 211.346 Q167.732 211.346 165.278 212.11 Q162.848 212.874 160.07 214.425 L160.07 209.703 Q162.894 208.569 165.348 207.99 Q167.802 207.411 169.839 207.411 Q175.209 207.411 178.403 210.096 Q181.598 212.782 181.598 217.272 Q181.598 219.402 180.788 221.323 Q180.001 223.221 177.894 225.814 Q177.315 226.485 174.214 229.703 Q171.112 232.897 165.464 238.661 Z" fill="#000000" fill-rule="evenodd" fill-opacity="1"></path><path clip-path="url(#clip670)" d="M201.598 211.115 Q197.987 211.115 196.158 214.68 Q194.352 218.221 194.352 225.351 Q194.352 232.457 196.158 236.022 Q197.987 239.564 201.598 239.564 Q205.232 239.564 207.037 236.022 Q208.866 232.457 208.866 225.351 Q208.866 218.221 207.037 214.68 Q205.232 211.115 201.598 211.115 M201.598 207.411 Q207.408 207.411 210.463 212.018 Q213.542 216.601 213.542 225.351 Q213.542 234.078 210.463 238.684 Q207.408 243.268 201.598 243.268 Q195.787 243.268 192.709 238.684 Q189.653 234.078 189.653 225.351 Q189.653 216.601 192.709 212.018 Q195.787 207.411 201.598 207.411 Z" fill="#000000" fill-rule="evenodd" fill-opacity="1"></path><path clip-path="url(#clip670)" d="M46.0847 1061.09 Q46.0847 1068.19 47.7079 1070.92 Q49.3312 1073.66 53.2461 1073.66 Q56.3653 1073.66 58.2114 1071.62 Q60.0256 1069.55 60.0256 1066.02 Q60.0256 1061.15 56.5881 1058.22 Q53.1188 1055.26 47.3897 1055.26 L46.0847 1055.26 L46.0847 1061.09 M43.6657 1049.41 L64.0042 1049.41 L64.0042 1055.26 L58.5933 1055.26 Q61.8398 1057.27 63.3994 1060.26 Q64.9272 1063.25 64.9272 1067.58 Q64.9272 1073.06 61.8716 1076.3 Q58.7843 1079.52 53.6281 1079.52 Q47.6125 1079.52 44.5569 1075.51 Q41.5014 1071.46 41.5014 1063.48 L41.5014 1055.26 L40.9285 1055.26 Q36.8862 1055.26 34.6901 1057.94 Q32.4621 1060.58 32.4621 1065.39 Q32.4621 1068.44 33.1941 1071.34 Q33.9262 1074.23 35.3903 1076.91 L29.9795 1076.91 Q28.7381 1073.69 28.1334 1070.67 Q27.4968 1067.65 27.4968 1064.78 Q27.4968 1057.05 31.5072 1053.23 Q35.5176 1049.41 43.6657 1049.41 Z" fill="#000000" fill-rule="evenodd" fill-opacity="1"></path><path clip-path="url(#clip670)" d="M28.3562 1007.71 L45.7028 1020.6 L64.0042 1007.04 L64.0042 1013.95 L49.9996 1024.33 L64.0042 1034.7 L64.0042 1041.61 L45.3526 1027.76 L28.3562 1040.43 L28.3562 1033.52 L41.0558 1024.07 L28.3562 1014.62 L28.3562 1007.71 Z" fill="#000000" fill-rule="evenodd" fill-opacity="1"></path><path clip-path="url(#clip670)" d="M28.3562 998.768 L28.3562 992.912 L64.0042 992.912 L64.0042 998.768 L28.3562 998.768 M14.479 998.768 L14.479 992.912 L21.895 992.912 L21.895 998.768 L14.479 998.768 Z" fill="#000000" fill-rule="evenodd" fill-opacity="1"></path><path clip-path="url(#clip670)" d="M46.0847 964.457 Q46.0847 971.555 47.7079 974.292 Q49.3312 977.029 53.2461 977.029 Q56.3653 977.029 58.2114 974.992 Q60.0256 972.923 60.0256 969.39 Q60.0256 964.521 56.5881 961.592 Q53.1188 958.632 47.3897 958.632 L46.0847 958.632 L46.0847 964.457 M43.6657 952.776 L64.0042 952.776 L64.0042 958.632 L58.5933 958.632 Q61.8398 960.638 63.3994 963.629 Q64.9272 966.621 64.9272 970.95 Q64.9272 976.425 61.8716 979.671 Q58.7843 982.886 53.6281 982.886 Q47.6125 982.886 44.5569 978.875 Q41.5014 974.833 41.5014 966.844 L41.5014 958.632 L40.9285 958.632 Q36.8862 958.632 34.6901 961.306 Q32.4621 963.948 32.4621 968.754 Q32.4621 971.809 33.1941 974.706 Q33.9262 977.602 35.3903 980.276 L29.9795 980.276 Q28.7381 977.061 28.1334 974.037 Q27.4968 971.014 27.4968 968.149 Q27.4968 960.415 31.5072 956.595 Q35.5176 952.776 43.6657 952.776 Z" fill="#000000" fill-rule="evenodd" fill-opacity="1"></path><path clip-path="url(#clip670)" d="M14.479 940.713 L14.479 934.856 L64.0042 934.856 L64.0042 940.713 L14.479 940.713 Z" fill="#000000" fill-rule="evenodd" fill-opacity="1"></path><path clip-path="url(#clip670)" d="M29.7248 876.228 L35.1993 876.228 Q33.8307 878.711 33.1623 881.225 Q32.4621 883.708 32.4621 886.254 Q32.4621 891.952 36.0905 895.103 Q39.6872 898.254 46.212 898.254 Q52.7369 898.254 56.3653 895.103 Q59.9619 891.952 59.9619 886.254 Q59.9619 883.708 59.2935 881.225 Q58.5933 878.711 57.2247 876.228 L62.6355 876.228 Q63.7814 878.679 64.3543 881.321 Q64.9272 883.931 64.9272 886.891 Q64.9272 894.943 59.8664 899.686 Q54.8057 904.428 46.212 904.428 Q37.491 904.428 32.4939 899.654 Q27.4968 894.848 27.4968 886.509 Q27.4968 883.803 28.0697 881.225 Q28.6108 878.647 29.7248 876.228 Z" fill="#000000" fill-rule="evenodd" fill-opacity="1"></path><path clip-path="url(#clip670)" d="M33.8307 845.386 Q33.2578 846.373 33.0032 847.551 Q32.7167 848.697 32.7167 850.097 Q32.7167 855.062 35.9632 857.736 Q39.1779 860.378 45.2253 860.378 L64.0042 860.378 L64.0042 866.266 L28.3562 866.266 L28.3562 860.378 L33.8944 860.378 Q30.6479 858.532 29.0883 855.572 Q27.4968 852.612 27.4968 848.378 Q27.4968 847.774 27.5923 847.042 Q27.656 846.309 27.8151 845.418 L33.8307 845.386 Z" fill="#000000" fill-rule="evenodd" fill-opacity="1"></path><path clip-path="url(#clip670)" d="M44.7161 810.184 L47.5806 810.184 L47.5806 837.111 Q53.6281 836.729 56.8109 833.483 Q59.9619 830.204 59.9619 824.38 Q59.9619 821.006 59.1344 817.855 Q58.3069 814.672 56.6518 811.553 L62.1899 811.553 Q63.5267 814.704 64.227 818.014 Q64.9272 821.324 64.9272 824.73 Q64.9272 833.26 59.9619 838.257 Q54.9967 843.222 46.5303 843.222 Q37.7774 843.222 32.6531 838.511 Q27.4968 833.769 27.4968 825.748 Q27.4968 818.555 32.1438 814.385 Q36.7589 810.184 44.7161 810.184 M42.9973 816.041 Q38.1912 816.104 35.3266 818.746 Q32.4621 821.356 32.4621 825.685 Q32.4621 830.586 35.2312 833.546 Q38.0002 836.474 43.0292 836.92 L42.9973 816.041 Z" fill="#000000" fill-rule="evenodd" fill-opacity="1"></path><path clip-path="url(#clip670)" d="M44.7161 770.08 L47.5806 770.08 L47.5806 797.007 Q53.6281 796.625 56.8109 793.379 Q59.9619 790.1 59.9619 784.276 Q59.9619 780.902 59.1344 777.751 Q58.3069 774.568 56.6518 771.449 L62.1899 771.449 Q63.5267 774.6 64.227 777.91 Q64.9272 781.22 64.9272 784.626 Q64.9272 793.156 59.9619 798.153 Q54.9967 803.118 46.5303 803.118 Q37.7774 803.118 32.6531 798.408 Q27.4968 793.665 27.4968 785.644 Q27.4968 778.451 32.1438 774.281 Q36.7589 770.08 44.7161 770.08 M42.9973 775.937 Q38.1912 776 35.3266 778.642 Q32.4621 781.252 32.4621 785.581 Q32.4621 790.482 35.2312 793.442 Q38.0002 796.37 43.0292 796.816 L42.9973 775.937 Z" fill="#000000" fill-rule="evenodd" fill-opacity="1"></path><path clip-path="url(#clip670)" d="M58.657 754.802 L77.5631 754.802 L77.5631 760.691 L28.3562 760.691 L28.3562 754.802 L33.7671 754.802 Q30.5842 752.956 29.0564 750.155 Q27.4968 747.323 27.4968 743.408 Q27.4968 736.915 32.6531 732.873 Q37.8093 728.799 46.212 728.799 Q54.6147 728.799 59.771 732.873 Q64.9272 736.915 64.9272 743.408 Q64.9272 747.323 63.3994 750.155 Q61.8398 752.956 58.657 754.802 M46.212 734.878 Q39.7508 734.878 36.0905 737.551 Q32.3984 740.193 32.3984 744.84 Q32.3984 749.487 36.0905 752.161 Q39.7508 754.802 46.212 754.802 Q52.6732 754.802 56.3653 752.161 Q60.0256 749.487 60.0256 744.84 Q60.0256 740.193 56.3653 737.551 Q52.6732 734.878 46.212 734.878 Z" fill="#000000" fill-rule="evenodd" fill-opacity="1"></path><path clip-path="url(#clip670)" d="M29.4065 675.645 L34.9447 675.645 Q33.6716 678.127 33.035 680.801 Q32.3984 683.475 32.3984 686.339 Q32.3984 690.7 33.7352 692.896 Q35.072 695.06 37.7456 695.06 Q39.7826 695.06 40.9603 693.501 Q42.1061 691.941 43.1565 687.23 L43.6021 685.225 Q44.9389 678.987 47.3897 676.377 Q49.8086 673.735 54.1691 673.735 Q59.1344 673.735 62.0308 677.682 Q64.9272 681.597 64.9272 688.472 Q64.9272 691.336 64.3543 694.456 Q63.8132 697.543 62.6992 700.98 L56.6518 700.98 Q58.3387 697.734 59.198 694.583 Q60.0256 691.432 60.0256 688.344 Q60.0256 684.207 58.6251 681.979 Q57.1929 679.751 54.6147 679.751 Q52.2276 679.751 50.9545 681.374 Q49.6813 682.965 48.5037 688.408 L48.0262 690.445 Q46.8804 695.888 44.5251 698.307 Q42.138 700.726 38.0002 700.726 Q32.9713 700.726 30.2341 697.161 Q27.4968 693.596 27.4968 687.039 Q27.4968 683.793 27.9743 680.928 Q28.4517 678.064 29.4065 675.645 Z" fill="#000000" fill-rule="evenodd" fill-opacity="1"></path><path clip-path="url(#clip670)" d="M18.2347 658.617 L28.3562 658.617 L28.3562 646.554 L32.9077 646.554 L32.9077 658.617 L52.2594 658.617 Q56.6199 658.617 57.8613 657.439 Q59.1026 656.229 59.1026 652.569 L59.1026 646.554 L64.0042 646.554 L64.0042 652.569 Q64.0042 659.349 61.4897 661.927 Q58.9434 664.505 52.2594 664.505 L32.9077 664.505 L32.9077 668.802 L28.3562 668.802 L28.3562 664.505 L18.2347 664.505 L18.2347 658.617 Z" fill="#000000" fill-rule="evenodd" fill-opacity="1"></path><path clip-path="url(#clip670)" d="M33.8307 618.194 Q33.2578 619.181 33.0032 620.359 Q32.7167 621.505 32.7167 622.905 Q32.7167 627.87 35.9632 630.544 Q39.1779 633.186 45.2253 633.186 L64.0042 633.186 L64.0042 639.074 L28.3562 639.074 L28.3562 633.186 L33.8944 633.186 Q30.6479 631.34 29.0883 628.379 Q27.4968 625.419 27.4968 621.186 Q27.4968 620.582 27.5923 619.849 Q27.656 619.117 27.8151 618.226 L33.8307 618.194 Z" fill="#000000" fill-rule="evenodd" fill-opacity="1"></path><path clip-path="url(#clip670)" d="M46.0847 595.851 Q46.0847 602.948 47.7079 605.686 Q49.3312 608.423 53.2461 608.423 Q56.3653 608.423 58.2114 606.386 Q60.0256 604.317 60.0256 600.784 Q60.0256 595.914 56.5881 592.986 Q53.1188 590.026 47.3897 590.026 L46.0847 590.026 L46.0847 595.851 M43.6657 584.17 L64.0042 584.17 L64.0042 590.026 L58.5933 590.026 Q61.8398 592.031 63.3994 595.023 Q64.9272 598.015 64.9272 602.344 Q64.9272 607.818 61.8716 611.065 Q58.7843 614.279 53.6281 614.279 Q47.6125 614.279 44.5569 610.269 Q41.5014 606.227 41.5014 598.238 L41.5014 590.026 L40.9285 590.026 Q36.8862 590.026 34.6901 592.7 Q32.4621 595.341 32.4621 600.148 Q32.4621 603.203 33.1941 606.1 Q33.9262 608.996 35.3903 611.67 L29.9795 611.67 Q28.7381 608.455 28.1334 605.431 Q27.4968 602.407 27.4968 599.543 Q27.4968 591.809 31.5072 587.989 Q35.5176 584.17 43.6657 584.17 Z" fill="#000000" fill-rule="evenodd" fill-opacity="1"></path><path clip-path="url(#clip670)" d="M28.3562 572.107 L28.3562 566.25 L64.0042 566.25 L64.0042 572.107 L28.3562 572.107 M14.479 572.107 L14.479 566.25 L21.895 566.25 L21.895 572.107 L14.479 572.107 Z" fill="#000000" fill-rule="evenodd" fill-opacity="1"></path><path clip-path="url(#clip670)" d="M42.4881 524.364 L64.0042 524.364 L64.0042 530.22 L42.679 530.22 Q37.6183 530.22 35.1038 532.194 Q32.5894 534.167 32.5894 538.114 Q32.5894 542.856 35.6131 545.593 Q38.6368 548.331 43.8567 548.331 L64.0042 548.331 L64.0042 554.219 L28.3562 554.219 L28.3562 548.331 L33.8944 548.331 Q30.6797 546.23 29.0883 543.397 Q27.4968 540.533 27.4968 536.809 Q27.4968 530.666 31.3163 527.515 Q35.1038 524.364 42.4881 524.364 Z" fill="#000000" fill-rule="evenodd" fill-opacity="1"></path><path clip-path="url(#clip670)" d="M14.5426 477.894 Q21.8632 482.159 29.0246 484.228 Q36.186 486.297 43.5384 486.297 Q50.8908 486.297 58.1159 484.228 Q65.3091 482.127 72.5979 477.894 L72.5979 482.987 Q65.1182 487.761 57.8931 490.148 Q50.668 492.503 43.5384 492.503 Q36.4406 492.503 29.2474 490.148 Q22.0542 487.793 14.5426 482.987 L14.5426 477.894 Z" fill="#000000" fill-rule="evenodd" fill-opacity="1"></path><path clip-path="url(#clip670)" d="M43.0928 425.282 Q43.0928 428.051 45.4481 429.642 Q47.8034 431.202 52.0048 431.202 Q56.1425 431.202 58.5296 429.642 Q60.885 428.051 60.885 425.282 Q60.885 422.576 58.5296 421.017 Q56.1425 419.425 52.0048 419.425 Q47.8353 419.425 45.48 421.017 Q43.0928 422.576 43.0928 425.282 M39.0506 425.282 Q39.0506 420.253 42.5517 417.293 Q46.0529 414.333 52.0048 414.333 Q57.9567 414.333 61.4579 417.324 Q64.9272 420.285 64.9272 425.282 Q64.9272 430.374 61.4579 433.334 Q57.9567 436.294 52.0048 436.294 Q46.021 436.294 42.5517 433.334 Q39.0506 430.342 39.0506 425.282 M19.667 458.129 Q19.667 460.866 22.0542 462.457 Q24.4095 464.017 28.5472 464.017 Q32.7485 464.017 35.1038 462.457 Q37.4592 460.898 37.4592 458.129 Q37.4592 455.36 35.1038 453.8 Q32.7485 452.209 28.5472 452.209 Q24.4413 452.209 22.0542 453.8 Q19.667 455.391 19.667 458.129 M15.6248 429.388 L15.6248 424.295 L64.9272 454.023 L64.9272 459.115 L15.6248 429.388 M15.6248 458.129 Q15.6248 453.1 19.1259 450.108 Q22.5952 447.116 28.5472 447.116 Q34.5628 447.116 38.0321 450.108 Q41.5014 453.068 41.5014 458.129 Q41.5014 463.189 38.0321 466.149 Q34.5309 469.078 28.5472 469.078 Q22.6271 469.078 19.1259 466.118 Q15.6248 463.158 15.6248 458.129 Z" fill="#000000" fill-rule="evenodd" fill-opacity="1"></path><path clip-path="url(#clip670)" d="M14.5426 405.516 L14.5426 400.424 Q22.0542 395.649 29.2474 393.294 Q36.4406 390.907 43.5384 390.907 Q50.668 390.907 57.8931 393.294 Q65.1182 395.649 72.5979 400.424 L72.5979 405.516 Q65.3091 401.283 58.1159 399.214 Q50.8908 397.113 43.5384 397.113 Q36.186 397.113 29.0246 399.214 Q21.8632 401.283 14.5426 405.516 Z" fill="#000000" fill-rule="evenodd" fill-opacity="1"></path><polyline clip-path="url(#clip672)" style="stroke:#000000; stroke-linecap:round; stroke-linejoin:round; stroke-width:8; stroke-opacity:1; fill:none" points="
  304.191,1384.24 308.878,1377.47 313.566,1371.43 318.253,1365.96 322.941,1360.94 327.628,1356.31 332.316,1351.99 337.003,1347.95 341.691,1344.14 346.379,1340.54 
  351.066,1337.12 355.754,1333.86 360.441,1330.75 365.129,1327.76 369.816,1324.89 374.504,1322.13 379.191,1319.47 383.879,1316.89 388.566,1314.4 393.254,1311.99 
  397.942,1309.65 402.629,1307.37 407.317,1305.15 412.004,1302.99 416.692,1300.89 421.379,1298.83 426.067,1296.83 430.754,1294.86 435.442,1292.94 440.13,1291.06 
  444.817,1289.22 449.505,1287.42 454.192,1285.64 458.88,1283.91 463.567,1282.2 468.255,1280.52 472.942,1278.87 477.63,1277.24 482.317,1275.65 487.005,1274.07 
  491.693,1272.52 496.38,1271 501.068,1269.49 505.755,1268.01 510.443,1266.54 515.13,1265.1 519.818,1263.67 524.505,1262.26 529.193,1260.87 533.881,1259.5 
  538.568,1258.14 543.256,1256.79 547.943,1255.47 552.631,1254.15 557.318,1252.85 562.006,1251.57 566.693,1250.3 571.381,1249.04 576.068,1247.79 580.756,1246.56 
  585.444,1245.33 590.131,1244.12 594.819,1242.92 599.506,1241.73 604.194,1240.55 608.881,1239.38 613.569,1238.21 618.256,1237.06 622.944,1235.92 627.632,1234.79 
  632.319,1233.66 637.007,1232.55 641.694,1231.44 646.382,1230.34 651.069,1229.25 655.757,1228.17 660.444,1227.09 665.132,1226.02 669.819,1224.96 674.507,1223.9 
  679.195,1222.85 683.882,1221.81 688.57,1220.78 693.257,1219.75 697.945,1218.72 702.632,1217.71 707.32,1216.69 712.007,1215.69 716.695,1214.69 721.383,1213.69 
  726.07,1212.7 730.758,1211.72 735.445,1210.74 740.133,1209.76 744.82,1208.79 749.508,1207.83 754.195,1206.87 758.883,1205.91 763.57,1204.96 768.258,1204.01 
  772.946,1203.07 777.633,1202.13 782.321,1201.2 787.008,1200.27 791.696,1199.34 796.383,1198.41 801.071,1197.49 805.758,1196.58 810.446,1195.67 815.134,1194.76 
  819.821,1193.85 824.509,1192.95 829.196,1192.05 833.884,1191.15 838.571,1190.26 843.259,1189.37 847.946,1188.48 852.634,1187.6 857.321,1186.71 862.009,1185.83 
  866.697,1184.96 871.384,1184.08 876.072,1183.21 880.759,1182.34 885.447,1181.48 890.134,1180.61 894.822,1179.75 899.509,1178.89 904.197,1178.03 908.884,1177.18 
  913.572,1176.32 918.26,1175.47 922.947,1174.62 927.635,1173.78 932.322,1172.93 937.01,1172.09 941.697,1171.25 946.385,1170.41 951.072,1169.57 955.76,1168.73 
  960.448,1167.9 965.135,1167.06 969.823,1166.23 974.51,1165.4 979.198,1164.57 983.885,1163.74 988.573,1162.92 993.26,1162.09 997.948,1161.27 1002.64,1160.44 
  1007.32,1159.62 1012.01,1158.8 1016.7,1157.98 1021.39,1157.17 1026.07,1156.35 1030.76,1155.53 1035.45,1154.72 1040.14,1153.9 1044.82,1153.09 1049.51,1152.28 
  1054.2,1151.47 1058.89,1150.65 1063.57,1149.84 1068.26,1149.03 1072.95,1148.23 1077.64,1147.42 1082.32,1146.61 1087.01,1145.8 1091.7,1144.99 1096.39,1144.19 
  1101.07,1143.38 1105.76,1142.58 1110.45,1141.77 1115.14,1140.97 1119.82,1140.16 1124.51,1139.36 1129.2,1138.55 1133.89,1137.75 1138.57,1136.95 1143.26,1136.14 
  1147.95,1135.34 1152.64,1134.54 1157.32,1133.73 1162.01,1132.93 1166.7,1132.13 1171.39,1131.32 1176.07,1130.52 1180.76,1129.72 1185.45,1128.91 1190.14,1128.11 
  1194.83,1127.31 1199.51,1126.5 1204.2,1125.7 1208.89,1124.89 1213.58,1124.09 1218.26,1123.28 1222.95,1122.47 1227.64,1121.67 1232.33,1120.86 1237.01,1120.05 
  1241.7,1119.25 1246.39,1118.44 1251.08,1117.63 1255.76,1116.82 1260.45,1116.01 1265.14,1115.2 1269.83,1114.38 1274.51,1113.57 1279.2,1112.76 1283.89,1111.94 
  1288.58,1111.13 1293.26,1110.31 1297.95,1109.49 1302.64,1108.67 1307.33,1107.85 1312.01,1107.03 1316.7,1106.21 1321.39,1105.39 1326.08,1104.56 1330.76,1103.74 
  1335.45,1102.91 1340.14,1102.08 1344.83,1101.25 1349.51,1100.42 1354.2,1099.59 1358.89,1098.76 1363.58,1097.92 1368.26,1097.09 1372.95,1096.25 1377.64,1095.41 
  1382.33,1094.57 1387.01,1093.72 1391.7,1092.88 1396.39,1092.03 1401.08,1091.18 1405.76,1090.33 1410.45,1089.48 1415.14,1088.62 1419.83,1087.77 1424.51,1086.91 
  1429.2,1086.04 1433.89,1085.18 1438.58,1084.31 1443.27,1083.45 1447.95,1082.57 1452.64,1081.7 1457.33,1080.82 1462.02,1079.95 1466.7,1079.07 1471.39,1078.18 
  1476.08,1077.3 1480.77,1076.41 1485.45,1075.52 1490.14,1074.62 1494.83,1073.72 1499.52,1072.82 1504.2,1071.92 1508.89,1071.02 1513.58,1070.11 1518.27,1069.2 
  1522.95,1068.28 1527.64,1067.36 1532.33,1066.44 1537.02,1065.52 1541.7,1064.59 1546.39,1063.66 1551.08,1062.72 1555.77,1061.78 1560.45,1060.84 1565.14,1059.89 
  1569.83,1058.94 1574.52,1057.99 1579.2,1057.03 1583.89,1056.06 1588.58,1055.1 1593.27,1054.13 1597.95,1053.15 1602.64,1052.17 1607.33,1051.18 1612.02,1050.19 
  1616.7,1049.2 1621.39,1048.2 1626.08,1047.19 1630.77,1046.18 1635.45,1045.16 1640.14,1044.14 1644.83,1043.11 1649.52,1042.08 1654.2,1041.04 1658.89,1039.99 
  1663.58,1038.94 1668.27,1037.88 1672.96,1036.81 1677.64,1035.74 1682.33,1034.66 1687.02,1033.57 1691.71,1032.48 1696.39,1031.38 1701.08,1030.27 1705.77,1029.15 
  1710.46,1028.03 1715.14,1026.9 1719.83,1025.76 1724.52,1024.61 1729.21,1023.45 1733.89,1022.29 1738.58,1021.11 1743.27,1019.93 1747.96,1018.73 1752.64,1017.53 
  1757.33,1016.32 1762.02,1015.1 1766.71,1013.86 1771.39,1012.62 1776.08,1011.36 1780.77,1010.1 1785.46,1008.82 1790.14,1007.53 1794.83,1006.23 1799.52,1004.91 
  1804.21,1003.58 1808.89,1002.24 1813.58,1000.89 1818.27,999.522 1822.96,998.14 1827.64,996.742 1832.33,995.33 1837.02,993.902 1841.71,992.457 1846.39,990.995 
  1851.08,989.516 1855.77,988.019 1860.46,986.502 1865.14,984.966 1869.83,983.409 1874.52,981.831 1879.21,980.231 1883.89,978.608 1888.58,976.961 1893.27,975.289 
  1897.96,973.591 1902.65,971.867 1907.33,970.115 1912.02,968.334 1916.71,966.523 1921.4,964.681 1926.08,962.807 1930.77,960.9 1935.46,958.957 1940.15,956.976 
  1944.83,954.957 1949.52,952.896 1954.21,950.792 1958.9,948.642 1963.58,946.444 1968.27,944.194 1972.96,941.891 1977.65,939.525 1982.33,937.09 1987.02,934.587 
  1991.71,932.017 1996.4,929.378 2001.08,926.667 2005.77,923.879 2010.46,921.008 2015.15,918.045 2019.83,914.98 2024.52,911.803 2029.21,908.498 2033.9,905.052 
  2038.58,901.448 2043.27,897.667 2047.96,893.689 2052.65,889.493 2057.33,885.055 2062.02,880.35 2066.71,875.349 2071.4,869.983 2076.08,864.209 2080.77,857.961 
  2085.46,851.125 2090.15,843.533 2094.83,834.967 2099.52,825.153 2104.21,813.63 2108.9,799.63 2113.58,781.453 2118.27,755.321 2122.96,705.412 2125.81,86.1857 
  
  "></polyline>
<path clip-path="url(#clip670)" d="
M313.906 196.789 L635.446 196.789 L635.446 93.1086 L313.906 93.1086  Z
  " fill="#ffffff" fill-rule="evenodd" fill-opacity="1"></path>
<polyline clip-path="url(#clip670)" style="stroke:#000000; stroke-linecap:round; stroke-linejoin:round; stroke-width:4; stroke-opacity:1; fill:none" points="
  313.906,196.789 635.446,196.789 635.446,93.1086 313.906,93.1086 313.906,196.789 
  "></polyline>
<polyline clip-path="url(#clip670)" style="stroke:#000000; stroke-linecap:round; stroke-linejoin:round; stroke-width:4; stroke-opacity:1; fill:none" points="
  335.361,144.949 464.088,144.949 
  "></polyline>
<path clip-path="url(#clip670)" d="M503.969 137.067 L503.969 141.094 Q502.163 140.169 500.219 139.706 Q498.274 139.243 496.191 139.243 Q493.02 139.243 491.422 140.215 Q489.848 141.187 489.848 143.131 Q489.848 144.613 490.983 145.469 Q492.117 146.303 495.543 147.067 L497.001 147.391 Q501.538 148.363 503.436 150.145 Q505.358 151.905 505.358 155.076 Q505.358 158.687 502.487 160.793 Q499.64 162.9 494.64 162.9 Q492.557 162.9 490.288 162.483 Q488.043 162.09 485.543 161.28 L485.543 156.881 Q487.904 158.108 490.196 158.733 Q492.487 159.335 494.733 159.335 Q497.742 159.335 499.362 158.317 Q500.983 157.275 500.983 155.4 Q500.983 153.664 499.802 152.738 Q498.645 151.812 494.686 150.956 L493.205 150.608 Q489.247 149.775 487.487 148.062 Q485.728 146.326 485.728 143.317 Q485.728 139.659 488.321 137.669 Q490.913 135.678 495.682 135.678 Q498.043 135.678 500.126 136.025 Q502.209 136.372 503.969 137.067 Z" fill="#000000" fill-rule="evenodd" fill-opacity="1"></path><path clip-path="url(#clip670)" d="M516.353 128.942 L516.353 136.303 L525.126 136.303 L525.126 139.613 L516.353 139.613 L516.353 153.687 Q516.353 156.858 517.209 157.761 Q518.089 158.664 520.751 158.664 L525.126 158.664 L525.126 162.229 L520.751 162.229 Q515.82 162.229 513.945 160.4 Q512.07 158.548 512.07 153.687 L512.07 139.613 L508.946 139.613 L508.946 136.303 L512.07 136.303 L512.07 128.942 L516.353 128.942 Z" fill="#000000" fill-rule="evenodd" fill-opacity="1"></path><path clip-path="url(#clip670)" d="M545.751 140.284 Q545.033 139.868 544.177 139.682 Q543.343 139.474 542.325 139.474 Q538.714 139.474 536.769 141.835 Q534.848 144.173 534.848 148.571 L534.848 162.229 L530.566 162.229 L530.566 136.303 L534.848 136.303 L534.848 140.331 Q536.191 137.969 538.343 136.835 Q540.496 135.678 543.575 135.678 Q544.015 135.678 544.547 135.747 Q545.08 135.794 545.728 135.909 L545.751 140.284 Z" fill="#000000" fill-rule="evenodd" fill-opacity="1"></path><path clip-path="url(#clip670)" d="M562.001 149.196 Q556.839 149.196 554.848 150.377 Q552.857 151.557 552.857 154.405 Q552.857 156.673 554.339 158.016 Q555.843 159.335 558.413 159.335 Q561.954 159.335 564.084 156.835 Q566.237 154.312 566.237 150.145 L566.237 149.196 L562.001 149.196 M570.496 147.437 L570.496 162.229 L566.237 162.229 L566.237 158.293 Q564.779 160.655 562.603 161.789 Q560.427 162.9 557.279 162.9 Q553.297 162.9 550.936 160.678 Q548.598 158.432 548.598 154.682 Q548.598 150.307 551.515 148.085 Q554.455 145.863 560.265 145.863 L566.237 145.863 L566.237 145.446 Q566.237 142.507 564.292 140.909 Q562.371 139.289 558.876 139.289 Q556.654 139.289 554.547 139.821 Q552.441 140.354 550.496 141.419 L550.496 137.483 Q552.834 136.581 555.033 136.141 Q557.232 135.678 559.316 135.678 Q564.941 135.678 567.718 138.594 Q570.496 141.511 570.496 147.437 Z" fill="#000000" fill-rule="evenodd" fill-opacity="1"></path><path clip-path="url(#clip670)" d="M579.269 136.303 L583.528 136.303 L583.528 162.229 L579.269 162.229 L579.269 136.303 M579.269 126.21 L583.528 126.21 L583.528 131.604 L579.269 131.604 L579.269 126.21 Z" fill="#000000" fill-rule="evenodd" fill-opacity="1"></path><path clip-path="url(#clip670)" d="M613.991 146.581 L613.991 162.229 L609.732 162.229 L609.732 146.719 Q609.732 143.039 608.297 141.21 Q606.862 139.382 603.991 139.382 Q600.542 139.382 598.552 141.581 Q596.561 143.78 596.561 147.576 L596.561 162.229 L592.278 162.229 L592.278 136.303 L596.561 136.303 L596.561 140.331 Q598.089 137.993 600.149 136.835 Q602.232 135.678 604.94 135.678 Q609.408 135.678 611.7 138.456 Q613.991 141.21 613.991 146.581 Z" fill="#000000" fill-rule="evenodd" fill-opacity="1"></path><path clip-path="url(#clip670)" d="
M249.542 1423.18 L2180.46 1423.18 L2180.46 47.2441 L249.542 47.2441  Z
  " fill="#000000" fill-rule="evenodd" fill-opacity="0"></path>
<polyline clip-path="url(#clip670)" style="stroke:#000000; stroke-linecap:round; stroke-linejoin:round; stroke-width:4; stroke-opacity:1; fill:none" points="
  2180.46,1423.18 2180.46,47.2441 
  "></polyline>
<polyline clip-path="url(#clip670)" style="stroke:#000000; stroke-linecap:round; stroke-linejoin:round; stroke-width:4; stroke-opacity:1; fill:none" points="
  2180.46,1324.31 2161.56,1324.31 
  "></polyline>
<polyline clip-path="url(#clip670)" style="stroke:#000000; stroke-linecap:round; stroke-linejoin:round; stroke-width:4; stroke-opacity:1; fill:none" points="
  2180.46,1049.17 2161.56,1049.17 
  "></polyline>
<polyline clip-path="url(#clip670)" style="stroke:#000000; stroke-linecap:round; stroke-linejoin:round; stroke-width:4; stroke-opacity:1; fill:none" points="
  2180.46,774.032 2161.56,774.032 
  "></polyline>
<polyline clip-path="url(#clip670)" style="stroke:#000000; stroke-linecap:round; stroke-linejoin:round; stroke-width:4; stroke-opacity:1; fill:none" points="
  2180.46,498.893 2161.56,498.893 
  "></polyline>
<polyline clip-path="url(#clip670)" style="stroke:#000000; stroke-linecap:round; stroke-linejoin:round; stroke-width:4; stroke-opacity:1; fill:none" points="
  2180.46,223.755 2161.56,223.755 
  "></polyline>
<path clip-path="url(#clip670)" d="M2228.4 1310.11 Q2224.79 1310.11 2222.96 1313.67 Q2221.16 1317.21 2221.16 1324.34 Q2221.16 1331.45 2222.96 1335.02 Q2224.79 1338.56 2228.4 1338.56 Q2232.04 1338.56 2233.84 1335.02 Q2235.67 1331.45 2235.67 1324.34 Q2235.67 1317.21 2233.84 1313.67 Q2232.04 1310.11 2228.4 1310.11 M2228.4 1306.4 Q2234.21 1306.4 2237.27 1311.01 Q2240.35 1315.59 2240.35 1324.34 Q2240.35 1333.07 2237.27 1337.68 Q2234.21 1342.26 2228.4 1342.26 Q2222.59 1342.26 2219.51 1337.68 Q2216.46 1333.07 2216.46 1324.34 Q2216.46 1315.59 2219.51 1311.01 Q2222.59 1306.4 2228.4 1306.4 Z" fill="#000000" fill-rule="evenodd" fill-opacity="1"></path><path clip-path="url(#clip670)" d="M2248.56 1335.71 L2253.45 1335.71 L2253.45 1341.59 L2248.56 1341.59 L2248.56 1335.71 Z" fill="#000000" fill-rule="evenodd" fill-opacity="1"></path><path clip-path="url(#clip670)" d="M2263.68 1307.03 L2282.04 1307.03 L2282.04 1310.96 L2267.96 1310.96 L2267.96 1319.44 Q2268.98 1319.09 2270 1318.93 Q2271.02 1318.74 2272.04 1318.74 Q2277.82 1318.74 2281.2 1321.91 Q2284.58 1325.08 2284.58 1330.5 Q2284.58 1336.08 2281.11 1339.18 Q2277.64 1342.26 2271.32 1342.26 Q2269.14 1342.26 2266.87 1341.89 Q2264.63 1341.52 2262.22 1340.78 L2262.22 1336.08 Q2264.3 1337.21 2266.53 1337.77 Q2268.75 1338.33 2271.23 1338.33 Q2275.23 1338.33 2277.57 1336.22 Q2279.91 1334.11 2279.91 1330.5 Q2279.91 1326.89 2277.57 1324.78 Q2275.23 1322.68 2271.23 1322.68 Q2269.35 1322.68 2267.48 1323.09 Q2265.62 1323.51 2263.68 1324.39 L2263.68 1307.03 Z" fill="#000000" fill-rule="evenodd" fill-opacity="1"></path><path clip-path="url(#clip670)" d="M2228.4 1034.97 Q2224.79 1034.97 2222.96 1038.53 Q2221.16 1042.08 2221.16 1049.21 Q2221.16 1056.31 2222.96 1059.88 Q2224.79 1063.42 2228.4 1063.42 Q2232.04 1063.42 2233.84 1059.88 Q2235.67 1056.31 2235.67 1049.21 Q2235.67 1042.08 2233.84 1038.53 Q2232.04 1034.97 2228.4 1034.97 M2228.4 1031.27 Q2234.21 1031.27 2237.27 1035.87 Q2240.35 1040.46 2240.35 1049.21 Q2240.35 1057.93 2237.27 1062.54 Q2234.21 1067.12 2228.4 1067.12 Q2222.59 1067.12 2219.51 1062.54 Q2216.46 1057.93 2216.46 1049.21 Q2216.46 1040.46 2219.51 1035.87 Q2222.59 1031.27 2228.4 1031.27 Z" fill="#000000" fill-rule="evenodd" fill-opacity="1"></path><path clip-path="url(#clip670)" d="M2248.56 1060.57 L2253.45 1060.57 L2253.45 1066.45 L2248.56 1066.45 L2248.56 1060.57 Z" fill="#000000" fill-rule="evenodd" fill-opacity="1"></path><path clip-path="url(#clip670)" d="M2274.21 1047.31 Q2271.06 1047.31 2269.21 1049.46 Q2267.38 1051.61 2267.38 1055.36 Q2267.38 1059.09 2269.21 1061.27 Q2271.06 1063.42 2274.21 1063.42 Q2277.36 1063.42 2279.19 1061.27 Q2281.04 1059.09 2281.04 1055.36 Q2281.04 1051.61 2279.19 1049.46 Q2277.36 1047.31 2274.21 1047.31 M2283.49 1032.65 L2283.49 1036.91 Q2281.74 1036.08 2279.93 1035.64 Q2278.15 1035.2 2276.39 1035.2 Q2271.76 1035.2 2269.3 1038.33 Q2266.87 1041.45 2266.53 1047.77 Q2267.89 1045.76 2269.95 1044.69 Q2272.01 1043.6 2274.49 1043.6 Q2279.7 1043.6 2282.71 1046.77 Q2285.74 1049.92 2285.74 1055.36 Q2285.74 1060.69 2282.59 1063.9 Q2279.44 1067.12 2274.21 1067.12 Q2268.22 1067.12 2265.05 1062.54 Q2261.87 1057.93 2261.87 1049.21 Q2261.87 1041.01 2265.76 1036.15 Q2269.65 1031.27 2276.2 1031.27 Q2277.96 1031.27 2279.74 1031.61 Q2281.55 1031.96 2283.49 1032.65 Z" fill="#000000" fill-rule="evenodd" fill-opacity="1"></path><path clip-path="url(#clip670)" d="M2228.4 759.831 Q2224.79 759.831 2222.96 763.395 Q2221.16 766.937 2221.16 774.067 Q2221.16 781.173 2222.96 784.738 Q2224.79 788.28 2228.4 788.28 Q2232.04 788.28 2233.84 784.738 Q2235.67 781.173 2235.67 774.067 Q2235.67 766.937 2233.84 763.395 Q2232.04 759.831 2228.4 759.831 M2228.4 756.127 Q2234.21 756.127 2237.27 760.733 Q2240.35 765.317 2240.35 774.067 Q2240.35 782.794 2237.27 787.4 Q2234.21 791.983 2228.4 791.983 Q2222.59 791.983 2219.51 787.4 Q2216.46 782.794 2216.46 774.067 Q2216.46 765.317 2219.51 760.733 Q2222.59 756.127 2228.4 756.127 Z" fill="#000000" fill-rule="evenodd" fill-opacity="1"></path><path clip-path="url(#clip670)" d="M2248.56 785.432 L2253.45 785.432 L2253.45 791.312 L2248.56 791.312 L2248.56 785.432 Z" fill="#000000" fill-rule="evenodd" fill-opacity="1"></path><path clip-path="url(#clip670)" d="M2262.45 756.752 L2284.68 756.752 L2284.68 758.743 L2272.13 791.312 L2267.24 791.312 L2279.05 760.687 L2262.45 760.687 L2262.45 756.752 Z" fill="#000000" fill-rule="evenodd" fill-opacity="1"></path><path clip-path="url(#clip670)" d="M2228.4 484.692 Q2224.79 484.692 2222.96 488.257 Q2221.16 491.799 2221.16 498.928 Q2221.16 506.035 2222.96 509.599 Q2224.79 513.141 2228.4 513.141 Q2232.04 513.141 2233.84 509.599 Q2235.67 506.035 2235.67 498.928 Q2235.67 491.799 2233.84 488.257 Q2232.04 484.692 2228.4 484.692 M2228.4 480.988 Q2234.21 480.988 2237.27 485.595 Q2240.35 490.178 2240.35 498.928 Q2240.35 507.655 2237.27 512.261 Q2234.21 516.845 2228.4 516.845 Q2222.59 516.845 2219.51 512.261 Q2216.46 507.655 2216.46 498.928 Q2216.46 490.178 2219.51 485.595 Q2222.59 480.988 2228.4 480.988 Z" fill="#000000" fill-rule="evenodd" fill-opacity="1"></path><path clip-path="url(#clip670)" d="M2248.56 510.294 L2253.45 510.294 L2253.45 516.173 L2248.56 516.173 L2248.56 510.294 Z" fill="#000000" fill-rule="evenodd" fill-opacity="1"></path><path clip-path="url(#clip670)" d="M2273.63 499.761 Q2270.3 499.761 2268.38 501.544 Q2266.48 503.326 2266.48 506.451 Q2266.48 509.576 2268.38 511.359 Q2270.3 513.141 2273.63 513.141 Q2276.97 513.141 2278.89 511.359 Q2280.81 509.553 2280.81 506.451 Q2280.81 503.326 2278.89 501.544 Q2276.99 499.761 2273.63 499.761 M2268.96 497.771 Q2265.95 497.03 2264.26 494.97 Q2262.59 492.91 2262.59 489.947 Q2262.59 485.803 2265.53 483.396 Q2268.49 480.988 2273.63 480.988 Q2278.8 480.988 2281.74 483.396 Q2284.68 485.803 2284.68 489.947 Q2284.68 492.91 2282.99 494.97 Q2281.32 497.03 2278.33 497.771 Q2281.71 498.558 2283.59 500.849 Q2285.49 503.141 2285.49 506.451 Q2285.49 511.474 2282.41 514.16 Q2279.35 516.845 2273.63 516.845 Q2267.92 516.845 2264.84 514.16 Q2261.78 511.474 2261.78 506.451 Q2261.78 503.141 2263.68 500.849 Q2265.58 498.558 2268.96 497.771 M2267.24 490.387 Q2267.24 493.072 2268.91 494.576 Q2270.6 496.081 2273.63 496.081 Q2276.64 496.081 2278.33 494.576 Q2280.05 493.072 2280.05 490.387 Q2280.05 487.701 2278.33 486.197 Q2276.64 484.692 2273.63 484.692 Q2270.6 484.692 2268.91 486.197 Q2267.24 487.701 2267.24 490.387 Z" fill="#000000" fill-rule="evenodd" fill-opacity="1"></path><path clip-path="url(#clip670)" d="M2228.4 209.554 Q2224.79 209.554 2222.96 213.118 Q2221.16 216.66 2221.16 223.79 Q2221.16 230.896 2222.96 234.461 Q2224.79 238.002 2228.4 238.002 Q2232.04 238.002 2233.84 234.461 Q2235.67 230.896 2235.67 223.79 Q2235.67 216.66 2233.84 213.118 Q2232.04 209.554 2228.4 209.554 M2228.4 205.85 Q2234.21 205.85 2237.27 210.456 Q2240.35 215.04 2240.35 223.79 Q2240.35 232.516 2237.27 237.123 Q2234.21 241.706 2228.4 241.706 Q2222.59 241.706 2219.51 237.123 Q2216.46 232.516 2216.46 223.79 Q2216.46 215.04 2219.51 210.456 Q2222.59 205.85 2228.4 205.85 Z" fill="#000000" fill-rule="evenodd" fill-opacity="1"></path><path clip-path="url(#clip670)" d="M2248.56 235.155 L2253.45 235.155 L2253.45 241.035 L2248.56 241.035 L2248.56 235.155 Z" fill="#000000" fill-rule="evenodd" fill-opacity="1"></path><path clip-path="url(#clip670)" d="M2263.77 240.317 L2263.77 236.058 Q2265.53 236.891 2267.34 237.331 Q2269.14 237.771 2270.88 237.771 Q2275.51 237.771 2277.94 234.669 Q2280.39 231.544 2280.74 225.202 Q2279.4 227.192 2277.34 228.257 Q2275.28 229.322 2272.78 229.322 Q2267.59 229.322 2264.56 226.197 Q2261.55 223.049 2261.55 217.609 Q2261.55 212.285 2264.7 209.067 Q2267.85 205.85 2273.08 205.85 Q2279.07 205.85 2282.22 210.456 Q2285.39 215.04 2285.39 223.79 Q2285.39 231.961 2281.5 236.845 Q2277.64 241.706 2271.09 241.706 Q2269.33 241.706 2267.52 241.359 Q2265.72 241.012 2263.77 240.317 M2273.08 225.665 Q2276.23 225.665 2278.05 223.512 Q2279.91 221.359 2279.91 217.609 Q2279.91 213.882 2278.05 211.729 Q2276.23 209.554 2273.08 209.554 Q2269.93 209.554 2268.08 211.729 Q2266.25 213.882 2266.25 217.609 Q2266.25 221.359 2268.08 223.512 Q2269.93 225.665 2273.08 225.665 Z" fill="#000000" fill-rule="evenodd" fill-opacity="1"></path><path clip-path="url(#clip670)" d="M2348.53 838.798 L2329.24 838.798 L2329.24 832.941 L2378.76 832.941 L2378.76 838.798 L2373.42 838.798 Q2376.6 840.644 2378.16 843.477 Q2379.69 846.278 2379.69 850.224 Q2379.69 856.686 2374.53 860.76 Q2369.37 864.802 2360.97 864.802 Q2352.57 864.802 2347.41 860.76 Q2342.26 856.686 2342.26 850.224 Q2342.26 846.278 2343.82 843.477 Q2345.34 840.644 2348.53 838.798 M2360.97 858.754 Q2367.43 858.754 2371.12 856.113 Q2374.79 853.439 2374.79 848.792 Q2374.79 844.145 2371.12 841.472 Q2367.43 838.798 2360.97 838.798 Q2354.51 838.798 2350.85 841.472 Q2347.16 844.145 2347.16 848.792 Q2347.16 853.439 2350.85 856.113 Q2354.51 858.754 2360.97 858.754 Z" fill="#000000" fill-rule="evenodd" fill-opacity="1"></path><path clip-path="url(#clip670)" d="M2360.84 804.678 Q2360.84 811.776 2362.47 814.513 Q2364.09 817.25 2368.01 817.25 Q2371.12 817.25 2372.97 815.213 Q2374.79 813.144 2374.79 809.611 Q2374.79 804.741 2371.35 801.813 Q2367.88 798.853 2362.15 798.853 L2360.84 798.853 L2360.84 804.678 M2358.43 792.997 L2378.76 792.997 L2378.76 798.853 L2373.35 798.853 Q2376.6 800.858 2378.16 803.85 Q2379.69 806.842 2379.69 811.171 Q2379.69 816.645 2376.63 819.892 Q2373.54 823.106 2368.39 823.106 Q2362.37 823.106 2359.32 819.096 Q2356.26 815.054 2356.26 807.065 L2356.26 798.853 L2355.69 798.853 Q2351.65 798.853 2349.45 801.527 Q2347.22 804.168 2347.22 808.975 Q2347.22 812.03 2347.95 814.927 Q2348.69 817.823 2350.15 820.497 L2344.74 820.497 Q2343.5 817.282 2342.89 814.258 Q2342.26 811.234 2342.26 808.37 Q2342.26 800.636 2346.27 796.816 Q2350.28 792.997 2358.43 792.997 Z" fill="#000000" fill-rule="evenodd" fill-opacity="1"></path><path clip-path="url(#clip670)" d="M2349.96 753.179 Q2346.01 750.983 2344.13 747.927 Q2342.26 744.872 2342.26 740.734 Q2342.26 735.164 2346.17 732.141 Q2350.05 729.117 2357.25 729.117 L2378.76 729.117 L2378.76 735.005 L2357.44 735.005 Q2352.31 735.005 2349.83 736.819 Q2347.35 738.634 2347.35 742.357 Q2347.35 746.909 2350.37 749.551 Q2353.4 752.192 2358.62 752.192 L2378.76 752.192 L2378.76 758.081 L2357.44 758.081 Q2352.28 758.081 2349.83 759.895 Q2347.35 761.709 2347.35 765.497 Q2347.35 769.985 2350.4 772.626 Q2353.43 775.268 2358.62 775.268 L2378.76 775.268 L2378.76 781.156 L2343.12 781.156 L2343.12 775.268 L2348.65 775.268 Q2345.38 773.263 2343.82 770.462 Q2342.26 767.661 2342.26 763.81 Q2342.26 759.927 2344.23 757.221 Q2346.2 754.484 2349.96 753.179 Z" fill="#000000" fill-rule="evenodd" fill-opacity="1"></path><path clip-path="url(#clip670)" d="M2360.84 701.235 Q2360.84 708.333 2362.47 711.07 Q2364.09 713.807 2368.01 713.807 Q2371.12 713.807 2372.97 711.77 Q2374.79 709.701 2374.79 706.168 Q2374.79 701.299 2371.35 698.37 Q2367.88 695.41 2362.15 695.41 L2360.84 695.41 L2360.84 701.235 M2358.43 689.554 L2378.76 689.554 L2378.76 695.41 L2373.35 695.41 Q2376.6 697.416 2378.16 700.407 Q2379.69 703.399 2379.69 707.728 Q2379.69 713.203 2376.63 716.449 Q2373.54 719.664 2368.39 719.664 Q2362.37 719.664 2359.32 715.653 Q2356.26 711.611 2356.26 703.622 L2356.26 695.41 L2355.69 695.41 Q2351.65 695.41 2349.45 698.084 Q2347.22 700.726 2347.22 705.532 Q2347.22 708.587 2347.95 711.484 Q2348.69 714.38 2350.15 717.054 L2344.74 717.054 Q2343.5 713.839 2342.89 710.815 Q2342.26 707.792 2342.26 704.927 Q2342.26 697.193 2346.27 693.373 Q2350.28 689.554 2358.43 689.554 Z" fill="#000000" fill-rule="evenodd" fill-opacity="1"></path><path clip-path="url(#clip670)" d="M2360.53 654.033 Q2354.16 654.033 2350.66 656.675 Q2347.16 659.285 2347.16 664.027 Q2347.16 668.738 2350.66 671.38 Q2354.16 673.99 2360.53 673.99 Q2366.86 673.99 2370.36 671.38 Q2373.86 668.738 2373.86 664.027 Q2373.86 659.285 2370.36 656.675 Q2366.86 654.033 2360.53 654.033 M2374.34 648.177 Q2383.44 648.177 2387.87 652.219 Q2392.32 656.261 2392.32 664.6 Q2392.32 667.688 2391.85 670.425 Q2391.4 673.162 2390.44 675.74 L2384.75 675.74 Q2386.15 673.162 2386.82 670.648 Q2387.48 668.133 2387.48 665.523 Q2387.48 659.762 2384.46 656.898 Q2381.47 654.033 2375.39 654.033 L2372.49 654.033 Q2375.64 655.848 2377.2 658.68 Q2378.76 661.513 2378.76 665.46 Q2378.76 672.016 2373.77 676.027 Q2368.77 680.037 2360.53 680.037 Q2352.25 680.037 2347.25 676.027 Q2342.26 672.016 2342.26 665.46 Q2342.26 661.513 2343.82 658.68 Q2345.38 655.848 2348.53 654.033 L2343.12 654.033 L2343.12 648.177 L2374.34 648.177 Z" fill="#000000" fill-rule="evenodd" fill-opacity="1"></path><path clip-path="url(#clip670)" d="M2359.48 605.622 L2362.34 605.622 L2362.34 632.549 Q2368.39 632.167 2371.57 628.921 Q2374.72 625.642 2374.72 619.818 Q2374.72 616.444 2373.89 613.293 Q2373.07 610.11 2371.41 606.991 L2376.95 606.991 Q2378.29 610.142 2378.99 613.452 Q2379.69 616.762 2379.69 620.168 Q2379.69 628.698 2374.72 633.695 Q2369.76 638.66 2361.29 638.66 Q2352.54 638.66 2347.41 633.949 Q2342.26 629.207 2342.26 621.186 Q2342.26 613.993 2346.9 609.823 Q2351.52 605.622 2359.48 605.622 M2357.76 611.479 Q2352.95 611.542 2350.09 614.184 Q2347.22 616.794 2347.22 621.123 Q2347.22 626.024 2349.99 628.984 Q2352.76 631.912 2357.79 632.358 L2357.76 611.479 Z" fill="#000000" fill-rule="evenodd" fill-opacity="1"></path><polyline clip-path="url(#clip672)" style="stroke:#b22222; stroke-linecap:round; stroke-linejoin:round; stroke-width:8; stroke-opacity:1; fill:none" points="
  304.191,1384.24 308.878,1373.75 313.566,1364.43 318.253,1356.03 322.941,1348.37 327.628,1341.32 332.316,1334.78 337.003,1328.67 341.691,1322.94 346.379,1317.54 
  351.066,1312.42 355.754,1307.55 360.441,1302.92 365.129,1298.49 369.816,1294.24 374.504,1290.16 379.191,1286.23 383.879,1282.45 388.566,1278.79 393.254,1275.26 
  397.942,1271.83 402.629,1268.51 407.317,1265.28 412.004,1262.14 416.692,1259.09 421.379,1256.11 426.067,1253.21 430.754,1250.38 435.442,1247.61 440.13,1244.9 
  444.817,1242.26 449.505,1239.67 454.192,1237.13 458.88,1234.64 463.567,1232.2 468.255,1229.8 472.942,1227.45 477.63,1225.14 482.317,1222.87 487.005,1220.64 
  491.693,1218.44 496.38,1216.28 501.068,1214.15 505.755,1212.06 510.443,1209.99 515.13,1207.95 519.818,1205.95 524.505,1203.97 529.193,1202.02 533.881,1200.09 
  538.568,1198.18 543.256,1196.31 547.943,1194.45 552.631,1192.62 557.318,1190.8 562.006,1189.01 566.693,1187.24 571.381,1185.49 576.068,1183.76 580.756,1182.05 
  585.444,1180.35 590.131,1178.67 594.819,1177.01 599.506,1175.36 604.194,1173.73 608.881,1172.12 613.569,1170.52 618.256,1168.93 622.944,1167.36 627.632,1165.8 
  632.319,1164.26 637.007,1162.73 641.694,1161.21 646.382,1159.7 651.069,1158.21 655.757,1156.73 660.444,1155.26 665.132,1153.8 669.819,1152.35 674.507,1150.91 
  679.195,1149.49 683.882,1148.07 688.57,1146.66 693.257,1145.26 697.945,1143.87 702.632,1142.5 707.32,1141.12 712.007,1139.76 716.695,1138.41 721.383,1137.07 
  726.07,1135.73 730.758,1134.4 735.445,1133.08 740.133,1131.77 744.82,1130.46 749.508,1129.16 754.195,1127.87 758.883,1126.59 763.57,1125.31 768.258,1124.04 
  772.946,1122.78 777.633,1121.52 782.321,1120.27 787.008,1119.02 791.696,1117.79 796.383,1116.55 801.071,1115.33 805.758,1114.1 810.446,1112.89 815.134,1111.68 
  819.821,1110.47 824.509,1109.27 829.196,1108.08 833.884,1106.89 838.571,1105.7 843.259,1104.52 847.946,1103.35 852.634,1102.18 857.321,1101.01 862.009,1099.85 
  866.697,1098.69 871.384,1097.54 876.072,1096.39 880.759,1095.24 885.447,1094.1 890.134,1092.96 894.822,1091.83 899.509,1090.7 904.197,1089.57 908.884,1088.45 
  913.572,1087.33 918.26,1086.21 922.947,1085.1 927.635,1083.99 932.322,1082.89 937.01,1081.78 941.697,1080.68 946.385,1079.59 951.072,1078.49 955.76,1077.4 
  960.448,1076.31 965.135,1075.23 969.823,1074.14 974.51,1073.06 979.198,1071.99 983.885,1070.91 988.573,1069.84 993.26,1068.77 997.948,1067.7 1002.64,1066.63 
  1007.32,1065.57 1012.01,1064.51 1016.7,1063.45 1021.39,1062.39 1026.07,1061.34 1030.76,1060.28 1035.45,1059.23 1040.14,1058.18 1044.82,1057.13 1049.51,1056.09 
  1054.2,1055.04 1058.89,1054 1063.57,1052.96 1068.26,1051.92 1072.95,1050.88 1077.64,1049.84 1082.32,1048.81 1087.01,1047.77 1091.7,1046.74 1096.39,1045.71 
  1101.07,1044.68 1105.76,1043.65 1110.45,1042.62 1115.14,1041.6 1119.82,1040.57 1124.51,1039.54 1129.2,1038.52 1133.89,1037.5 1138.57,1036.47 1143.26,1035.45 
  1147.95,1034.43 1152.64,1033.41 1157.32,1032.39 1162.01,1031.37 1166.7,1030.36 1171.39,1029.34 1176.07,1028.32 1180.76,1027.31 1185.45,1026.29 1190.14,1025.27 
  1194.83,1024.26 1199.51,1023.24 1204.2,1022.23 1208.89,1021.21 1213.58,1020.2 1218.26,1019.18 1222.95,1018.17 1227.64,1017.16 1232.33,1016.14 1237.01,1015.13 
  1241.7,1014.11 1246.39,1013.1 1251.08,1012.09 1255.76,1011.07 1260.45,1010.06 1265.14,1009.04 1269.83,1008.03 1274.51,1007.01 1279.2,1005.99 1283.89,1004.98 
  1288.58,1003.96 1293.26,1002.94 1297.95,1001.92 1302.64,1000.9 1307.33,999.885 1312.01,998.865 1316.7,997.843 1321.39,996.821 1326.08,995.799 1330.76,994.775 
  1335.45,993.75 1340.14,992.725 1344.83,991.698 1349.51,990.67 1354.2,989.641 1358.89,988.611 1363.58,987.58 1368.26,986.547 1372.95,985.513 1377.64,984.478 
  1382.33,983.442 1387.01,982.403 1391.7,981.364 1396.39,980.323 1401.08,979.28 1405.76,978.235 1410.45,977.189 1415.14,976.141 1419.83,975.091 1424.51,974.039 
  1429.2,972.985 1433.89,971.929 1438.58,970.87 1443.27,969.809 1447.95,968.746 1452.64,967.681 1457.33,966.614 1462.02,965.544 1466.7,964.472 1471.39,963.398 
  1476.08,962.321 1480.77,961.241 1485.45,960.159 1490.14,959.074 1494.83,957.987 1499.52,956.897 1504.2,955.804 1508.89,954.708 1513.58,953.61 1518.27,952.508 
  1522.95,951.404 1527.64,950.296 1532.33,949.185 1537.02,948.07 1541.7,946.953 1546.39,945.832 1551.08,944.707 1555.77,943.579 1560.45,942.446 1565.14,941.31 
  1569.83,940.171 1574.52,939.027 1579.2,937.879 1583.89,936.726 1588.58,935.57 1593.27,934.409 1597.95,933.243 1602.64,932.072 1607.33,930.897 1612.02,929.717 
  1616.7,928.532 1621.39,927.341 1626.08,926.146 1630.77,924.944 1635.45,923.738 1640.14,922.525 1644.83,921.307 1649.52,920.082 1654.2,918.852 1658.89,917.615 
  1663.58,916.372 1668.27,915.122 1672.96,913.865 1677.64,912.601 1682.33,911.331 1687.02,910.053 1691.71,908.767 1696.39,907.474 1701.08,906.174 1705.77,904.865 
  1710.46,903.548 1715.14,902.223 1719.83,900.89 1724.52,899.547 1729.21,898.196 1733.89,896.836 1738.58,895.467 1743.27,894.088 1747.96,892.7 1752.64,891.302 
  1757.33,889.894 1762.02,888.475 1766.71,887.046 1771.39,885.606 1776.08,884.154 1780.77,882.689 1785.46,881.213 1790.14,879.724 1794.83,878.223 1799.52,876.708 
  1804.21,875.181 1808.89,873.64 1813.58,872.084 1818.27,870.515 1822.96,868.93 1827.64,867.331 1832.33,865.715 1837.02,864.083 1841.71,862.434 1846.39,860.767 
  1851.08,859.082 1855.77,857.378 1860.46,855.654 1865.14,853.91 1869.83,852.145 1874.52,850.357 1879.21,848.547 1883.89,846.713 1888.58,844.854 1893.27,842.969 
  1897.96,841.058 1902.65,839.12 1907.33,837.152 1912.02,835.155 1916.71,833.127 1921.4,831.066 1926.08,828.973 1930.77,826.845 1935.46,824.68 1940.15,822.477 
  1944.83,820.233 1949.52,817.947 1954.21,815.617 1958.9,813.239 1963.58,810.812 1968.27,808.333 1972.96,805.798 1977.65,803.199 1982.33,800.529 1987.02,797.791 
  1991.71,794.984 1996.4,792.106 2001.08,789.154 2005.77,786.124 2010.46,783.009 2015.15,779.8 2019.83,776.489 2024.52,773.062 2029.21,769.507 2033.9,765.81 
  2038.58,761.953 2043.27,757.919 2047.96,753.688 2052.65,749.237 2057.33,744.545 2062.02,739.586 2066.71,734.333 2071.4,728.717 2076.08,722.696 2080.77,716.206 
  2085.46,709.137 2090.15,701.327 2094.83,692.568 2099.52,682.595 2104.21,670.97 2108.9,656.967 2113.58,638.991 2118.27,613.528 2122.96,566.127 2125.81,86.1857 
  
  "></polyline>
</svg>