<svg xmlns="http://www.w3.org/2000/svg" xmlns:xlink="http://www.w3.org/1999/xlink" width="600" height="400" viewBox="0 0 2400 1600">
<defs>
  <clipPath id="clip030">
    <rect x="0" y="0" width="2400" height="1600"></rect>
  </clipPath>
</defs>
<path clip-path="url(#clip030)" d="
M0 1600 L2400 1600 L2400 0 L0 0  Z
  " fill="#ffffff" fill-rule="evenodd" fill-opacity="1"></path>
<defs>
  <clipPath id="clip031">
    <rect x="480" y="0" width="1681" height="1600"></rect>
  </clipPath>
</defs>
<path clip-path="url(#clip030)" d="
M234.125 1423.18 L2180.13 1423.18 L2180.13 47.2441 L234.125 47.2441  Z
  " fill="#ffffff" fill-rule="evenodd" fill-opacity="1"></path>
<defs>
  <clipPath id="clip032">
    <rect x="234" y="47" width="1947" height="1377"></rect>
  </clipPath>
</defs>
<polyline clip-path="url(#clip032)" style="stroke:#000000; stroke-linecap:round; stroke-linejoin:round; stroke-width:2; stroke-opacity:0.1; fill:none" points="
  289.201,1423.18 289.201,47.2441 
  "></polyline>
<polyline clip-path="url(#clip032)" style="stroke:#000000; stroke-linecap:round; stroke-linejoin:round; stroke-width:2; stroke-opacity:0.1; fill:none" points="
  622.993,1423.18 622.993,47.2441 
  "></polyline>
<polyline clip-path="url(#clip032)" style="stroke:#000000; stroke-linecap:round; stroke-linejoin:round; stroke-width:2; stroke-opacity:0.1; fill:none" points="
  956.785,1423.18 956.785,47.2441 
  "></polyline>
<polyline clip-path="url(#clip032)" style="stroke:#000000; stroke-linecap:round; stroke-linejoin:round; stroke-width:2; stroke-opacity:0.1; fill:none" points="
  1290.58,1423.18 1290.58,47.2441 
  "></polyline>
<polyline clip-path="url(#clip032)" style="stroke:#000000; stroke-linecap:round; stroke-linejoin:round; stroke-width:2; stroke-opacity:0.1; fill:none" points="
  1624.37,1423.18 1624.37,47.2441 
  "></polyline>
<polyline clip-path="url(#clip032)" style="stroke:#000000; stroke-linecap:round; stroke-linejoin:round; stroke-width:2; stroke-opacity:0.1; fill:none" points="
  1958.16,1423.18 1958.16,47.2441 
  "></polyline>
<polyline clip-path="url(#clip030)" style="stroke:#000000; stroke-linecap:round; stroke-linejoin:round; stroke-width:4; stroke-opacity:1; fill:none" points="
  234.125,1423.18 2180.13,1423.18 
  "></polyline>
<polyline clip-path="url(#clip030)" style="stroke:#000000; stroke-linecap:round; stroke-linejoin:round; stroke-width:4; stroke-opacity:1; fill:none" points="
  289.201,1423.18 289.201,1404.28 
  "></polyline>
<polyline clip-path="url(#clip030)" style="stroke:#000000; stroke-linecap:round; stroke-linejoin:round; stroke-width:4; stroke-opacity:1; fill:none" points="
  622.993,1423.18 622.993,1404.28 
  "></polyline>
<polyline clip-path="url(#clip030)" style="stroke:#000000; stroke-linecap:round; stroke-linejoin:round; stroke-width:4; stroke-opacity:1; fill:none" points="
  956.785,1423.18 956.785,1404.28 
  "></polyline>
<polyline clip-path="url(#clip030)" style="stroke:#000000; stroke-linecap:round; stroke-linejoin:round; stroke-width:4; stroke-opacity:1; fill:none" points="
  1290.58,1423.18 1290.58,1404.28 
  "></polyline>
<polyline clip-path="url(#clip030)" style="stroke:#000000; stroke-linecap:round; stroke-linejoin:round; stroke-width:4; stroke-opacity:1; fill:none" points="
  1624.37,1423.18 1624.37,1404.28 
  "></polyline>
<polyline clip-path="url(#clip030)" style="stroke:#000000; stroke-linecap:round; stroke-linejoin:round; stroke-width:4; stroke-opacity:1; fill:none" points="
  1958.16,1423.18 1958.16,1404.28 
  "></polyline>
<path clip-path="url(#clip030)" d="M266.586 1454.1 Q262.974 1454.1 261.146 1457.66 Q259.34 1461.2 259.34 1468.33 Q259.34 1475.44 261.146 1479.01 Q262.974 1482.55 266.586 1482.55 Q270.22 1482.55 272.025 1479.01 Q273.854 1475.44 273.854 1468.33 Q273.854 1461.2 272.025 1457.66 Q270.22 1454.1 266.586 1454.1 M266.586 1450.39 Q272.396 1450.39 275.451 1455 Q278.53 1459.58 278.53 1468.33 Q278.53 1477.06 275.451 1481.67 Q272.396 1486.25 266.586 1486.25 Q260.775 1486.25 257.697 1481.67 Q254.641 1477.06 254.641 1468.33 Q254.641 1459.58 257.697 1455 Q260.775 1450.39 266.586 1450.39 Z" fill="#000000" fill-rule="evenodd" fill-opacity="1"></path><path clip-path="url(#clip030)" d="M286.747 1479.7 L291.632 1479.7 L291.632 1485.58 L286.747 1485.58 L286.747 1479.7 Z" fill="#000000" fill-rule="evenodd" fill-opacity="1"></path><path clip-path="url(#clip030)" d="M311.817 1454.1 Q308.206 1454.1 306.377 1457.66 Q304.571 1461.2 304.571 1468.33 Q304.571 1475.44 306.377 1479.01 Q308.206 1482.55 311.817 1482.55 Q315.451 1482.55 317.257 1479.01 Q319.085 1475.44 319.085 1468.33 Q319.085 1461.2 317.257 1457.66 Q315.451 1454.1 311.817 1454.1 M311.817 1450.39 Q317.627 1450.39 320.682 1455 Q323.761 1459.58 323.761 1468.33 Q323.761 1477.06 320.682 1481.67 Q317.627 1486.25 311.817 1486.25 Q306.007 1486.25 302.928 1481.67 Q299.872 1477.06 299.872 1468.33 Q299.872 1459.58 302.928 1455 Q306.007 1450.39 311.817 1450.39 Z" fill="#000000" fill-rule="evenodd" fill-opacity="1"></path><path clip-path="url(#clip030)" d="M600.991 1454.1 Q597.38 1454.1 595.551 1457.66 Q593.746 1461.2 593.746 1468.33 Q593.746 1475.44 595.551 1479.01 Q597.38 1482.55 600.991 1482.55 Q604.625 1482.55 606.431 1479.01 Q608.26 1475.44 608.26 1468.33 Q608.26 1461.2 606.431 1457.66 Q604.625 1454.1 600.991 1454.1 M600.991 1450.39 Q606.801 1450.39 609.857 1455 Q612.935 1459.58 612.935 1468.33 Q612.935 1477.06 609.857 1481.67 Q606.801 1486.25 600.991 1486.25 Q595.181 1486.25 592.102 1481.67 Q589.047 1477.06 589.047 1468.33 Q589.047 1459.58 592.102 1455 Q595.181 1450.39 600.991 1450.39 Z" fill="#000000" fill-rule="evenodd" fill-opacity="1"></path><path clip-path="url(#clip030)" d="M621.153 1479.7 L626.037 1479.7 L626.037 1485.58 L621.153 1485.58 L621.153 1479.7 Z" fill="#000000" fill-rule="evenodd" fill-opacity="1"></path><path clip-path="url(#clip030)" d="M637.033 1481.64 L644.671 1481.64 L644.671 1455.28 L636.361 1456.95 L636.361 1452.69 L644.625 1451.02 L649.301 1451.02 L649.301 1481.64 L656.94 1481.64 L656.94 1485.58 L637.033 1485.58 L637.033 1481.64 Z" fill="#000000" fill-rule="evenodd" fill-opacity="1"></path><path clip-path="url(#clip030)" d="M934.968 1454.1 Q931.357 1454.1 929.529 1457.66 Q927.723 1461.2 927.723 1468.33 Q927.723 1475.44 929.529 1479.01 Q931.357 1482.55 934.968 1482.55 Q938.603 1482.55 940.408 1479.01 Q942.237 1475.44 942.237 1468.33 Q942.237 1461.2 940.408 1457.66 Q938.603 1454.1 934.968 1454.1 M934.968 1450.39 Q940.779 1450.39 943.834 1455 Q946.913 1459.58 946.913 1468.33 Q946.913 1477.06 943.834 1481.67 Q940.779 1486.25 934.968 1486.25 Q929.158 1486.25 926.08 1481.67 Q923.024 1477.06 923.024 1468.33 Q923.024 1459.58 926.08 1455 Q929.158 1450.39 934.968 1450.39 Z" fill="#000000" fill-rule="evenodd" fill-opacity="1"></path><path clip-path="url(#clip030)" d="M955.13 1479.7 L960.015 1479.7 L960.015 1485.58 L955.13 1485.58 L955.13 1479.7 Z" fill="#000000" fill-rule="evenodd" fill-opacity="1"></path><path clip-path="url(#clip030)" d="M974.228 1481.64 L990.547 1481.64 L990.547 1485.58 L968.603 1485.58 L968.603 1481.64 Q971.265 1478.89 975.848 1474.26 Q980.454 1469.61 981.635 1468.27 Q983.88 1465.74 984.76 1464.01 Q985.663 1462.25 985.663 1460.56 Q985.663 1457.8 983.718 1456.07 Q981.797 1454.33 978.695 1454.33 Q976.496 1454.33 974.042 1455.09 Q971.612 1455.86 968.834 1457.41 L968.834 1452.69 Q971.658 1451.55 974.112 1450.97 Q976.565 1450.39 978.602 1450.39 Q983.973 1450.39 987.167 1453.08 Q990.362 1455.77 990.362 1460.26 Q990.362 1462.39 989.552 1464.31 Q988.764 1466.2 986.658 1468.8 Q986.079 1469.47 982.977 1472.69 Q979.876 1475.88 974.228 1481.64 Z" fill="#000000" fill-rule="evenodd" fill-opacity="1"></path><path clip-path="url(#clip030)" d="M1268.29 1454.1 Q1264.67 1454.1 1262.85 1457.66 Q1261.04 1461.2 1261.04 1468.33 Q1261.04 1475.44 1262.85 1479.01 Q1264.67 1482.55 1268.29 1482.55 Q1271.92 1482.55 1273.73 1479.01 Q1275.55 1475.44 1275.55 1468.33 Q1275.55 1461.2 1273.73 1457.66 Q1271.92 1454.1 1268.29 1454.1 M1268.29 1450.39 Q1274.1 1450.39 1277.15 1455 Q1280.23 1459.58 1280.23 1468.33 Q1280.23 1477.06 1277.15 1481.67 Q1274.1 1486.25 1268.29 1486.25 Q1262.48 1486.25 1259.4 1481.67 Q1256.34 1477.06 1256.34 1468.33 Q1256.34 1459.58 1259.4 1455 Q1262.48 1450.39 1268.29 1450.39 Z" fill="#000000" fill-rule="evenodd" fill-opacity="1"></path><path clip-path="url(#clip030)" d="M1288.45 1479.7 L1293.33 1479.7 L1293.33 1485.58 L1288.45 1485.58 L1288.45 1479.7 Z" fill="#000000" fill-rule="evenodd" fill-opacity="1"></path><path clip-path="url(#clip030)" d="M1317.68 1466.95 Q1321.04 1467.66 1322.92 1469.93 Q1324.81 1472.2 1324.81 1475.53 Q1324.81 1480.65 1321.3 1483.45 Q1317.78 1486.25 1311.3 1486.25 Q1309.12 1486.25 1306.8 1485.81 Q1304.51 1485.39 1302.06 1484.54 L1302.06 1480.02 Q1304 1481.16 1306.32 1481.74 Q1308.63 1482.32 1311.16 1482.32 Q1315.55 1482.32 1317.85 1480.58 Q1320.16 1478.84 1320.16 1475.53 Q1320.16 1472.48 1318.01 1470.77 Q1315.88 1469.03 1312.06 1469.03 L1308.03 1469.03 L1308.03 1465.19 L1312.24 1465.19 Q1315.69 1465.19 1317.52 1463.82 Q1319.35 1462.43 1319.35 1459.84 Q1319.35 1457.18 1317.45 1455.77 Q1315.58 1454.33 1312.06 1454.33 Q1310.14 1454.33 1307.94 1454.75 Q1305.74 1455.16 1303.1 1456.04 L1303.1 1451.88 Q1305.76 1451.14 1308.08 1450.77 Q1310.42 1450.39 1312.48 1450.39 Q1317.8 1450.39 1320.9 1452.83 Q1324 1455.23 1324 1459.35 Q1324 1462.22 1322.36 1464.21 Q1320.72 1466.18 1317.68 1466.95 Z" fill="#000000" fill-rule="evenodd" fill-opacity="1"></path><path clip-path="url(#clip030)" d="M1601.51 1454.1 Q1597.9 1454.1 1596.07 1457.66 Q1594.27 1461.2 1594.27 1468.33 Q1594.27 1475.44 1596.07 1479.01 Q1597.9 1482.55 1601.51 1482.55 Q1605.15 1482.55 1606.95 1479.01 Q1608.78 1475.44 1608.78 1468.33 Q1608.78 1461.2 1606.95 1457.66 Q1605.15 1454.1 1601.51 1454.1 M1601.51 1450.39 Q1607.32 1450.39 1610.38 1455 Q1613.46 1459.58 1613.46 1468.33 Q1613.46 1477.06 1610.38 1481.67 Q1607.32 1486.25 1601.51 1486.25 Q1595.7 1486.25 1592.62 1481.67 Q1589.57 1477.06 1589.57 1468.33 Q1589.57 1459.58 1592.62 1455 Q1595.7 1450.39 1601.51 1450.39 Z" fill="#000000" fill-rule="evenodd" fill-opacity="1"></path><path clip-path="url(#clip030)" d="M1621.67 1479.7 L1626.56 1479.7 L1626.56 1485.58 L1621.67 1485.58 L1621.67 1479.7 Z" fill="#000000" fill-rule="evenodd" fill-opacity="1"></path><path clip-path="url(#clip030)" d="M1649.59 1455.09 L1637.78 1473.54 L1649.59 1473.54 L1649.59 1455.09 M1648.36 1451.02 L1654.24 1451.02 L1654.24 1473.54 L1659.17 1473.54 L1659.17 1477.43 L1654.24 1477.43 L1654.24 1485.58 L1649.59 1485.58 L1649.59 1477.43 L1633.99 1477.43 L1633.99 1472.92 L1648.36 1451.02 Z" fill="#000000" fill-rule="evenodd" fill-opacity="1"></path><path clip-path="url(#clip030)" d="M1936.04 1454.1 Q1932.43 1454.1 1930.6 1457.66 Q1928.8 1461.2 1928.8 1468.33 Q1928.8 1475.44 1930.6 1479.01 Q1932.43 1482.55 1936.04 1482.55 Q1939.68 1482.55 1941.48 1479.01 Q1943.31 1475.44 1943.31 1468.33 Q1943.31 1461.2 1941.48 1457.66 Q1939.68 1454.1 1936.04 1454.1 M1936.04 1450.39 Q1941.85 1450.39 1944.91 1455 Q1947.99 1459.58 1947.99 1468.33 Q1947.99 1477.06 1944.91 1481.67 Q1941.85 1486.25 1936.04 1486.25 Q1930.23 1486.25 1927.16 1481.67 Q1924.1 1477.06 1924.1 1468.33 Q1924.1 1459.58 1927.16 1455 Q1930.23 1450.39 1936.04 1450.39 Z" fill="#000000" fill-rule="evenodd" fill-opacity="1"></path><path clip-path="url(#clip030)" d="M1956.21 1479.7 L1961.09 1479.7 L1961.09 1485.58 L1956.21 1485.58 L1956.21 1479.7 Z" fill="#000000" fill-rule="evenodd" fill-opacity="1"></path><path clip-path="url(#clip030)" d="M1971.32 1451.02 L1989.68 1451.02 L1989.68 1454.96 L1975.6 1454.96 L1975.6 1463.43 Q1976.62 1463.08 1977.64 1462.92 Q1978.66 1462.73 1979.68 1462.73 Q1985.47 1462.73 1988.84 1465.9 Q1992.22 1469.08 1992.22 1474.49 Q1992.22 1480.07 1988.75 1483.17 Q1985.28 1486.25 1978.96 1486.25 Q1976.78 1486.25 1974.52 1485.88 Q1972.27 1485.51 1969.86 1484.77 L1969.86 1480.07 Q1971.95 1481.2 1974.17 1481.76 Q1976.39 1482.32 1978.87 1482.32 Q1982.87 1482.32 1985.21 1480.21 Q1987.55 1478.1 1987.55 1474.49 Q1987.55 1470.88 1985.21 1468.77 Q1982.87 1466.67 1978.87 1466.67 Q1976.99 1466.67 1975.12 1467.08 Q1973.27 1467.5 1971.32 1468.38 L1971.32 1451.02 Z" fill="#000000" fill-rule="evenodd" fill-opacity="1"></path><path clip-path="url(#clip030)" d="M983.009 1550.12 Q975.911 1550.12 973.174 1551.75 Q970.437 1553.37 970.437 1557.29 Q970.437 1560.4 972.474 1562.25 Q974.543 1564.07 978.076 1564.07 Q982.945 1564.07 985.874 1560.63 Q988.834 1557.16 988.834 1551.43 L988.834 1550.12 L983.009 1550.12 M994.69 1547.71 L994.69 1568.04 L988.834 1568.04 L988.834 1562.63 Q986.828 1565.88 983.837 1567.44 Q980.845 1568.97 976.516 1568.97 Q971.041 1568.97 967.795 1565.91 Q964.58 1562.82 964.58 1557.67 Q964.58 1551.65 968.591 1548.6 Q972.633 1545.54 980.622 1545.54 L988.834 1545.54 L988.834 1544.97 Q988.834 1540.93 986.16 1538.73 Q983.518 1536.5 978.712 1536.5 Q975.657 1536.5 972.76 1537.23 Q969.864 1537.97 967.19 1539.43 L967.19 1534.02 Q970.405 1532.78 973.429 1532.17 Q976.452 1531.54 979.317 1531.54 Q987.051 1531.54 990.871 1535.55 Q994.69 1539.56 994.69 1547.71 Z" fill="#000000" fill-rule="evenodd" fill-opacity="1"></path><path clip-path="url(#clip030)" d="M1036.39 1532.4 L1023.49 1549.74 L1037.05 1568.04 L1030.15 1568.04 L1019.77 1554.04 L1009.39 1568.04 L1002.49 1568.04 L1016.33 1549.39 L1003.67 1532.4 L1010.57 1532.4 L1020.03 1545.1 L1029.48 1532.4 L1036.39 1532.4 Z" fill="#000000" fill-rule="evenodd" fill-opacity="1"></path><path clip-path="url(#clip030)" d="M1045.33 1532.4 L1051.19 1532.4 L1051.19 1568.04 L1045.33 1568.04 L1045.33 1532.4 M1045.33 1518.52 L1051.19 1518.52 L1051.19 1525.93 L1045.33 1525.93 L1045.33 1518.52 Z" fill="#000000" fill-rule="evenodd" fill-opacity="1"></path><path clip-path="url(#clip030)" d="M1079.64 1550.12 Q1072.54 1550.12 1069.81 1551.75 Q1067.07 1553.37 1067.07 1557.29 Q1067.07 1560.4 1069.11 1562.25 Q1071.17 1564.07 1074.71 1564.07 Q1079.58 1564.07 1082.5 1560.63 Q1085.47 1557.16 1085.47 1551.43 L1085.47 1550.12 L1079.64 1550.12 M1091.32 1547.71 L1091.32 1568.04 L1085.47 1568.04 L1085.47 1562.63 Q1083.46 1565.88 1080.47 1567.44 Q1077.48 1568.97 1073.15 1568.97 Q1067.67 1568.97 1064.43 1565.91 Q1061.21 1562.82 1061.21 1557.67 Q1061.21 1551.65 1065.22 1548.6 Q1069.26 1545.54 1077.25 1545.54 L1085.47 1545.54 L1085.47 1544.97 Q1085.47 1540.93 1082.79 1538.73 Q1080.15 1536.5 1075.34 1536.5 Q1072.29 1536.5 1069.39 1537.23 Q1066.5 1537.97 1063.82 1539.43 L1063.82 1534.02 Q1067.04 1532.78 1070.06 1532.17 Q1073.08 1531.54 1075.95 1531.54 Q1083.68 1531.54 1087.5 1535.55 Q1091.32 1539.56 1091.32 1547.71 Z" fill="#000000" fill-rule="evenodd" fill-opacity="1"></path><path clip-path="url(#clip030)" d="M1103.38 1518.52 L1109.24 1518.52 L1109.24 1568.04 L1103.38 1568.04 L1103.38 1518.52 Z" fill="#000000" fill-rule="evenodd" fill-opacity="1"></path><path clip-path="url(#clip030)" d="M1164.94 1533.45 L1164.94 1538.98 Q1162.46 1537.71 1159.78 1537.07 Q1157.11 1536.44 1154.25 1536.44 Q1149.89 1536.44 1147.69 1537.77 Q1145.53 1539.11 1145.53 1541.79 Q1145.53 1543.82 1147.09 1545 Q1148.64 1546.15 1153.36 1547.2 L1155.36 1547.64 Q1161.6 1548.98 1164.21 1551.43 Q1166.85 1553.85 1166.85 1558.21 Q1166.85 1563.17 1162.9 1566.07 Q1158.99 1568.97 1152.11 1568.97 Q1149.25 1568.97 1146.13 1568.39 Q1143.04 1567.85 1139.61 1566.74 L1139.61 1560.69 Q1142.85 1562.38 1146 1563.24 Q1149.15 1564.07 1152.24 1564.07 Q1156.38 1564.07 1158.61 1562.66 Q1160.83 1561.23 1160.83 1558.65 Q1160.83 1556.27 1159.21 1554.99 Q1157.62 1553.72 1152.18 1552.54 L1150.14 1552.07 Q1144.7 1550.92 1142.28 1548.56 Q1139.86 1546.18 1139.86 1542.04 Q1139.86 1537.01 1143.42 1534.27 Q1146.99 1531.54 1153.55 1531.54 Q1156.79 1531.54 1159.66 1532.01 Q1162.52 1532.49 1164.94 1533.45 Z" fill="#000000" fill-rule="evenodd" fill-opacity="1"></path><path clip-path="url(#clip030)" d="M1181.97 1522.27 L1181.97 1532.4 L1194.03 1532.4 L1194.03 1536.95 L1181.97 1536.95 L1181.97 1556.3 Q1181.97 1560.66 1183.15 1561.9 Q1184.36 1563.14 1188.02 1563.14 L1194.03 1563.14 L1194.03 1568.04 L1188.02 1568.04 Q1181.24 1568.04 1178.66 1565.53 Q1176.08 1562.98 1176.08 1556.3 L1176.08 1536.95 L1171.78 1536.95 L1171.78 1532.4 L1176.08 1532.4 L1176.08 1522.27 L1181.97 1522.27 Z" fill="#000000" fill-rule="evenodd" fill-opacity="1"></path><path clip-path="url(#clip030)" d="M1222.39 1537.87 Q1221.4 1537.3 1220.23 1537.04 Q1219.08 1536.76 1217.68 1536.76 Q1212.72 1536.76 1210.04 1540 Q1207.4 1543.22 1207.4 1549.27 L1207.4 1568.04 L1201.51 1568.04 L1201.51 1532.4 L1207.4 1532.4 L1207.4 1537.93 Q1209.25 1534.69 1212.21 1533.13 Q1215.17 1531.54 1219.4 1531.54 Q1220 1531.54 1220.74 1531.63 Q1221.47 1531.7 1222.36 1531.85 L1222.39 1537.87 Z" fill="#000000" fill-rule="evenodd" fill-opacity="1"></path><path clip-path="url(#clip030)" d="M1244.74 1550.12 Q1237.64 1550.12 1234.9 1551.75 Q1232.16 1553.37 1232.16 1557.29 Q1232.16 1560.4 1234.2 1562.25 Q1236.27 1564.07 1239.8 1564.07 Q1244.67 1564.07 1247.6 1560.63 Q1250.56 1557.16 1250.56 1551.43 L1250.56 1550.12 L1244.74 1550.12 M1256.42 1547.71 L1256.42 1568.04 L1250.56 1568.04 L1250.56 1562.63 Q1248.55 1565.88 1245.56 1567.44 Q1242.57 1568.97 1238.24 1568.97 Q1232.77 1568.97 1229.52 1565.91 Q1226.31 1562.82 1226.31 1557.67 Q1226.31 1551.65 1230.32 1548.6 Q1234.36 1545.54 1242.35 1545.54 L1250.56 1545.54 L1250.56 1544.97 Q1250.56 1540.93 1247.89 1538.73 Q1245.24 1536.5 1240.44 1536.5 Q1237.38 1536.5 1234.49 1537.23 Q1231.59 1537.97 1228.92 1539.43 L1228.92 1534.02 Q1232.13 1532.78 1235.15 1532.17 Q1238.18 1531.54 1241.04 1531.54 Q1248.78 1531.54 1252.6 1535.55 Q1256.42 1539.56 1256.42 1547.71 Z" fill="#000000" fill-rule="evenodd" fill-opacity="1"></path><path clip-path="url(#clip030)" d="M1268.48 1532.4 L1274.34 1532.4 L1274.34 1568.04 L1268.48 1568.04 L1268.48 1532.4 M1268.48 1518.52 L1274.34 1518.52 L1274.34 1525.93 L1268.48 1525.93 L1268.48 1518.52 Z" fill="#000000" fill-rule="evenodd" fill-opacity="1"></path><path clip-path="url(#clip030)" d="M1316.22 1546.53 L1316.22 1568.04 L1310.37 1568.04 L1310.37 1546.72 Q1310.37 1541.66 1308.39 1539.14 Q1306.42 1536.63 1302.47 1536.63 Q1297.73 1536.63 1294.99 1539.65 Q1292.26 1542.68 1292.26 1547.9 L1292.26 1568.04 L1286.37 1568.04 L1286.37 1532.4 L1292.26 1532.4 L1292.26 1537.93 Q1294.36 1534.72 1297.19 1533.13 Q1300.05 1531.54 1303.78 1531.54 Q1309.92 1531.54 1313.07 1535.36 Q1316.22 1539.14 1316.22 1546.53 Z" fill="#000000" fill-rule="evenodd" fill-opacity="1"></path><path clip-path="url(#clip030)" d="M1362.69 1518.58 Q1358.43 1525.9 1356.36 1533.06 Q1354.29 1540.23 1354.29 1547.58 Q1354.29 1554.93 1356.36 1562.16 Q1358.46 1569.35 1362.69 1576.64 L1357.6 1576.64 Q1352.82 1569.16 1350.44 1561.93 Q1348.08 1554.71 1348.08 1547.58 Q1348.08 1540.48 1350.44 1533.29 Q1352.79 1526.09 1357.6 1518.58 L1362.69 1518.58 Z" fill="#000000" fill-rule="evenodd" fill-opacity="1"></path><path clip-path="url(#clip030)" d="M1415.3 1547.13 Q1412.54 1547.13 1410.94 1549.49 Q1409.38 1551.84 1409.38 1556.04 Q1409.38 1560.18 1410.94 1562.57 Q1412.54 1564.92 1415.3 1564.92 Q1418.01 1564.92 1419.57 1562.57 Q1421.16 1560.18 1421.16 1556.04 Q1421.16 1551.87 1419.57 1549.52 Q1418.01 1547.13 1415.3 1547.13 M1415.3 1543.09 Q1420.33 1543.09 1423.29 1546.59 Q1426.25 1550.09 1426.25 1556.04 Q1426.25 1562 1423.26 1565.5 Q1420.3 1568.97 1415.3 1568.97 Q1410.21 1568.97 1407.25 1565.5 Q1404.29 1562 1404.29 1556.04 Q1404.29 1550.06 1407.25 1546.59 Q1410.24 1543.09 1415.3 1543.09 M1382.46 1523.71 Q1379.72 1523.71 1378.13 1526.09 Q1376.57 1528.45 1376.57 1532.59 Q1376.57 1536.79 1378.13 1539.14 Q1379.69 1541.5 1382.46 1541.5 Q1385.23 1541.5 1386.79 1539.14 Q1388.38 1536.79 1388.38 1532.59 Q1388.38 1528.48 1386.79 1526.09 Q1385.19 1523.71 1382.46 1523.71 M1411.2 1519.66 L1416.29 1519.66 L1386.56 1568.97 L1381.47 1568.97 L1411.2 1519.66 M1382.46 1519.66 Q1387.49 1519.66 1390.48 1523.17 Q1393.47 1526.63 1393.47 1532.59 Q1393.47 1538.6 1390.48 1542.07 Q1387.52 1545.54 1382.46 1545.54 Q1377.4 1545.54 1374.44 1542.07 Q1371.51 1538.57 1371.51 1532.59 Q1371.51 1526.67 1374.47 1523.17 Q1377.43 1519.66 1382.46 1519.66 Z" fill="#000000" fill-rule="evenodd" fill-opacity="1"></path><path clip-path="url(#clip030)" d="M1435.07 1518.58 L1440.16 1518.58 Q1444.94 1526.09 1447.29 1533.29 Q1449.68 1540.48 1449.68 1547.58 Q1449.68 1554.71 1447.29 1561.93 Q1444.94 1569.16 1440.16 1576.64 L1435.07 1576.64 Q1439.3 1569.35 1441.37 1562.16 Q1443.47 1554.93 1443.47 1547.58 Q1443.47 1540.23 1441.37 1533.06 Q1439.3 1525.9 1435.07 1518.58 Z" fill="#000000" fill-rule="evenodd" fill-opacity="1"></path><polyline clip-path="url(#clip030)" style="stroke:#000000; stroke-linecap:round; stroke-linejoin:round; stroke-width:4; stroke-opacity:1; fill:none" points="
  234.125,1423.18 234.125,47.2441 
  "></polyline>
<polyline clip-path="url(#clip030)" style="stroke:#000000; stroke-linecap:round; stroke-linejoin:round; stroke-width:4; stroke-opacity:1; fill:none" points="
  234.125,1384.24 253.023,1384.24 
  "></polyline>
<polyline clip-path="url(#clip030)" style="stroke:#000000; stroke-linecap:round; stroke-linejoin:round; stroke-width:4; stroke-opacity:1; fill:none" points="
  234.125,1084.39 253.023,1084.39 
  "></polyline>
<polyline clip-path="url(#clip030)" style="stroke:#000000; stroke-linecap:round; stroke-linejoin:round; stroke-width:4; stroke-opacity:1; fill:none" points="
  234.125,784.534 253.023,784.534 
  "></polyline>
<polyline clip-path="url(#clip030)" style="stroke:#000000; stroke-linecap:round; stroke-linejoin:round; stroke-width:4; stroke-opacity:1; fill:none" points="
  234.125,484.681 253.023,484.681 
  "></polyline>
<polyline clip-path="url(#clip030)" style="stroke:#000000; stroke-linecap:round; stroke-linejoin:round; stroke-width:4; stroke-opacity:1; fill:none" points="
  234.125,184.829 253.023,184.829 
  "></polyline>
<path clip-path="url(#clip030)" d="M186.181 1370.04 Q182.57 1370.04 180.741 1373.6 Q178.936 1377.14 178.936 1384.27 Q178.936 1391.38 180.741 1394.94 Q182.57 1398.49 186.181 1398.49 Q189.815 1398.49 191.621 1394.94 Q193.45 1391.38 193.45 1384.27 Q193.45 1377.14 191.621 1373.6 Q189.815 1370.04 186.181 1370.04 M186.181 1366.33 Q191.991 1366.33 195.047 1370.94 Q198.125 1375.52 198.125 1384.27 Q198.125 1393 195.047 1397.61 Q191.991 1402.19 186.181 1402.19 Q180.371 1402.19 177.292 1397.61 Q174.237 1393 174.237 1384.27 Q174.237 1375.52 177.292 1370.94 Q180.371 1366.33 186.181 1366.33 Z" fill="#000000" fill-rule="evenodd" fill-opacity="1"></path><path clip-path="url(#clip030)" d="M146.066 1067.11 L164.422 1067.11 L164.422 1071.04 L150.348 1071.04 L150.348 1079.51 Q151.366 1079.17 152.385 1079 Q153.403 1078.82 154.422 1078.82 Q160.209 1078.82 163.589 1081.99 Q166.968 1085.16 166.968 1090.58 Q166.968 1096.16 163.496 1099.26 Q160.024 1102.34 153.704 1102.34 Q151.528 1102.34 149.26 1101.97 Q147.015 1101.6 144.607 1100.86 L144.607 1096.16 Q146.691 1097.29 148.913 1097.85 Q151.135 1098.4 153.612 1098.4 Q157.616 1098.4 159.954 1096.3 Q162.292 1094.19 162.292 1090.58 Q162.292 1086.97 159.954 1084.86 Q157.616 1082.75 153.612 1082.75 Q151.737 1082.75 149.862 1083.17 Q148.01 1083.59 146.066 1084.47 L146.066 1067.11 Z" fill="#000000" fill-rule="evenodd" fill-opacity="1"></path><path clip-path="url(#clip030)" d="M186.181 1070.18 Q182.57 1070.18 180.741 1073.75 Q178.936 1077.29 178.936 1084.42 Q178.936 1091.53 180.741 1095.09 Q182.57 1098.63 186.181 1098.63 Q189.815 1098.63 191.621 1095.09 Q193.45 1091.53 193.45 1084.42 Q193.45 1077.29 191.621 1073.75 Q189.815 1070.18 186.181 1070.18 M186.181 1066.48 Q191.991 1066.48 195.047 1071.09 Q198.125 1075.67 198.125 1084.42 Q198.125 1093.15 195.047 1097.75 Q191.991 1102.34 186.181 1102.34 Q180.371 1102.34 177.292 1097.75 Q174.237 1093.15 174.237 1084.42 Q174.237 1075.67 177.292 1071.09 Q180.371 1066.48 186.181 1066.48 Z" fill="#000000" fill-rule="evenodd" fill-opacity="1"></path><path clip-path="url(#clip030)" d="M116.668 797.878 L124.306 797.878 L124.306 771.513 L115.996 773.18 L115.996 768.92 L124.26 767.254 L128.936 767.254 L128.936 797.878 L136.575 797.878 L136.575 801.814 L116.668 801.814 L116.668 797.878 Z" fill="#000000" fill-rule="evenodd" fill-opacity="1"></path><path clip-path="url(#clip030)" d="M156.019 770.332 Q152.408 770.332 150.579 773.897 Q148.774 777.439 148.774 784.568 Q148.774 791.675 150.579 795.24 Q152.408 798.781 156.019 798.781 Q159.653 798.781 161.459 795.24 Q163.288 791.675 163.288 784.568 Q163.288 777.439 161.459 773.897 Q159.653 770.332 156.019 770.332 M156.019 766.629 Q161.829 766.629 164.885 771.235 Q167.964 775.818 167.964 784.568 Q167.964 793.295 164.885 797.902 Q161.829 802.485 156.019 802.485 Q150.209 802.485 147.13 797.902 Q144.075 793.295 144.075 784.568 Q144.075 775.818 147.13 771.235 Q150.209 766.629 156.019 766.629 Z" fill="#000000" fill-rule="evenodd" fill-opacity="1"></path><path clip-path="url(#clip030)" d="M186.181 770.332 Q182.57 770.332 180.741 773.897 Q178.936 777.439 178.936 784.568 Q178.936 791.675 180.741 795.24 Q182.57 798.781 186.181 798.781 Q189.815 798.781 191.621 795.24 Q193.45 791.675 193.45 784.568 Q193.45 777.439 191.621 773.897 Q189.815 770.332 186.181 770.332 M186.181 766.629 Q191.991 766.629 195.047 771.235 Q198.125 775.818 198.125 784.568 Q198.125 793.295 195.047 797.902 Q191.991 802.485 186.181 802.485 Q180.371 802.485 177.292 797.902 Q174.237 793.295 174.237 784.568 Q174.237 775.818 177.292 771.235 Q180.371 766.629 186.181 766.629 Z" fill="#000000" fill-rule="evenodd" fill-opacity="1"></path><path clip-path="url(#clip030)" d="M116.668 498.026 L124.306 498.026 L124.306 471.661 L115.996 473.327 L115.996 469.068 L124.26 467.401 L128.936 467.401 L128.936 498.026 L136.575 498.026 L136.575 501.961 L116.668 501.961 L116.668 498.026 Z" fill="#000000" fill-rule="evenodd" fill-opacity="1"></path><path clip-path="url(#clip030)" d="M146.066 467.401 L164.422 467.401 L164.422 471.336 L150.348 471.336 L150.348 479.809 Q151.366 479.461 152.385 479.299 Q153.403 479.114 154.422 479.114 Q160.209 479.114 163.589 482.285 Q166.968 485.457 166.968 490.873 Q166.968 496.452 163.496 499.554 Q160.024 502.633 153.704 502.633 Q151.528 502.633 149.26 502.262 Q147.015 501.892 144.607 501.151 L144.607 496.452 Q146.691 497.586 148.913 498.142 Q151.135 498.697 153.612 498.697 Q157.616 498.697 159.954 496.591 Q162.292 494.484 162.292 490.873 Q162.292 487.262 159.954 485.156 Q157.616 483.049 153.612 483.049 Q151.737 483.049 149.862 483.466 Q148.01 483.883 146.066 484.762 L146.066 467.401 Z" fill="#000000" fill-rule="evenodd" fill-opacity="1"></path><path clip-path="url(#clip030)" d="M186.181 470.48 Q182.57 470.48 180.741 474.045 Q178.936 477.586 178.936 484.716 Q178.936 491.822 180.741 495.387 Q182.57 498.929 186.181 498.929 Q189.815 498.929 191.621 495.387 Q193.45 491.822 193.45 484.716 Q193.45 477.586 191.621 474.045 Q189.815 470.48 186.181 470.48 M186.181 466.776 Q191.991 466.776 195.047 471.383 Q198.125 475.966 198.125 484.716 Q198.125 493.443 195.047 498.049 Q191.991 502.633 186.181 502.633 Q180.371 502.633 177.292 498.049 Q174.237 493.443 174.237 484.716 Q174.237 475.966 177.292 471.383 Q180.371 466.776 186.181 466.776 Z" fill="#000000" fill-rule="evenodd" fill-opacity="1"></path><path clip-path="url(#clip030)" d="M119.885 198.174 L136.204 198.174 L136.204 202.109 L114.26 202.109 L114.26 198.174 Q116.922 195.419 121.505 190.79 Q126.112 186.137 127.292 184.794 Q129.538 182.271 130.417 180.535 Q131.32 178.776 131.32 177.086 Q131.32 174.331 129.376 172.595 Q127.455 170.859 124.353 170.859 Q122.154 170.859 119.7 171.623 Q117.269 172.387 114.492 173.938 L114.492 169.216 Q117.316 168.081 119.769 167.503 Q122.223 166.924 124.26 166.924 Q129.63 166.924 132.825 169.609 Q136.019 172.294 136.019 176.785 Q136.019 178.915 135.209 180.836 Q134.422 182.734 132.316 185.327 Q131.737 185.998 128.635 189.216 Q125.533 192.41 119.885 198.174 Z" fill="#000000" fill-rule="evenodd" fill-opacity="1"></path><path clip-path="url(#clip030)" d="M156.019 170.628 Q152.408 170.628 150.579 174.192 Q148.774 177.734 148.774 184.864 Q148.774 191.97 150.579 195.535 Q152.408 199.077 156.019 199.077 Q159.653 199.077 161.459 195.535 Q163.288 191.97 163.288 184.864 Q163.288 177.734 161.459 174.192 Q159.653 170.628 156.019 170.628 M156.019 166.924 Q161.829 166.924 164.885 171.53 Q167.964 176.114 167.964 184.864 Q167.964 193.59 164.885 198.197 Q161.829 202.78 156.019 202.78 Q150.209 202.78 147.13 198.197 Q144.075 193.59 144.075 184.864 Q144.075 176.114 147.13 171.53 Q150.209 166.924 156.019 166.924 Z" fill="#000000" fill-rule="evenodd" fill-opacity="1"></path><path clip-path="url(#clip030)" d="M186.181 170.628 Q182.57 170.628 180.741 174.192 Q178.936 177.734 178.936 184.864 Q178.936 191.97 180.741 195.535 Q182.57 199.077 186.181 199.077 Q189.815 199.077 191.621 195.535 Q193.45 191.97 193.45 184.864 Q193.45 177.734 191.621 174.192 Q189.815 170.628 186.181 170.628 M186.181 166.924 Q191.991 166.924 195.047 171.53 Q198.125 176.114 198.125 184.864 Q198.125 193.59 195.047 198.197 Q191.991 202.78 186.181 202.78 Q180.371 202.78 177.292 198.197 Q174.237 193.59 174.237 184.864 Q174.237 176.114 177.292 171.53 Q180.371 166.924 186.181 166.924 Z" fill="#000000" fill-rule="evenodd" fill-opacity="1"></path><path clip-path="url(#clip030)" d="M46.0847 998.259 Q46.0847 1005.36 47.7079 1008.09 Q49.3312 1010.83 53.2461 1010.83 Q56.3653 1010.83 58.2114 1008.79 Q60.0256 1006.73 60.0256 1003.19 Q60.0256 998.323 56.5881 995.394 Q53.1188 992.434 47.3897 992.434 L46.0847 992.434 L46.0847 998.259 M43.6657 986.578 L64.0042 986.578 L64.0042 992.434 L58.5933 992.434 Q61.8398 994.439 63.3994 997.431 Q64.9272 1000.42 64.9272 1004.75 Q64.9272 1010.23 61.8716 1013.47 Q58.7843 1016.69 53.6281 1016.69 Q47.6125 1016.69 44.5569 1012.68 Q41.5014 1008.63 41.5014 1000.65 L41.5014 992.434 L40.9285 992.434 Q36.8862 992.434 34.6901 995.108 Q32.4621 997.75 32.4621 1002.56 Q32.4621 1005.61 33.1941 1008.51 Q33.9262 1011.4 35.3903 1014.08 L29.9795 1014.08 Q28.7381 1010.86 28.1334 1007.84 Q27.4968 1004.82 27.4968 1001.95 Q27.4968 994.217 31.5072 990.397 Q35.5176 986.578 43.6657 986.578 Z" fill="#000000" fill-rule="evenodd" fill-opacity="1"></path><path clip-path="url(#clip030)" d="M28.3562 944.882 L45.7028 957.773 L64.0042 944.214 L64.0042 951.121 L49.9996 961.497 L64.0042 971.873 L64.0042 978.78 L45.3526 964.934 L28.3562 977.602 L28.3562 970.695 L41.0558 961.242 L28.3562 951.789 L28.3562 944.882 Z" fill="#000000" fill-rule="evenodd" fill-opacity="1"></path><path clip-path="url(#clip030)" d="M28.3562 935.939 L28.3562 930.082 L64.0042 930.082 L64.0042 935.939 L28.3562 935.939 M14.479 935.939 L14.479 930.082 L21.895 930.082 L21.895 935.939 L14.479 935.939 Z" fill="#000000" fill-rule="evenodd" fill-opacity="1"></path><path clip-path="url(#clip030)" d="M46.0847 901.627 Q46.0847 908.725 47.7079 911.462 Q49.3312 914.2 53.2461 914.2 Q56.3653 914.2 58.2114 912.163 Q60.0256 910.094 60.0256 906.561 Q60.0256 901.691 56.5881 898.763 Q53.1188 895.803 47.3897 895.803 L46.0847 895.803 L46.0847 901.627 M43.6657 889.946 L64.0042 889.946 L64.0042 895.803 L58.5933 895.803 Q61.8398 897.808 63.3994 900.8 Q64.9272 903.792 64.9272 908.12 Q64.9272 913.595 61.8716 916.841 Q58.7843 920.056 53.6281 920.056 Q47.6125 920.056 44.5569 916.046 Q41.5014 912.004 41.5014 904.015 L41.5014 895.803 L40.9285 895.803 Q36.8862 895.803 34.6901 898.476 Q32.4621 901.118 32.4621 905.924 Q32.4621 908.98 33.1941 911.876 Q33.9262 914.773 35.3903 917.446 L29.9795 917.446 Q28.7381 914.232 28.1334 911.208 Q27.4968 908.184 27.4968 905.32 Q27.4968 897.585 31.5072 893.766 Q35.5176 889.946 43.6657 889.946 Z" fill="#000000" fill-rule="evenodd" fill-opacity="1"></path><path clip-path="url(#clip030)" d="M14.479 877.883 L14.479 872.027 L64.0042 872.027 L64.0042 877.883 L14.479 877.883 Z" fill="#000000" fill-rule="evenodd" fill-opacity="1"></path><path clip-path="url(#clip030)" d="M29.4065 816.327 L34.9447 816.327 Q33.6716 818.81 33.035 821.483 Q32.3984 824.157 32.3984 827.021 Q32.3984 831.382 33.7352 833.578 Q35.072 835.742 37.7456 835.742 Q39.7826 835.742 40.9603 834.183 Q42.1061 832.623 43.1565 827.913 L43.6021 825.907 Q44.9389 819.669 47.3897 817.059 Q49.8086 814.417 54.1691 814.417 Q59.1344 814.417 62.0308 818.364 Q64.9272 822.279 64.9272 829.154 Q64.9272 832.018 64.3543 835.138 Q63.8132 838.225 62.6992 841.662 L56.6518 841.662 Q58.3387 838.416 59.198 835.265 Q60.0256 832.114 60.0256 829.027 Q60.0256 824.889 58.6251 822.661 Q57.1929 820.433 54.6147 820.433 Q52.2276 820.433 50.9545 822.056 Q49.6813 823.648 48.5037 829.09 L48.0262 831.127 Q46.8804 836.57 44.5251 838.989 Q42.138 841.408 38.0002 841.408 Q32.9713 841.408 30.2341 837.843 Q27.4968 834.278 27.4968 827.722 Q27.4968 824.475 27.9743 821.611 Q28.4517 818.746 29.4065 816.327 Z" fill="#000000" fill-rule="evenodd" fill-opacity="1"></path><path clip-path="url(#clip030)" d="M18.2347 799.299 L28.3562 799.299 L28.3562 787.236 L32.9077 787.236 L32.9077 799.299 L52.2594 799.299 Q56.6199 799.299 57.8613 798.121 Q59.1026 796.912 59.1026 793.251 L59.1026 787.236 L64.0042 787.236 L64.0042 793.251 Q64.0042 800.031 61.4897 802.609 Q58.9434 805.187 52.2594 805.187 L32.9077 805.187 L32.9077 809.484 L28.3562 809.484 L28.3562 805.187 L18.2347 805.187 L18.2347 799.299 Z" fill="#000000" fill-rule="evenodd" fill-opacity="1"></path><path clip-path="url(#clip030)" d="M33.8307 758.876 Q33.2578 759.863 33.0032 761.041 Q32.7167 762.187 32.7167 763.587 Q32.7167 768.552 35.9632 771.226 Q39.1779 773.868 45.2253 773.868 L64.0042 773.868 L64.0042 779.756 L28.3562 779.756 L28.3562 773.868 L33.8944 773.868 Q30.6479 772.022 29.0883 769.062 Q27.4968 766.102 27.4968 761.868 Q27.4968 761.264 27.5923 760.532 Q27.656 759.8 27.8151 758.908 L33.8307 758.876 Z" fill="#000000" fill-rule="evenodd" fill-opacity="1"></path><path clip-path="url(#clip030)" d="M44.7161 723.674 L47.5806 723.674 L47.5806 750.601 Q53.6281 750.219 56.8109 746.973 Q59.9619 743.694 59.9619 737.87 Q59.9619 734.496 59.1344 731.345 Q58.3069 728.162 56.6518 725.043 L62.1899 725.043 Q63.5267 728.194 64.227 731.504 Q64.9272 734.814 64.9272 738.22 Q64.9272 746.75 59.9619 751.747 Q54.9967 756.712 46.5303 756.712 Q37.7774 756.712 32.6531 752.002 Q27.4968 747.259 27.4968 739.238 Q27.4968 732.045 32.1438 727.875 Q36.7589 723.674 44.7161 723.674 M42.9973 729.531 Q38.1912 729.594 35.3266 732.236 Q32.4621 734.846 32.4621 739.175 Q32.4621 744.076 35.2312 747.036 Q38.0002 749.964 43.0292 750.41 L42.9973 729.531 Z" fill="#000000" fill-rule="evenodd" fill-opacity="1"></path><path clip-path="url(#clip030)" d="M29.4065 691.336 L34.9447 691.336 Q33.6716 693.819 33.035 696.493 Q32.3984 699.166 32.3984 702.031 Q32.3984 706.391 33.7352 708.587 Q35.072 710.752 37.7456 710.752 Q39.7826 710.752 40.9603 709.192 Q42.1061 707.633 43.1565 702.922 L43.6021 700.917 Q44.9389 694.678 47.3897 692.068 Q49.8086 689.427 54.1691 689.427 Q59.1344 689.427 62.0308 693.373 Q64.9272 697.288 64.9272 704.163 Q64.9272 707.028 64.3543 710.147 Q63.8132 713.234 62.6992 716.672 L56.6518 716.672 Q58.3387 713.425 59.198 710.274 Q60.0256 707.123 60.0256 704.036 Q60.0256 699.898 58.6251 697.67 Q57.1929 695.442 54.6147 695.442 Q52.2276 695.442 50.9545 697.065 Q49.6813 698.657 48.5037 704.1 L48.0262 706.137 Q46.8804 711.579 44.5251 713.998 Q42.138 716.417 38.0002 716.417 Q32.9713 716.417 30.2341 712.852 Q27.4968 709.288 27.4968 702.731 Q27.4968 699.484 27.9743 696.62 Q28.4517 693.755 29.4065 691.336 Z" fill="#000000" fill-rule="evenodd" fill-opacity="1"></path><path clip-path="url(#clip030)" d="M29.4065 657.375 L34.9447 657.375 Q33.6716 659.858 33.035 662.532 Q32.3984 665.205 32.3984 668.07 Q32.3984 672.43 33.7352 674.626 Q35.072 676.791 37.7456 676.791 Q39.7826 676.791 40.9603 675.231 Q42.1061 673.671 43.1565 668.961 L43.6021 666.956 Q44.9389 660.717 47.3897 658.107 Q49.8086 655.466 54.1691 655.466 Q59.1344 655.466 62.0308 659.412 Q64.9272 663.327 64.9272 670.202 Q64.9272 673.067 64.3543 676.186 Q63.8132 679.273 62.6992 682.711 L56.6518 682.711 Q58.3387 679.464 59.198 676.313 Q60.0256 673.162 60.0256 670.075 Q60.0256 665.937 58.6251 663.709 Q57.1929 661.481 54.6147 661.481 Q52.2276 661.481 50.9545 663.104 Q49.6813 664.696 48.5037 670.139 L48.0262 672.176 Q46.8804 677.618 44.5251 680.037 Q42.138 682.456 38.0002 682.456 Q32.9713 682.456 30.2341 678.891 Q27.4968 675.327 27.4968 668.77 Q27.4968 665.523 27.9743 662.659 Q28.4517 659.794 29.4065 657.375 Z" fill="#000000" fill-rule="evenodd" fill-opacity="1"></path><path clip-path="url(#clip030)" d="M14.5426 611.351 Q21.8632 615.616 29.0246 617.685 Q36.186 619.754 43.5384 619.754 Q50.8908 619.754 58.1159 617.685 Q65.3091 615.584 72.5979 611.351 L72.5979 616.444 Q65.1182 621.218 57.8931 623.605 Q50.668 625.961 43.5384 625.961 Q36.4406 625.961 29.2474 623.605 Q22.0542 621.25 14.5426 616.444 L14.5426 611.351 Z" fill="#000000" fill-rule="evenodd" fill-opacity="1"></path><path clip-path="url(#clip030)" d="M16.4842 599.734 L16.4842 590.153 L48.8219 578.027 L16.4842 565.836 L16.4842 556.256 L64.0042 556.256 L64.0042 562.526 L22.277 562.526 L54.8694 574.78 L54.8694 581.241 L22.277 593.495 L64.0042 593.495 L64.0042 599.734 L16.4842 599.734 Z" fill="#000000" fill-rule="evenodd" fill-opacity="1"></path><path clip-path="url(#clip030)" d="M21.7677 537.063 L39.6235 537.063 L39.6235 528.979 Q39.6235 524.491 37.3 522.04 Q34.9765 519.59 30.6797 519.59 Q26.4147 519.59 24.0912 522.04 Q21.7677 524.491 21.7677 528.979 L21.7677 537.063 M16.4842 543.493 L16.4842 528.979 Q16.4842 520.99 20.1126 516.916 Q23.7092 512.81 30.6797 512.81 Q37.7138 512.81 41.3104 516.916 Q44.907 520.99 44.907 528.979 L44.907 537.063 L64.0042 537.063 L64.0042 543.493 L16.4842 543.493 Z" fill="#000000" fill-rule="evenodd" fill-opacity="1"></path><path clip-path="url(#clip030)" d="M46.0847 491.167 Q46.0847 498.264 47.7079 501.002 Q49.3312 503.739 53.2461 503.739 Q56.3653 503.739 58.2114 501.702 Q60.0256 499.633 60.0256 496.1 Q60.0256 491.23 56.5881 488.302 Q53.1188 485.342 47.3897 485.342 L46.0847 485.342 L46.0847 491.167 M43.6657 479.486 L64.0042 479.486 L64.0042 485.342 L58.5933 485.342 Q61.8398 487.347 63.3994 490.339 Q64.9272 493.331 64.9272 497.66 Q64.9272 503.134 61.8716 506.381 Q58.7843 509.595 53.6281 509.595 Q47.6125 509.595 44.5569 505.585 Q41.5014 501.543 41.5014 493.554 L41.5014 485.342 L40.9285 485.342 Q36.8862 485.342 34.6901 488.016 Q32.4621 490.657 32.4621 495.464 Q32.4621 498.519 33.1941 501.415 Q33.9262 504.312 35.3903 506.985 L29.9795 506.985 Q28.7381 503.771 28.1334 500.747 Q27.4968 497.723 27.4968 494.859 Q27.4968 487.124 31.5072 483.305 Q35.5176 479.486 43.6657 479.486 Z" fill="#000000" fill-rule="evenodd" fill-opacity="1"></path><path clip-path="url(#clip030)" d="M14.5426 468.346 L14.5426 463.253 Q22.0542 458.479 29.2474 456.123 Q36.4406 453.736 43.5384 453.736 Q50.668 453.736 57.8931 456.123 Q65.1182 458.479 72.5979 463.253 L72.5979 468.346 Q65.3091 464.112 58.1159 462.044 Q50.8908 459.943 43.5384 459.943 Q36.186 459.943 29.0246 462.044 Q21.8632 464.112 14.5426 468.346 Z" fill="#000000" fill-rule="evenodd" fill-opacity="1"></path><polyline clip-path="url(#clip032)" style="stroke:#000000; stroke-linecap:round; stroke-linejoin:round; stroke-width:8; stroke-opacity:1; fill:none" points="
  289.201,1384.24 289.201,1384.24 289.201,1384.24 289.201,1384.24 289.201,1384.24 289.202,1384.24 289.207,1384.23 289.26,1384.17 289.79,1383.6 295.088,1377.89 
  348.071,1320.78 500.564,1156.39 723.028,916.58 796.702,837.16 838.993,791.585 863.125,766.066 873.331,755.852 885.983,743.73 896.879,733.584 911.281,720.395 
  926.547,706.579 946.462,688.738 970.366,667.548 1006.03,636.36 1041.59,605.769 1087.46,567.069 1146.3,518.711 1194.51,480.214 1251.31,436.211 1307.23,394.4 
  1367.78,350.907 1429.56,308.568 1494.57,266.445 1561.33,226.029 1630.5,187.602 1701.28,152.517 1773.7,122.051 1847.2,98.553 1921.67,86.1857 1997.45,97.2602 
  2028,119.988 2040.49,139.164 2049.68,165.087 2053.06,182.355 2054.47,193.128 2056.74,227.003 2057.18,244.714 2057.36,260.609 2057.43,272.04 2057.46,281.444 
  2057.48,290.783 2057.49,298.955 2057.49,306.962 2057.49,314.204 2057.5,321.107 2057.5,327.575 2057.5,333.702 2057.5,339.548 2057.5,345.186 2057.5,351.643 
  2057.5,357.695 2057.5,369.735 2057.5,371.572 2057.5,371.572 2057.5,371.572 2057.5,371.572 2057.5,371.568 2057.56,371.535 2058.15,371.2 
  2064,367.85 2122.5,334.348 2125.06,332.881 
  "></polyline>
<path clip-path="url(#clip030)" d="
M234.125 1423.18 L2180.13 1423.18 L2180.13 47.2441 L234.125 47.2441  Z
  " fill="#000000" fill-rule="evenodd" fill-opacity="0"></path>
<polyline clip-path="url(#clip030)" style="stroke:#000000; stroke-linecap:round; stroke-linejoin:round; stroke-width:4; stroke-opacity:1; fill:none" points="
  2180.13,1423.18 2180.13,47.2441 
  "></polyline>
<polyline clip-path="url(#clip030)" style="stroke:#000000; stroke-linecap:round; stroke-linejoin:round; stroke-width:4; stroke-opacity:1; fill:none" points="
  2180.13,1384.24 2161.24,1384.24 
  "></polyline>
<polyline clip-path="url(#clip030)" style="stroke:#000000; stroke-linecap:round; stroke-linejoin:round; stroke-width:4; stroke-opacity:1; fill:none" points="
  2180.13,1038.09 2161.24,1038.09 
  "></polyline>
<polyline clip-path="url(#clip030)" style="stroke:#000000; stroke-linecap:round; stroke-linejoin:round; stroke-width:4; stroke-opacity:1; fill:none" points="
  2180.13,691.944 2161.24,691.944 
  "></polyline>
<polyline clip-path="url(#clip030)" style="stroke:#000000; stroke-linecap:round; stroke-linejoin:round; stroke-width:4; stroke-opacity:1; fill:none" points="
  2180.13,345.796 2161.24,345.796 
  "></polyline>
<path clip-path="url(#clip030)" d="M2228.08 1370.04 Q2224.47 1370.04 2222.64 1373.6 Q2220.83 1377.14 2220.83 1384.27 Q2220.83 1391.38 2222.64 1394.94 Q2224.47 1398.49 2228.08 1398.49 Q2231.71 1398.49 2233.52 1394.94 Q2235.35 1391.38 2235.35 1384.27 Q2235.35 1377.14 2233.52 1373.6 Q2231.71 1370.04 2228.08 1370.04 M2228.08 1366.33 Q2233.89 1366.33 2236.94 1370.94 Q2240.02 1375.52 2240.02 1384.27 Q2240.02 1393 2236.94 1397.61 Q2233.89 1402.19 2228.08 1402.19 Q2222.27 1402.19 2219.19 1397.61 Q2216.13 1393 2216.13 1384.27 Q2216.13 1375.52 2219.19 1370.94 Q2222.27 1366.33 2228.08 1366.33 Z" fill="#000000" fill-rule="evenodd" fill-opacity="1"></path><path clip-path="url(#clip030)" d="M2248.24 1395.64 L2253.12 1395.64 L2253.12 1401.52 L2248.24 1401.52 L2248.24 1395.64 Z" fill="#000000" fill-rule="evenodd" fill-opacity="1"></path><path clip-path="url(#clip030)" d="M2267.34 1397.58 L2283.66 1397.58 L2283.66 1401.52 L2261.71 1401.52 L2261.71 1397.58 Q2264.37 1394.83 2268.96 1390.2 Q2273.56 1385.55 2274.74 1384.2 Q2276.99 1381.68 2277.87 1379.94 Q2278.77 1378.19 2278.77 1376.5 Q2278.77 1373.74 2276.83 1372 Q2274.91 1370.27 2271.8 1370.27 Q2269.61 1370.27 2267.15 1371.03 Q2264.72 1371.8 2261.94 1373.35 L2261.94 1368.62 Q2264.77 1367.49 2267.22 1366.91 Q2269.68 1366.33 2271.71 1366.33 Q2277.08 1366.33 2280.28 1369.02 Q2283.47 1371.7 2283.47 1376.19 Q2283.47 1378.32 2282.66 1380.25 Q2281.87 1382.14 2279.77 1384.74 Q2279.19 1385.41 2276.09 1388.62 Q2272.99 1391.82 2267.34 1397.58 Z" fill="#000000" fill-rule="evenodd" fill-opacity="1"></path><path clip-path="url(#clip030)" d="M2228.08 1023.89 Q2224.47 1023.89 2222.64 1027.45 Q2220.83 1031 2220.83 1038.13 Q2220.83 1045.23 2222.64 1048.8 Q2224.47 1052.34 2228.08 1052.34 Q2231.71 1052.34 2233.52 1048.8 Q2235.35 1045.23 2235.35 1038.13 Q2235.35 1031 2233.52 1027.45 Q2231.71 1023.89 2228.08 1023.89 M2228.08 1020.19 Q2233.89 1020.19 2236.94 1024.79 Q2240.02 1029.38 2240.02 1038.13 Q2240.02 1046.85 2236.94 1051.46 Q2233.89 1056.04 2228.08 1056.04 Q2222.27 1056.04 2219.19 1051.46 Q2216.13 1046.85 2216.13 1038.13 Q2216.13 1029.38 2219.19 1024.79 Q2222.27 1020.19 2228.08 1020.19 Z" fill="#000000" fill-rule="evenodd" fill-opacity="1"></path><path clip-path="url(#clip030)" d="M2248.24 1049.49 L2253.12 1049.49 L2253.12 1055.37 L2248.24 1055.37 L2248.24 1049.49 Z" fill="#000000" fill-rule="evenodd" fill-opacity="1"></path><path clip-path="url(#clip030)" d="M2276.16 1024.88 L2264.35 1043.33 L2276.16 1043.33 L2276.16 1024.88 M2274.93 1020.81 L2280.81 1020.81 L2280.81 1043.33 L2285.74 1043.33 L2285.74 1047.22 L2280.81 1047.22 L2280.81 1055.37 L2276.16 1055.37 L2276.16 1047.22 L2260.55 1047.22 L2260.55 1042.71 L2274.93 1020.81 Z" fill="#000000" fill-rule="evenodd" fill-opacity="1"></path><path clip-path="url(#clip030)" d="M2228.08 677.742 Q2224.47 677.742 2222.64 681.307 Q2220.83 684.849 2220.83 691.978 Q2220.83 699.085 2222.64 702.65 Q2224.47 706.191 2228.08 706.191 Q2231.71 706.191 2233.52 702.65 Q2235.35 699.085 2235.35 691.978 Q2235.35 684.849 2233.52 681.307 Q2231.71 677.742 2228.08 677.742 M2228.08 674.039 Q2233.89 674.039 2236.94 678.645 Q2240.02 683.228 2240.02 691.978 Q2240.02 700.705 2236.94 705.312 Q2233.89 709.895 2228.08 709.895 Q2222.27 709.895 2219.19 705.312 Q2216.13 700.705 2216.13 691.978 Q2216.13 683.228 2219.19 678.645 Q2222.27 674.039 2228.08 674.039 Z" fill="#000000" fill-rule="evenodd" fill-opacity="1"></path><path clip-path="url(#clip030)" d="M2248.24 703.344 L2253.12 703.344 L2253.12 709.224 L2248.24 709.224 L2248.24 703.344 Z" fill="#000000" fill-rule="evenodd" fill-opacity="1"></path><path clip-path="url(#clip030)" d="M2273.89 690.08 Q2270.74 690.08 2268.89 692.233 Q2267.06 694.386 2267.06 698.136 Q2267.06 701.862 2268.89 704.038 Q2270.74 706.191 2273.89 706.191 Q2277.04 706.191 2278.86 704.038 Q2280.72 701.862 2280.72 698.136 Q2280.72 694.386 2278.86 692.233 Q2277.04 690.08 2273.89 690.08 M2283.17 675.427 L2283.17 679.687 Q2281.41 678.853 2279.61 678.414 Q2277.82 677.974 2276.06 677.974 Q2271.43 677.974 2268.98 681.099 Q2266.55 684.224 2266.2 690.543 Q2267.57 688.529 2269.63 687.464 Q2271.69 686.376 2274.17 686.376 Q2279.37 686.376 2282.38 689.548 Q2285.42 692.696 2285.42 698.136 Q2285.42 703.46 2282.27 706.677 Q2279.12 709.895 2273.89 709.895 Q2267.89 709.895 2264.72 705.312 Q2261.55 700.705 2261.55 691.978 Q2261.55 683.784 2265.44 678.923 Q2269.33 674.039 2275.88 674.039 Q2277.64 674.039 2279.42 674.386 Q2281.23 674.733 2283.17 675.427 Z" fill="#000000" fill-rule="evenodd" fill-opacity="1"></path><path clip-path="url(#clip030)" d="M2228.08 331.595 Q2224.47 331.595 2222.64 335.16 Q2220.83 338.701 2220.83 345.831 Q2220.83 352.937 2222.64 356.502 Q2224.47 360.044 2228.08 360.044 Q2231.71 360.044 2233.52 356.502 Q2235.35 352.937 2235.35 345.831 Q2235.35 338.701 2233.52 335.16 Q2231.71 331.595 2228.08 331.595 M2228.08 327.891 Q2233.89 327.891 2236.94 332.498 Q2240.02 337.081 2240.02 345.831 Q2240.02 354.558 2236.94 359.164 Q2233.89 363.747 2228.08 363.747 Q2222.27 363.747 2219.19 359.164 Q2216.13 354.558 2216.13 345.831 Q2216.13 337.081 2219.19 332.498 Q2222.27 327.891 2228.08 327.891 Z" fill="#000000" fill-rule="evenodd" fill-opacity="1"></path><path clip-path="url(#clip030)" d="M2248.24 357.197 L2253.12 357.197 L2253.12 363.076 L2248.24 363.076 L2248.24 357.197 Z" fill="#000000" fill-rule="evenodd" fill-opacity="1"></path><path clip-path="url(#clip030)" d="M2273.31 346.664 Q2269.98 346.664 2268.05 348.447 Q2266.16 350.229 2266.16 353.354 Q2266.16 356.479 2268.05 358.261 Q2269.98 360.044 2273.31 360.044 Q2276.64 360.044 2278.56 358.261 Q2280.49 356.456 2280.49 353.354 Q2280.49 350.229 2278.56 348.447 Q2276.67 346.664 2273.31 346.664 M2268.63 344.674 Q2265.62 343.933 2263.93 341.873 Q2262.27 339.812 2262.27 336.849 Q2262.27 332.706 2265.21 330.299 Q2268.17 327.891 2273.31 327.891 Q2278.47 327.891 2281.41 330.299 Q2284.35 332.706 2284.35 336.849 Q2284.35 339.812 2282.66 341.873 Q2280.99 343.933 2278.01 344.674 Q2281.39 345.461 2283.26 347.752 Q2285.16 350.044 2285.16 353.354 Q2285.16 358.377 2282.08 361.062 Q2279.03 363.747 2273.31 363.747 Q2267.59 363.747 2264.51 361.062 Q2261.46 358.377 2261.46 353.354 Q2261.46 350.044 2263.36 347.752 Q2265.25 345.461 2268.63 344.674 M2266.92 337.289 Q2266.92 339.974 2268.59 341.479 Q2270.28 342.984 2273.31 342.984 Q2276.32 342.984 2278.01 341.479 Q2279.72 339.974 2279.72 337.289 Q2279.72 334.604 2278.01 333.099 Q2276.32 331.595 2273.31 331.595 Q2270.28 331.595 2268.59 333.099 Q2266.92 334.604 2266.92 337.289 Z" fill="#000000" fill-rule="evenodd" fill-opacity="1"></path><path clip-path="url(#clip030)" d="M2348.53 838.798 L2329.24 838.798 L2329.24 832.941 L2378.76 832.941 L2378.76 838.798 L2373.42 838.798 Q2376.6 840.644 2378.16 843.477 Q2379.69 846.278 2379.69 850.224 Q2379.69 856.686 2374.53 860.76 Q2369.37 864.802 2360.97 864.802 Q2352.57 864.802 2347.41 860.76 Q2342.26 856.686 2342.26 850.224 Q2342.26 846.278 2343.82 843.477 Q2345.34 840.644 2348.53 838.798 M2360.97 858.754 Q2367.43 858.754 2371.12 856.113 Q2374.79 853.439 2374.79 848.792 Q2374.79 844.145 2371.12 841.472 Q2367.43 838.798 2360.97 838.798 Q2354.51 838.798 2350.85 841.472 Q2347.16 844.145 2347.16 848.792 Q2347.16 853.439 2350.85 856.113 Q2354.51 858.754 2360.97 858.754 Z" fill="#000000" fill-rule="evenodd" fill-opacity="1"></path><path clip-path="url(#clip030)" d="M2360.84 804.678 Q2360.84 811.776 2362.47 814.513 Q2364.09 817.25 2368.01 817.25 Q2371.12 817.25 2372.97 815.213 Q2374.79 813.144 2374.79 809.611 Q2374.79 804.741 2371.35 801.813 Q2367.88 798.853 2362.15 798.853 L2360.84 798.853 L2360.84 804.678 M2358.43 792.997 L2378.76 792.997 L2378.76 798.853 L2373.35 798.853 Q2376.6 800.858 2378.16 803.85 Q2379.69 806.842 2379.69 811.171 Q2379.69 816.645 2376.63 819.892 Q2373.54 823.106 2368.39 823.106 Q2362.37 823.106 2359.32 819.096 Q2356.26 815.054 2356.26 807.065 L2356.26 798.853 L2355.69 798.853 Q2351.65 798.853 2349.45 801.527 Q2347.22 804.168 2347.22 808.975 Q2347.22 812.03 2347.95 814.927 Q2348.69 817.823 2350.15 820.497 L2344.74 820.497 Q2343.5 817.282 2342.89 814.258 Q2342.26 811.234 2342.26 808.37 Q2342.26 800.636 2346.27 796.816 Q2350.28 792.997 2358.43 792.997 Z" fill="#000000" fill-rule="evenodd" fill-opacity="1"></path><path clip-path="url(#clip030)" d="M2349.96 753.179 Q2346.01 750.983 2344.13 747.927 Q2342.26 744.872 2342.26 740.734 Q2342.26 735.164 2346.17 732.141 Q2350.05 729.117 2357.25 729.117 L2378.76 729.117 L2378.76 735.005 L2357.44 735.005 Q2352.31 735.005 2349.83 736.819 Q2347.35 738.634 2347.35 742.357 Q2347.35 746.909 2350.37 749.551 Q2353.4 752.192 2358.62 752.192 L2378.76 752.192 L2378.76 758.081 L2357.44 758.081 Q2352.28 758.081 2349.83 759.895 Q2347.35 761.709 2347.35 765.497 Q2347.35 769.985 2350.4 772.626 Q2353.43 775.268 2358.62 775.268 L2378.76 775.268 L2378.76 781.156 L2343.12 781.156 L2343.12 775.268 L2348.65 775.268 Q2345.38 773.263 2343.82 770.462 Q2342.26 767.661 2342.26 763.81 Q2342.26 759.927 2344.23 757.221 Q2346.2 754.484 2349.96 753.179 Z" fill="#000000" fill-rule="evenodd" fill-opacity="1"></path><path clip-path="url(#clip030)" d="M2360.84 701.235 Q2360.84 708.333 2362.47 711.07 Q2364.09 713.807 2368.01 713.807 Q2371.12 713.807 2372.97 711.77 Q2374.79 709.701 2374.79 706.168 Q2374.79 701.299 2371.35 698.37 Q2367.88 695.41 2362.15 695.41 L2360.84 695.41 L2360.84 701.235 M2358.43 689.554 L2378.76 689.554 L2378.76 695.41 L2373.35 695.41 Q2376.6 697.416 2378.16 700.407 Q2379.69 703.399 2379.69 707.728 Q2379.69 713.203 2376.63 716.449 Q2373.54 719.664 2368.39 719.664 Q2362.37 719.664 2359.32 715.653 Q2356.26 711.611 2356.26 703.622 L2356.26 695.41 L2355.69 695.41 Q2351.65 695.41 2349.45 698.084 Q2347.22 700.726 2347.22 705.532 Q2347.22 708.587 2347.95 711.484 Q2348.69 714.38 2350.15 717.054 L2344.74 717.054 Q2343.5 713.839 2342.89 710.815 Q2342.26 707.792 2342.26 704.927 Q2342.26 697.193 2346.27 693.373 Q2350.28 689.554 2358.43 689.554 Z" fill="#000000" fill-rule="evenodd" fill-opacity="1"></path><path clip-path="url(#clip030)" d="M2360.53 654.033 Q2354.16 654.033 2350.66 656.675 Q2347.16 659.285 2347.16 664.027 Q2347.16 668.738 2350.66 671.38 Q2354.16 673.99 2360.53 673.99 Q2366.86 673.99 2370.36 671.38 Q2373.86 668.738 2373.86 664.027 Q2373.86 659.285 2370.36 656.675 Q2366.86 654.033 2360.53 654.033 M2374.34 648.177 Q2383.44 648.177 2387.87 652.219 Q2392.32 656.261 2392.32 664.6 Q2392.32 667.688 2391.85 670.425 Q2391.4 673.162 2390.44 675.74 L2384.75 675.74 Q2386.15 673.162 2386.82 670.648 Q2387.48 668.133 2387.48 665.523 Q2387.48 659.762 2384.46 656.898 Q2381.47 654.033 2375.39 654.033 L2372.49 654.033 Q2375.64 655.848 2377.2 658.68 Q2378.76 661.513 2378.76 665.46 Q2378.76 672.016 2373.77 676.027 Q2368.77 680.037 2360.53 680.037 Q2352.25 680.037 2347.25 676.027 Q2342.26 672.016 2342.26 665.46 Q2342.26 661.513 2343.82 658.68 Q2345.38 655.848 2348.53 654.033 L2343.12 654.033 L2343.12 648.177 L2374.34 648.177 Z" fill="#000000" fill-rule="evenodd" fill-opacity="1"></path><path clip-path="url(#clip030)" d="M2359.48 605.622 L2362.34 605.622 L2362.34 632.549 Q2368.39 632.167 2371.57 628.921 Q2374.72 625.642 2374.72 619.818 Q2374.72 616.444 2373.89 613.293 Q2373.07 610.11 2371.41 606.991 L2376.95 606.991 Q2378.29 610.142 2378.99 613.452 Q2379.69 616.762 2379.69 620.168 Q2379.69 628.698 2374.72 633.695 Q2369.76 638.66 2361.29 638.66 Q2352.54 638.66 2347.41 633.949 Q2342.26 629.207 2342.26 621.186 Q2342.26 613.993 2346.9 609.823 Q2351.52 605.622 2359.48 605.622 M2357.76 611.479 Q2352.95 611.542 2350.09 614.184 Q2347.22 616.794 2347.22 621.123 Q2347.22 626.024 2349.99 628.984 Q2352.76 631.912 2357.79 632.358 L2357.76 611.479 Z" fill="#000000" fill-rule="evenodd" fill-opacity="1"></path><polyline clip-path="url(#clip032)" style="stroke:#b22222; stroke-linecap:round; stroke-linejoin:round; stroke-width:8; stroke-opacity:1; fill:none" points="
  289.201,1384.24 289.201,1384.24 289.201,1384.24 289.201,1384.24 289.201,1384.24 289.202,1384.24 289.207,1384.24 289.26,1384.24 289.79,1384.24 295.088,1384.24 
  348.071,1384.24 500.564,1384.24 723.028,1384.24 796.702,1384.24 838.993,1384.18 863.125,1381.96 873.331,1378.53 885.983,1372.13 896.879,1365.58 911.281,1356.37 
  926.547,1346.39 946.462,1333.36 970.366,1317.88 1006.03,1295.17 1041.59,1272.94 1087.46,1244.77 1146.3,1209.17 1194.51,1180.27 1251.31,1146.31 1307.23,1112.79 
  1367.78,1076.15 1429.56,1038.18 1494.57,997.27 1561.33,953.859 1630.5,906.85 1701.28,855.808 1773.7,799.205 1847.2,734.907 1921.67,657.677 1997.45,550.405 
  2028,482.826 2040.49,441.377 2049.68,394.018 2053.06,365.458 2054.47,348.386 2056.74,296.928 2057.18,270.774 2057.36,247.506 2057.43,230.838 2057.46,217.149 
  2057.48,203.565 2057.49,191.687 2057.49,180.051 2057.49,169.528 2057.5,159.498 2057.5,150.102 2057.5,141.201 2057.5,132.708 2057.5,124.518 2057.5,115.137 
  2057.5,106.346 2057.5,88.8544 2057.5,86.1857 2057.5,86.1857 2057.5,86.1857 2057.5,86.1857 2057.5,86.1857 2057.5,86.1857 2057.56,86.1857 2058.15,86.1857 
  2064,86.1857 2122.5,86.1857 2125.06,86.1857 
  "></polyline>
</svg>