<svg xmlns="http://www.w3.org/2000/svg" xmlns:xlink="http://www.w3.org/1999/xlink" width="600" height="400" viewBox="0 0 2400 1600">
<defs>
  <clipPath id="clip350">
    <rect x="0" y="0" width="2400" height="1600"></rect>
  </clipPath>
</defs>
<path clip-path="url(#clip350)" d="
M0 1600 L2400 1600 L2400 0 L0 0  Z
  " fill="#ffffff" fill-rule="evenodd" fill-opacity="1"></path>
<defs>
  <clipPath id="clip351">
    <rect x="480" y="0" width="1681" height="1600"></rect>
  </clipPath>
</defs>
<path clip-path="url(#clip350)" d="
M234.125 1423.18 L2180.13 1423.18 L2180.13 47.2441 L234.125 47.2441  Z
  " fill="#ffffff" fill-rule="evenodd" fill-opacity="1"></path>
<defs>
  <clipPath id="clip352">
    <rect x="234" y="47" width="1947" height="1377"></rect>
  </clipPath>
</defs>
<polyline clip-path="url(#clip352)" style="stroke:#000000; stroke-linecap:round; stroke-linejoin:round; stroke-width:2; stroke-opacity:0.1; fill:none" points="
  289.201,1423.18 289.201,47.2441 
  "></polyline>
<polyline clip-path="url(#clip352)" style="stroke:#000000; stroke-linecap:round; stroke-linejoin:round; stroke-width:2; stroke-opacity:0.1; fill:none" points="
  635.744,1423.18 635.744,47.2441 
  "></polyline>
<polyline clip-path="url(#clip352)" style="stroke:#000000; stroke-linecap:round; stroke-linejoin:round; stroke-width:2; stroke-opacity:0.1; fill:none" points="
  982.288,1423.18 982.288,47.2441 
  "></polyline>
<polyline clip-path="url(#clip352)" style="stroke:#000000; stroke-linecap:round; stroke-linejoin:round; stroke-width:2; stroke-opacity:0.1; fill:none" points="
  1328.83,1423.18 1328.83,47.2441 
  "></polyline>
<polyline clip-path="url(#clip352)" style="stroke:#000000; stroke-linecap:round; stroke-linejoin:round; stroke-width:2; stroke-opacity:0.1; fill:none" points="
  1675.37,1423.18 1675.37,47.2441 
  "></polyline>
<polyline clip-path="url(#clip352)" style="stroke:#000000; stroke-linecap:round; stroke-linejoin:round; stroke-width:2; stroke-opacity:0.1; fill:none" points="
  2021.92,1423.18 2021.92,47.2441 
  "></polyline>
<polyline clip-path="url(#clip350)" style="stroke:#000000; stroke-linecap:round; stroke-linejoin:round; stroke-width:4; stroke-opacity:1; fill:none" points="
  234.125,1423.18 2180.13,1423.18 
  "></polyline>
<polyline clip-path="url(#clip350)" style="stroke:#000000; stroke-linecap:round; stroke-linejoin:round; stroke-width:4; stroke-opacity:1; fill:none" points="
  289.201,1423.18 289.201,1404.28 
  "></polyline>
<polyline clip-path="url(#clip350)" style="stroke:#000000; stroke-linecap:round; stroke-linejoin:round; stroke-width:4; stroke-opacity:1; fill:none" points="
  635.744,1423.18 635.744,1404.28 
  "></polyline>
<polyline clip-path="url(#clip350)" style="stroke:#000000; stroke-linecap:round; stroke-linejoin:round; stroke-width:4; stroke-opacity:1; fill:none" points="
  982.288,1423.18 982.288,1404.28 
  "></polyline>
<polyline clip-path="url(#clip350)" style="stroke:#000000; stroke-linecap:round; stroke-linejoin:round; stroke-width:4; stroke-opacity:1; fill:none" points="
  1328.83,1423.18 1328.83,1404.28 
  "></polyline>
<polyline clip-path="url(#clip350)" style="stroke:#000000; stroke-linecap:round; stroke-linejoin:round; stroke-width:4; stroke-opacity:1; fill:none" points="
  1675.37,1423.18 1675.37,1404.28 
  "></polyline>
<polyline clip-path="url(#clip350)" style="stroke:#000000; stroke-linecap:round; stroke-linejoin:round; stroke-width:4; stroke-opacity:1; fill:none" points="
  2021.92,1423.18 2021.92,1404.28 
  "></polyline>
<path clip-path="url(#clip350)" d="M266.586 1454.1 Q262.974 1454.1 261.146 1457.66 Q259.34 1461.2 259.34 1468.33 Q259.34 1475.44 261.146 1479.01 Q262.974 1482.55 266.586 1482.55 Q270.22 1482.55 272.025 1479.01 Q273.854 1475.44 273.854 1468.33 Q273.854 1461.2 272.025 1457.66 Q270.22 1454.1 266.586 1454.1 M266.586 1450.39 Q272.396 1450.39 275.451 1455 Q278.53 1459.58 278.53 1468.33 Q278.53 1477.06 275.451 1481.67 Q272.396 1486.25 266.586 1486.25 Q260.775 1486.25 257.697 1481.67 Q254.641 1477.06 254.641 1468.33 Q254.641 1459.58 257.697 1455 Q260.775 1450.39 266.586 1450.39 Z" fill="#000000" fill-rule="evenodd" fill-opacity="1"></path><path clip-path="url(#clip350)" d="M286.747 1479.7 L291.632 1479.7 L291.632 1485.58 L286.747 1485.58 L286.747 1479.7 Z" fill="#000000" fill-rule="evenodd" fill-opacity="1"></path><path clip-path="url(#clip350)" d="M311.817 1454.1 Q308.206 1454.1 306.377 1457.66 Q304.571 1461.2 304.571 1468.33 Q304.571 1475.44 306.377 1479.01 Q308.206 1482.55 311.817 1482.55 Q315.451 1482.55 317.257 1479.01 Q319.085 1475.44 319.085 1468.33 Q319.085 1461.2 317.257 1457.66 Q315.451 1454.1 311.817 1454.1 M311.817 1450.39 Q317.627 1450.39 320.682 1455 Q323.761 1459.58 323.761 1468.33 Q323.761 1477.06 320.682 1481.67 Q317.627 1486.25 311.817 1486.25 Q306.007 1486.25 302.928 1481.67 Q299.872 1477.06 299.872 1468.33 Q299.872 1459.58 302.928 1455 Q306.007 1450.39 311.817 1450.39 Z" fill="#000000" fill-rule="evenodd" fill-opacity="1"></path><path clip-path="url(#clip350)" d="M613.742 1454.1 Q610.131 1454.1 608.302 1457.66 Q606.497 1461.2 606.497 1468.33 Q606.497 1475.44 608.302 1479.01 Q610.131 1482.55 613.742 1482.55 Q617.376 1482.55 619.182 1479.01 Q621.011 1475.44 621.011 1468.33 Q621.011 1461.2 619.182 1457.66 Q617.376 1454.1 613.742 1454.1 M613.742 1450.39 Q619.552 1450.39 622.608 1455 Q625.687 1459.58 625.687 1468.33 Q625.687 1477.06 622.608 1481.67 Q619.552 1486.25 613.742 1486.25 Q607.932 1486.25 604.853 1481.67 Q601.798 1477.06 601.798 1468.33 Q601.798 1459.58 604.853 1455 Q607.932 1450.39 613.742 1450.39 Z" fill="#000000" fill-rule="evenodd" fill-opacity="1"></path><path clip-path="url(#clip350)" d="M633.904 1479.7 L638.788 1479.7 L638.788 1485.58 L633.904 1485.58 L633.904 1479.7 Z" fill="#000000" fill-rule="evenodd" fill-opacity="1"></path><path clip-path="url(#clip350)" d="M649.784 1481.64 L657.423 1481.64 L657.423 1455.28 L649.112 1456.95 L649.112 1452.69 L657.376 1451.02 L662.052 1451.02 L662.052 1481.64 L669.691 1481.64 L669.691 1485.58 L649.784 1485.58 L649.784 1481.64 Z" fill="#000000" fill-rule="evenodd" fill-opacity="1"></path><path clip-path="url(#clip350)" d="M960.471 1454.1 Q956.86 1454.1 955.031 1457.66 Q953.225 1461.2 953.225 1468.33 Q953.225 1475.44 955.031 1479.01 Q956.86 1482.55 960.471 1482.55 Q964.105 1482.55 965.91 1479.01 Q967.739 1475.44 967.739 1468.33 Q967.739 1461.2 965.91 1457.66 Q964.105 1454.1 960.471 1454.1 M960.471 1450.39 Q966.281 1450.39 969.336 1455 Q972.415 1459.58 972.415 1468.33 Q972.415 1477.06 969.336 1481.67 Q966.281 1486.25 960.471 1486.25 Q954.66 1486.25 951.582 1481.67 Q948.526 1477.06 948.526 1468.33 Q948.526 1459.58 951.582 1455 Q954.66 1450.39 960.471 1450.39 Z" fill="#000000" fill-rule="evenodd" fill-opacity="1"></path><path clip-path="url(#clip350)" d="M980.633 1479.7 L985.517 1479.7 L985.517 1485.58 L980.633 1485.58 L980.633 1479.7 Z" fill="#000000" fill-rule="evenodd" fill-opacity="1"></path><path clip-path="url(#clip350)" d="M999.73 1481.64 L1016.05 1481.64 L1016.05 1485.58 L994.105 1485.58 L994.105 1481.64 Q996.767 1478.89 1001.35 1474.26 Q1005.96 1469.61 1007.14 1468.27 Q1009.38 1465.74 1010.26 1464.01 Q1011.16 1462.25 1011.16 1460.56 Q1011.16 1457.8 1009.22 1456.07 Q1007.3 1454.33 1004.2 1454.33 Q1002 1454.33 999.545 1455.09 Q997.114 1455.86 994.336 1457.41 L994.336 1452.69 Q997.16 1451.55 999.614 1450.97 Q1002.07 1450.39 1004.1 1450.39 Q1009.48 1450.39 1012.67 1453.08 Q1015.86 1455.77 1015.86 1460.26 Q1015.86 1462.39 1015.05 1464.31 Q1014.27 1466.2 1012.16 1468.8 Q1011.58 1469.47 1008.48 1472.69 Q1005.38 1475.88 999.73 1481.64 Z" fill="#000000" fill-rule="evenodd" fill-opacity="1"></path><path clip-path="url(#clip350)" d="M1306.54 1454.1 Q1302.93 1454.1 1301.1 1457.66 Q1299.29 1461.2 1299.29 1468.33 Q1299.29 1475.44 1301.1 1479.01 Q1302.93 1482.55 1306.54 1482.55 Q1310.17 1482.55 1311.98 1479.01 Q1313.81 1475.44 1313.81 1468.33 Q1313.81 1461.2 1311.98 1457.66 Q1310.17 1454.1 1306.54 1454.1 M1306.54 1450.39 Q1312.35 1450.39 1315.41 1455 Q1318.48 1459.58 1318.48 1468.33 Q1318.48 1477.06 1315.41 1481.67 Q1312.35 1486.25 1306.54 1486.25 Q1300.73 1486.25 1297.65 1481.67 Q1294.59 1477.06 1294.59 1468.33 Q1294.59 1459.58 1297.65 1455 Q1300.73 1450.39 1306.54 1450.39 Z" fill="#000000" fill-rule="evenodd" fill-opacity="1"></path><path clip-path="url(#clip350)" d="M1326.7 1479.7 L1331.59 1479.7 L1331.59 1485.58 L1326.7 1485.58 L1326.7 1479.7 Z" fill="#000000" fill-rule="evenodd" fill-opacity="1"></path><path clip-path="url(#clip350)" d="M1355.94 1466.95 Q1359.29 1467.66 1361.17 1469.93 Q1363.07 1472.2 1363.07 1475.53 Q1363.07 1480.65 1359.55 1483.45 Q1356.03 1486.25 1349.55 1486.25 Q1347.37 1486.25 1345.06 1485.81 Q1342.77 1485.39 1340.31 1484.54 L1340.31 1480.02 Q1342.26 1481.16 1344.57 1481.74 Q1346.89 1482.32 1349.41 1482.32 Q1353.81 1482.32 1356.1 1480.58 Q1358.41 1478.84 1358.41 1475.53 Q1358.41 1472.48 1356.26 1470.77 Q1354.13 1469.03 1350.31 1469.03 L1346.28 1469.03 L1346.28 1465.19 L1350.5 1465.19 Q1353.95 1465.19 1355.78 1463.82 Q1357.6 1462.43 1357.6 1459.84 Q1357.6 1457.18 1355.71 1455.77 Q1353.83 1454.33 1350.31 1454.33 Q1348.39 1454.33 1346.19 1454.75 Q1343.99 1455.16 1341.35 1456.04 L1341.35 1451.88 Q1344.02 1451.14 1346.33 1450.77 Q1348.67 1450.39 1350.73 1450.39 Q1356.05 1450.39 1359.15 1452.83 Q1362.26 1455.23 1362.26 1459.35 Q1362.26 1462.22 1360.61 1464.21 Q1358.97 1466.18 1355.94 1466.95 Z" fill="#000000" fill-rule="evenodd" fill-opacity="1"></path><path clip-path="url(#clip350)" d="M1652.52 1454.1 Q1648.9 1454.1 1647.08 1457.66 Q1645.27 1461.2 1645.27 1468.33 Q1645.27 1475.44 1647.08 1479.01 Q1648.9 1482.55 1652.52 1482.55 Q1656.15 1482.55 1657.96 1479.01 Q1659.78 1475.44 1659.78 1468.33 Q1659.78 1461.2 1657.96 1457.66 Q1656.15 1454.1 1652.52 1454.1 M1652.52 1450.39 Q1658.33 1450.39 1661.38 1455 Q1664.46 1459.58 1664.46 1468.33 Q1664.46 1477.06 1661.38 1481.67 Q1658.33 1486.25 1652.52 1486.25 Q1646.71 1486.25 1643.63 1481.67 Q1640.57 1477.06 1640.57 1468.33 Q1640.57 1459.58 1643.63 1455 Q1646.71 1450.39 1652.52 1450.39 Z" fill="#000000" fill-rule="evenodd" fill-opacity="1"></path><path clip-path="url(#clip350)" d="M1672.68 1479.7 L1677.56 1479.7 L1677.56 1485.58 L1672.68 1485.58 L1672.68 1479.7 Z" fill="#000000" fill-rule="evenodd" fill-opacity="1"></path><path clip-path="url(#clip350)" d="M1700.59 1455.09 L1688.79 1473.54 L1700.59 1473.54 L1700.59 1455.09 M1699.37 1451.02 L1705.25 1451.02 L1705.25 1473.54 L1710.18 1473.54 L1710.18 1477.43 L1705.25 1477.43 L1705.25 1485.58 L1700.59 1485.58 L1700.59 1477.43 L1684.99 1477.43 L1684.99 1472.92 L1699.37 1451.02 Z" fill="#000000" fill-rule="evenodd" fill-opacity="1"></path><path clip-path="url(#clip350)" d="M1999.8 1454.1 Q1996.19 1454.1 1994.36 1457.66 Q1992.55 1461.2 1992.55 1468.33 Q1992.55 1475.44 1994.36 1479.01 Q1996.19 1482.55 1999.8 1482.55 Q2003.43 1482.55 2005.24 1479.01 Q2007.07 1475.44 2007.07 1468.33 Q2007.07 1461.2 2005.24 1457.66 Q2003.43 1454.1 1999.8 1454.1 M1999.8 1450.39 Q2005.61 1450.39 2008.67 1455 Q2011.74 1459.58 2011.74 1468.33 Q2011.74 1477.06 2008.67 1481.67 Q2005.61 1486.25 1999.8 1486.25 Q1993.99 1486.25 1990.91 1481.67 Q1987.86 1477.06 1987.86 1468.33 Q1987.86 1459.58 1990.91 1455 Q1993.99 1450.39 1999.8 1450.39 Z" fill="#000000" fill-rule="evenodd" fill-opacity="1"></path><path clip-path="url(#clip350)" d="M2019.96 1479.7 L2024.85 1479.7 L2024.85 1485.58 L2019.96 1485.58 L2019.96 1479.7 Z" fill="#000000" fill-rule="evenodd" fill-opacity="1"></path><path clip-path="url(#clip350)" d="M2035.08 1451.02 L2053.43 1451.02 L2053.43 1454.96 L2039.36 1454.96 L2039.36 1463.43 Q2040.38 1463.08 2041.4 1462.92 Q2042.41 1462.73 2043.43 1462.73 Q2049.22 1462.73 2052.6 1465.9 Q2055.98 1469.08 2055.98 1474.49 Q2055.98 1480.07 2052.51 1483.17 Q2049.04 1486.25 2042.72 1486.25 Q2040.54 1486.25 2038.27 1485.88 Q2036.03 1485.51 2033.62 1484.77 L2033.62 1480.07 Q2035.7 1481.2 2037.92 1481.76 Q2040.15 1482.32 2042.62 1482.32 Q2046.63 1482.32 2048.97 1480.21 Q2051.3 1478.1 2051.3 1474.49 Q2051.3 1470.88 2048.97 1468.77 Q2046.63 1466.67 2042.62 1466.67 Q2040.75 1466.67 2038.87 1467.08 Q2037.02 1467.5 2035.08 1468.38 L2035.08 1451.02 Z" fill="#000000" fill-rule="evenodd" fill-opacity="1"></path><path clip-path="url(#clip350)" d="M983.009 1550.12 Q975.911 1550.12 973.174 1551.75 Q970.437 1553.37 970.437 1557.29 Q970.437 1560.4 972.474 1562.25 Q974.543 1564.07 978.076 1564.07 Q982.945 1564.07 985.874 1560.63 Q988.834 1557.16 988.834 1551.43 L988.834 1550.12 L983.009 1550.12 M994.69 1547.71 L994.69 1568.04 L988.834 1568.04 L988.834 1562.63 Q986.828 1565.88 983.837 1567.44 Q980.845 1568.97 976.516 1568.97 Q971.041 1568.97 967.795 1565.91 Q964.58 1562.82 964.58 1557.67 Q964.58 1551.65 968.591 1548.6 Q972.633 1545.54 980.622 1545.54 L988.834 1545.54 L988.834 1544.97 Q988.834 1540.93 986.16 1538.73 Q983.518 1536.5 978.712 1536.5 Q975.657 1536.5 972.76 1537.23 Q969.864 1537.97 967.19 1539.43 L967.19 1534.02 Q970.405 1532.78 973.429 1532.17 Q976.452 1531.54 979.317 1531.54 Q987.051 1531.54 990.871 1535.55 Q994.69 1539.56 994.69 1547.71 Z" fill="#000000" fill-rule="evenodd" fill-opacity="1"></path><path clip-path="url(#clip350)" d="M1036.39 1532.4 L1023.49 1549.74 L1037.05 1568.04 L1030.15 1568.04 L1019.77 1554.04 L1009.39 1568.04 L1002.49 1568.04 L1016.33 1549.39 L1003.67 1532.4 L1010.57 1532.4 L1020.03 1545.1 L1029.48 1532.4 L1036.39 1532.4 Z" fill="#000000" fill-rule="evenodd" fill-opacity="1"></path><path clip-path="url(#clip350)" d="M1045.33 1532.4 L1051.19 1532.4 L1051.19 1568.04 L1045.33 1568.04 L1045.33 1532.4 M1045.33 1518.52 L1051.19 1518.52 L1051.19 1525.93 L1045.33 1525.93 L1045.33 1518.52 Z" fill="#000000" fill-rule="evenodd" fill-opacity="1"></path><path clip-path="url(#clip350)" d="M1079.64 1550.12 Q1072.54 1550.12 1069.81 1551.75 Q1067.07 1553.37 1067.07 1557.29 Q1067.07 1560.4 1069.11 1562.25 Q1071.17 1564.07 1074.71 1564.07 Q1079.58 1564.07 1082.5 1560.63 Q1085.47 1557.16 1085.47 1551.43 L1085.47 1550.12 L1079.64 1550.12 M1091.32 1547.71 L1091.32 1568.04 L1085.47 1568.04 L1085.47 1562.63 Q1083.46 1565.88 1080.47 1567.44 Q1077.48 1568.97 1073.15 1568.97 Q1067.67 1568.97 1064.43 1565.91 Q1061.21 1562.82 1061.21 1557.67 Q1061.21 1551.65 1065.22 1548.6 Q1069.26 1545.54 1077.25 1545.54 L1085.47 1545.54 L1085.47 1544.97 Q1085.47 1540.93 1082.79 1538.73 Q1080.15 1536.5 1075.34 1536.5 Q1072.29 1536.5 1069.39 1537.23 Q1066.5 1537.97 1063.82 1539.43 L1063.82 1534.02 Q1067.04 1532.78 1070.06 1532.17 Q1073.08 1531.54 1075.95 1531.54 Q1083.68 1531.54 1087.5 1535.55 Q1091.32 1539.56 1091.32 1547.71 Z" fill="#000000" fill-rule="evenodd" fill-opacity="1"></path><path clip-path="url(#clip350)" d="M1103.38 1518.52 L1109.24 1518.52 L1109.24 1568.04 L1103.38 1568.04 L1103.38 1518.52 Z" fill="#000000" fill-rule="evenodd" fill-opacity="1"></path><path clip-path="url(#clip350)" d="M1164.94 1533.45 L1164.94 1538.98 Q1162.46 1537.71 1159.78 1537.07 Q1157.11 1536.44 1154.25 1536.44 Q1149.89 1536.44 1147.69 1537.77 Q1145.53 1539.11 1145.53 1541.79 Q1145.53 1543.82 1147.09 1545 Q1148.64 1546.15 1153.36 1547.2 L1155.36 1547.64 Q1161.6 1548.98 1164.21 1551.43 Q1166.85 1553.85 1166.85 1558.21 Q1166.85 1563.17 1162.9 1566.07 Q1158.99 1568.97 1152.11 1568.97 Q1149.25 1568.97 1146.13 1568.39 Q1143.04 1567.85 1139.61 1566.74 L1139.61 1560.69 Q1142.85 1562.38 1146 1563.24 Q1149.15 1564.07 1152.24 1564.07 Q1156.38 1564.07 1158.61 1562.66 Q1160.83 1561.23 1160.83 1558.65 Q1160.83 1556.27 1159.21 1554.99 Q1157.62 1553.72 1152.18 1552.54 L1150.14 1552.07 Q1144.7 1550.92 1142.28 1548.56 Q1139.86 1546.18 1139.86 1542.04 Q1139.86 1537.01 1143.42 1534.27 Q1146.99 1531.54 1153.55 1531.54 Q1156.79 1531.54 1159.66 1532.01 Q1162.52 1532.49 1164.94 1533.45 Z" fill="#000000" fill-rule="evenodd" fill-opacity="1"></path><path clip-path="url(#clip350)" d="M1181.97 1522.27 L1181.97 1532.4 L1194.03 1532.4 L1194.03 1536.95 L1181.97 1536.95 L1181.97 1556.3 Q1181.97 1560.66 1183.15 1561.9 Q1184.36 1563.14 1188.02 1563.14 L1194.03 1563.14 L1194.03 1568.04 L1188.02 1568.04 Q1181.24 1568.04 1178.66 1565.53 Q1176.08 1562.98 1176.08 1556.3 L1176.08 1536.95 L1171.78 1536.95 L1171.78 1532.4 L1176.08 1532.4 L1176.08 1522.27 L1181.97 1522.27 Z" fill="#000000" fill-rule="evenodd" fill-opacity="1"></path><path clip-path="url(#clip350)" d="M1222.39 1537.87 Q1221.4 1537.3 1220.23 1537.04 Q1219.08 1536.76 1217.68 1536.76 Q1212.72 1536.76 1210.04 1540 Q1207.4 1543.22 1207.4 1549.27 L1207.4 1568.04 L1201.51 1568.04 L1201.51 1532.4 L1207.4 1532.4 L1207.4 1537.93 Q1209.25 1534.69 1212.21 1533.13 Q1215.17 1531.54 1219.4 1531.54 Q1220 1531.54 1220.74 1531.63 Q1221.47 1531.7 1222.36 1531.85 L1222.39 1537.87 Z" fill="#000000" fill-rule="evenodd" fill-opacity="1"></path><path clip-path="url(#clip350)" d="M1244.74 1550.12 Q1237.64 1550.12 1234.9 1551.75 Q1232.16 1553.37 1232.16 1557.29 Q1232.16 1560.4 1234.2 1562.25 Q1236.27 1564.07 1239.8 1564.07 Q1244.67 1564.07 1247.6 1560.63 Q1250.56 1557.16 1250.56 1551.43 L1250.56 1550.12 L1244.74 1550.12 M1256.42 1547.71 L1256.42 1568.04 L1250.56 1568.04 L1250.56 1562.63 Q1248.55 1565.88 1245.56 1567.44 Q1242.57 1568.97 1238.24 1568.97 Q1232.77 1568.97 1229.52 1565.91 Q1226.31 1562.82 1226.31 1557.67 Q1226.31 1551.65 1230.32 1548.6 Q1234.36 1545.54 1242.35 1545.54 L1250.56 1545.54 L1250.56 1544.97 Q1250.56 1540.93 1247.89 1538.73 Q1245.24 1536.5 1240.44 1536.5 Q1237.38 1536.5 1234.49 1537.23 Q1231.59 1537.97 1228.92 1539.43 L1228.92 1534.02 Q1232.13 1532.78 1235.15 1532.17 Q1238.18 1531.54 1241.04 1531.54 Q1248.78 1531.54 1252.6 1535.55 Q1256.42 1539.56 1256.42 1547.71 Z" fill="#000000" fill-rule="evenodd" fill-opacity="1"></path><path clip-path="url(#clip350)" d="M1268.48 1532.4 L1274.34 1532.4 L1274.34 1568.04 L1268.48 1568.04 L1268.48 1532.4 M1268.48 1518.52 L1274.34 1518.52 L1274.34 1525.93 L1268.48 1525.93 L1268.48 1518.52 Z" fill="#000000" fill-rule="evenodd" fill-opacity="1"></path><path clip-path="url(#clip350)" d="M1316.22 1546.53 L1316.22 1568.04 L1310.37 1568.04 L1310.37 1546.72 Q1310.37 1541.66 1308.39 1539.14 Q1306.42 1536.63 1302.47 1536.63 Q1297.73 1536.63 1294.99 1539.65 Q1292.26 1542.68 1292.26 1547.9 L1292.26 1568.04 L1286.37 1568.04 L1286.37 1532.4 L1292.26 1532.4 L1292.26 1537.93 Q1294.36 1534.72 1297.19 1533.13 Q1300.05 1531.54 1303.78 1531.54 Q1309.92 1531.54 1313.07 1535.36 Q1316.22 1539.14 1316.22 1546.53 Z" fill="#000000" fill-rule="evenodd" fill-opacity="1"></path><path clip-path="url(#clip350)" d="M1362.69 1518.58 Q1358.43 1525.9 1356.36 1533.06 Q1354.29 1540.23 1354.29 1547.58 Q1354.29 1554.93 1356.36 1562.16 Q1358.46 1569.35 1362.69 1576.64 L1357.6 1576.64 Q1352.82 1569.16 1350.44 1561.93 Q1348.08 1554.71 1348.08 1547.58 Q1348.08 1540.48 1350.44 1533.29 Q1352.79 1526.09 1357.6 1518.58 L1362.69 1518.58 Z" fill="#000000" fill-rule="evenodd" fill-opacity="1"></path><path clip-path="url(#clip350)" d="M1415.3 1547.13 Q1412.54 1547.13 1410.94 1549.49 Q1409.38 1551.84 1409.38 1556.04 Q1409.38 1560.18 1410.94 1562.57 Q1412.54 1564.92 1415.3 1564.92 Q1418.01 1564.92 1419.57 1562.57 Q1421.16 1560.18 1421.16 1556.04 Q1421.16 1551.87 1419.57 1549.52 Q1418.01 1547.13 1415.3 1547.13 M1415.3 1543.09 Q1420.33 1543.09 1423.29 1546.59 Q1426.25 1550.09 1426.25 1556.04 Q1426.25 1562 1423.26 1565.5 Q1420.3 1568.97 1415.3 1568.97 Q1410.21 1568.97 1407.25 1565.5 Q1404.29 1562 1404.29 1556.04 Q1404.29 1550.06 1407.25 1546.59 Q1410.24 1543.09 1415.3 1543.09 M1382.46 1523.71 Q1379.72 1523.71 1378.13 1526.09 Q1376.57 1528.45 1376.57 1532.59 Q1376.57 1536.79 1378.13 1539.14 Q1379.69 1541.5 1382.46 1541.5 Q1385.23 1541.5 1386.79 1539.14 Q1388.38 1536.79 1388.38 1532.59 Q1388.38 1528.48 1386.79 1526.09 Q1385.19 1523.71 1382.46 1523.71 M1411.2 1519.66 L1416.29 1519.66 L1386.56 1568.97 L1381.47 1568.97 L1411.2 1519.66 M1382.46 1519.66 Q1387.49 1519.66 1390.48 1523.17 Q1393.47 1526.63 1393.47 1532.59 Q1393.47 1538.6 1390.48 1542.07 Q1387.52 1545.54 1382.46 1545.54 Q1377.4 1545.54 1374.44 1542.07 Q1371.51 1538.57 1371.51 1532.59 Q1371.51 1526.67 1374.47 1523.17 Q1377.43 1519.66 1382.46 1519.66 Z" fill="#000000" fill-rule="evenodd" fill-opacity="1"></path><path clip-path="url(#clip350)" d="M1435.07 1518.58 L1440.16 1518.58 Q1444.94 1526.09 1447.29 1533.29 Q1449.68 1540.48 1449.68 1547.58 Q1449.68 1554.71 1447.29 1561.93 Q1444.94 1569.16 1440.16 1576.64 L1435.07 1576.64 Q1439.3 1569.35 1441.37 1562.16 Q1443.47 1554.93 1443.47 1547.58 Q1443.47 1540.23 1441.37 1533.06 Q1439.3 1525.9 1435.07 1518.58 Z" fill="#000000" fill-rule="evenodd" fill-opacity="1"></path><polyline clip-path="url(#clip350)" style="stroke:#000000; stroke-linecap:round; stroke-linejoin:round; stroke-width:4; stroke-opacity:1; fill:none" points="
  234.125,1423.18 234.125,47.2441 
  "></polyline>
<polyline clip-path="url(#clip350)" style="stroke:#000000; stroke-linecap:round; stroke-linejoin:round; stroke-width:4; stroke-opacity:1; fill:none" points="
  234.125,1384.24 253.023,1384.24 
  "></polyline>
<polyline clip-path="url(#clip350)" style="stroke:#000000; stroke-linecap:round; stroke-linejoin:round; stroke-width:4; stroke-opacity:1; fill:none" points="
  234.125,1084.48 253.023,1084.48 
  "></polyline>
<polyline clip-path="url(#clip350)" style="stroke:#000000; stroke-linecap:round; stroke-linejoin:round; stroke-width:4; stroke-opacity:1; fill:none" points="
  234.125,784.712 253.023,784.712 
  "></polyline>
<polyline clip-path="url(#clip350)" style="stroke:#000000; stroke-linecap:round; stroke-linejoin:round; stroke-width:4; stroke-opacity:1; fill:none" points="
  234.125,484.95 253.023,484.95 
  "></polyline>
<polyline clip-path="url(#clip350)" style="stroke:#000000; stroke-linecap:round; stroke-linejoin:round; stroke-width:4; stroke-opacity:1; fill:none" points="
  234.125,185.187 253.023,185.187 
  "></polyline>
<path clip-path="url(#clip350)" d="M186.181 1370.04 Q182.57 1370.04 180.741 1373.6 Q178.936 1377.14 178.936 1384.27 Q178.936 1391.38 180.741 1394.94 Q182.57 1398.49 186.181 1398.49 Q189.815 1398.49 191.621 1394.94 Q193.45 1391.38 193.45 1384.27 Q193.45 1377.14 191.621 1373.6 Q189.815 1370.04 186.181 1370.04 M186.181 1366.33 Q191.991 1366.33 195.047 1370.94 Q198.125 1375.52 198.125 1384.27 Q198.125 1393 195.047 1397.61 Q191.991 1402.19 186.181 1402.19 Q180.371 1402.19 177.292 1397.61 Q174.237 1393 174.237 1384.27 Q174.237 1375.52 177.292 1370.94 Q180.371 1366.33 186.181 1366.33 Z" fill="#000000" fill-rule="evenodd" fill-opacity="1"></path><path clip-path="url(#clip350)" d="M146.066 1067.2 L164.422 1067.2 L164.422 1071.13 L150.348 1071.13 L150.348 1079.6 Q151.366 1079.26 152.385 1079.09 Q153.403 1078.91 154.422 1078.91 Q160.209 1078.91 163.589 1082.08 Q166.968 1085.25 166.968 1090.67 Q166.968 1096.25 163.496 1099.35 Q160.024 1102.43 153.704 1102.43 Q151.528 1102.43 149.26 1102.06 Q147.015 1101.69 144.607 1100.95 L144.607 1096.25 Q146.691 1097.38 148.913 1097.94 Q151.135 1098.49 153.612 1098.49 Q157.616 1098.49 159.954 1096.39 Q162.292 1094.28 162.292 1090.67 Q162.292 1087.06 159.954 1084.95 Q157.616 1082.84 153.612 1082.84 Q151.737 1082.84 149.862 1083.26 Q148.01 1083.68 146.066 1084.56 L146.066 1067.2 Z" fill="#000000" fill-rule="evenodd" fill-opacity="1"></path><path clip-path="url(#clip350)" d="M186.181 1070.27 Q182.57 1070.27 180.741 1073.84 Q178.936 1077.38 178.936 1084.51 Q178.936 1091.62 180.741 1095.18 Q182.57 1098.72 186.181 1098.72 Q189.815 1098.72 191.621 1095.18 Q193.45 1091.62 193.45 1084.51 Q193.45 1077.38 191.621 1073.84 Q189.815 1070.27 186.181 1070.27 M186.181 1066.57 Q191.991 1066.57 195.047 1071.18 Q198.125 1075.76 198.125 1084.51 Q198.125 1093.24 195.047 1097.84 Q191.991 1102.43 186.181 1102.43 Q180.371 1102.43 177.292 1097.84 Q174.237 1093.24 174.237 1084.51 Q174.237 1075.76 177.292 1071.18 Q180.371 1066.57 186.181 1066.57 Z" fill="#000000" fill-rule="evenodd" fill-opacity="1"></path><path clip-path="url(#clip350)" d="M116.668 798.057 L124.306 798.057 L124.306 771.692 L115.996 773.358 L115.996 769.099 L124.26 767.432 L128.936 767.432 L128.936 798.057 L136.575 798.057 L136.575 801.992 L116.668 801.992 L116.668 798.057 Z" fill="#000000" fill-rule="evenodd" fill-opacity="1"></path><path clip-path="url(#clip350)" d="M156.019 770.511 Q152.408 770.511 150.579 774.076 Q148.774 777.618 148.774 784.747 Q148.774 791.854 150.579 795.418 Q152.408 798.96 156.019 798.96 Q159.653 798.96 161.459 795.418 Q163.288 791.854 163.288 784.747 Q163.288 777.618 161.459 774.076 Q159.653 770.511 156.019 770.511 M156.019 766.808 Q161.829 766.808 164.885 771.414 Q167.964 775.997 167.964 784.747 Q167.964 793.474 164.885 798.08 Q161.829 802.664 156.019 802.664 Q150.209 802.664 147.13 798.08 Q144.075 793.474 144.075 784.747 Q144.075 775.997 147.13 771.414 Q150.209 766.808 156.019 766.808 Z" fill="#000000" fill-rule="evenodd" fill-opacity="1"></path><path clip-path="url(#clip350)" d="M186.181 770.511 Q182.57 770.511 180.741 774.076 Q178.936 777.618 178.936 784.747 Q178.936 791.854 180.741 795.418 Q182.57 798.96 186.181 798.96 Q189.815 798.96 191.621 795.418 Q193.45 791.854 193.45 784.747 Q193.45 777.618 191.621 774.076 Q189.815 770.511 186.181 770.511 M186.181 766.808 Q191.991 766.808 195.047 771.414 Q198.125 775.997 198.125 784.747 Q198.125 793.474 195.047 798.08 Q191.991 802.664 186.181 802.664 Q180.371 802.664 177.292 798.08 Q174.237 793.474 174.237 784.747 Q174.237 775.997 177.292 771.414 Q180.371 766.808 186.181 766.808 Z" fill="#000000" fill-rule="evenodd" fill-opacity="1"></path><path clip-path="url(#clip350)" d="M116.668 498.294 L124.306 498.294 L124.306 471.929 L115.996 473.596 L115.996 469.336 L124.26 467.67 L128.936 467.67 L128.936 498.294 L136.575 498.294 L136.575 502.23 L116.668 502.23 L116.668 498.294 Z" fill="#000000" fill-rule="evenodd" fill-opacity="1"></path><path clip-path="url(#clip350)" d="M146.066 467.67 L164.422 467.67 L164.422 471.605 L150.348 471.605 L150.348 480.077 Q151.366 479.73 152.385 479.568 Q153.403 479.383 154.422 479.383 Q160.209 479.383 163.589 482.554 Q166.968 485.725 166.968 491.142 Q166.968 496.72 163.496 499.822 Q160.024 502.901 153.704 502.901 Q151.528 502.901 149.26 502.531 Q147.015 502.16 144.607 501.419 L144.607 496.72 Q146.691 497.855 148.913 498.41 Q151.135 498.966 153.612 498.966 Q157.616 498.966 159.954 496.859 Q162.292 494.753 162.292 491.142 Q162.292 487.531 159.954 485.424 Q157.616 483.318 153.612 483.318 Q151.737 483.318 149.862 483.734 Q148.01 484.151 146.066 485.031 L146.066 467.67 Z" fill="#000000" fill-rule="evenodd" fill-opacity="1"></path><path clip-path="url(#clip350)" d="M186.181 470.748 Q182.57 470.748 180.741 474.313 Q178.936 477.855 178.936 484.984 Q178.936 492.091 180.741 495.656 Q182.57 499.197 186.181 499.197 Q189.815 499.197 191.621 495.656 Q193.45 492.091 193.45 484.984 Q193.45 477.855 191.621 474.313 Q189.815 470.748 186.181 470.748 M186.181 467.045 Q191.991 467.045 195.047 471.651 Q198.125 476.234 198.125 484.984 Q198.125 493.711 195.047 498.318 Q191.991 502.901 186.181 502.901 Q180.371 502.901 177.292 498.318 Q174.237 493.711 174.237 484.984 Q174.237 476.234 177.292 471.651 Q180.371 467.045 186.181 467.045 Z" fill="#000000" fill-rule="evenodd" fill-opacity="1"></path><path clip-path="url(#clip350)" d="M119.885 198.532 L136.204 198.532 L136.204 202.467 L114.26 202.467 L114.26 198.532 Q116.922 195.777 121.505 191.147 Q126.112 186.495 127.292 185.152 Q129.538 182.629 130.417 180.893 Q131.32 179.134 131.32 177.444 Q131.32 174.689 129.376 172.953 Q127.455 171.217 124.353 171.217 Q122.154 171.217 119.7 171.981 Q117.269 172.745 114.492 174.296 L114.492 169.573 Q117.316 168.439 119.769 167.86 Q122.223 167.282 124.26 167.282 Q129.63 167.282 132.825 169.967 Q136.019 172.652 136.019 177.143 Q136.019 179.272 135.209 181.194 Q134.422 183.092 132.316 185.684 Q131.737 186.356 128.635 189.573 Q125.533 192.768 119.885 198.532 Z" fill="#000000" fill-rule="evenodd" fill-opacity="1"></path><path clip-path="url(#clip350)" d="M156.019 170.985 Q152.408 170.985 150.579 174.55 Q148.774 178.092 148.774 185.221 Q148.774 192.328 150.579 195.893 Q152.408 199.434 156.019 199.434 Q159.653 199.434 161.459 195.893 Q163.288 192.328 163.288 185.221 Q163.288 178.092 161.459 174.55 Q159.653 170.985 156.019 170.985 M156.019 167.282 Q161.829 167.282 164.885 171.888 Q167.964 176.471 167.964 185.221 Q167.964 193.948 164.885 198.555 Q161.829 203.138 156.019 203.138 Q150.209 203.138 147.13 198.555 Q144.075 193.948 144.075 185.221 Q144.075 176.471 147.13 171.888 Q150.209 167.282 156.019 167.282 Z" fill="#000000" fill-rule="evenodd" fill-opacity="1"></path><path clip-path="url(#clip350)" d="M186.181 170.985 Q182.57 170.985 180.741 174.55 Q178.936 178.092 178.936 185.221 Q178.936 192.328 180.741 195.893 Q182.57 199.434 186.181 199.434 Q189.815 199.434 191.621 195.893 Q193.45 192.328 193.45 185.221 Q193.45 178.092 191.621 174.55 Q189.815 170.985 186.181 170.985 M186.181 167.282 Q191.991 167.282 195.047 171.888 Q198.125 176.471 198.125 185.221 Q198.125 193.948 195.047 198.555 Q191.991 203.138 186.181 203.138 Q180.371 203.138 177.292 198.555 Q174.237 193.948 174.237 185.221 Q174.237 176.471 177.292 171.888 Q180.371 167.282 186.181 167.282 Z" fill="#000000" fill-rule="evenodd" fill-opacity="1"></path><path clip-path="url(#clip350)" d="M46.0847 1170.77 Q46.0847 1177.87 47.7079 1180.6 Q49.3312 1183.34 53.2461 1183.34 Q56.3653 1183.34 58.2114 1181.3 Q60.0256 1179.24 60.0256 1175.7 Q60.0256 1170.83 56.5881 1167.9 Q53.1188 1164.94 47.3897 1164.94 L46.0847 1164.94 L46.0847 1170.77 M43.6657 1159.09 L64.0042 1159.09 L64.0042 1164.94 L58.5933 1164.94 Q61.8398 1166.95 63.3994 1169.94 Q64.9272 1172.93 64.9272 1177.26 Q64.9272 1182.74 61.8716 1185.98 Q58.7843 1189.2 53.6281 1189.2 Q47.6125 1189.2 44.5569 1185.19 Q41.5014 1181.15 41.5014 1173.16 L41.5014 1164.94 L40.9285 1164.94 Q36.8862 1164.94 34.6901 1167.62 Q32.4621 1170.26 32.4621 1175.07 Q32.4621 1178.12 33.1941 1181.02 Q33.9262 1183.91 35.3903 1186.59 L29.9795 1186.59 Q28.7381 1183.37 28.1334 1180.35 Q27.4968 1177.33 27.4968 1174.46 Q27.4968 1166.73 31.5072 1162.91 Q35.5176 1159.09 43.6657 1159.09 Z" fill="#000000" fill-rule="evenodd" fill-opacity="1"></path><path clip-path="url(#clip350)" d="M28.3562 1117.39 L45.7028 1130.28 L64.0042 1116.72 L64.0042 1123.63 L49.9996 1134.01 L64.0042 1144.38 L64.0042 1151.29 L45.3526 1137.45 L28.3562 1150.11 L28.3562 1143.21 L41.0558 1133.75 L28.3562 1124.3 L28.3562 1117.39 Z" fill="#000000" fill-rule="evenodd" fill-opacity="1"></path><path clip-path="url(#clip350)" d="M28.3562 1108.45 L28.3562 1102.59 L64.0042 1102.59 L64.0042 1108.45 L28.3562 1108.45 M14.479 1108.45 L14.479 1102.59 L21.895 1102.59 L21.895 1108.45 L14.479 1108.45 Z" fill="#000000" fill-rule="evenodd" fill-opacity="1"></path><path clip-path="url(#clip350)" d="M46.0847 1074.14 Q46.0847 1081.24 47.7079 1083.97 Q49.3312 1086.71 53.2461 1086.71 Q56.3653 1086.71 58.2114 1084.67 Q60.0256 1082.6 60.0256 1079.07 Q60.0256 1074.2 56.5881 1071.27 Q53.1188 1068.31 47.3897 1068.31 L46.0847 1068.31 L46.0847 1074.14 M43.6657 1062.46 L64.0042 1062.46 L64.0042 1068.31 L58.5933 1068.31 Q61.8398 1070.32 63.3994 1073.31 Q64.9272 1076.3 64.9272 1080.63 Q64.9272 1086.11 61.8716 1089.35 Q58.7843 1092.57 53.6281 1092.57 Q47.6125 1092.57 44.5569 1088.56 Q41.5014 1084.51 41.5014 1076.53 L41.5014 1068.31 L40.9285 1068.31 Q36.8862 1068.31 34.6901 1070.99 Q32.4621 1073.63 32.4621 1078.43 Q32.4621 1081.49 33.1941 1084.39 Q33.9262 1087.28 35.3903 1089.96 L29.9795 1089.96 Q28.7381 1086.74 28.1334 1083.72 Q27.4968 1080.69 27.4968 1077.83 Q27.4968 1070.1 31.5072 1066.28 Q35.5176 1062.46 43.6657 1062.46 Z" fill="#000000" fill-rule="evenodd" fill-opacity="1"></path><path clip-path="url(#clip350)" d="M14.479 1050.39 L14.479 1044.54 L64.0042 1044.54 L64.0042 1050.39 L14.479 1050.39 Z" fill="#000000" fill-rule="evenodd" fill-opacity="1"></path><path clip-path="url(#clip350)" d="M33.7671 988.106 L14.479 988.106 L14.479 982.249 L64.0042 982.249 L64.0042 988.106 L58.657 988.106 Q61.8398 989.952 63.3994 992.784 Q64.9272 995.585 64.9272 999.532 Q64.9272 1005.99 59.771 1010.07 Q54.6147 1014.11 46.212 1014.11 Q37.8093 1014.11 32.6531 1010.07 Q27.4968 1005.99 27.4968 999.532 Q27.4968 995.585 29.0564 992.784 Q30.5842 989.952 33.7671 988.106 M46.212 1008.06 Q52.6732 1008.06 56.3653 1005.42 Q60.0256 1002.75 60.0256 998.1 Q60.0256 993.453 56.3653 990.779 Q52.6732 988.106 46.212 988.106 Q39.7508 988.106 36.0905 990.779 Q32.3984 993.453 32.3984 998.1 Q32.3984 1002.75 36.0905 1005.42 Q39.7508 1008.06 46.212 1008.06 Z" fill="#000000" fill-rule="evenodd" fill-opacity="1"></path><path clip-path="url(#clip350)" d="M44.7161 939.694 L47.5806 939.694 L47.5806 966.621 Q53.6281 966.239 56.8109 962.993 Q59.9619 959.715 59.9619 953.89 Q59.9619 950.516 59.1344 947.365 Q58.3069 944.182 56.6518 941.063 L62.1899 941.063 Q63.5267 944.214 64.227 947.524 Q64.9272 950.834 64.9272 954.24 Q64.9272 962.77 59.9619 967.767 Q54.9967 972.732 46.5303 972.732 Q37.7774 972.732 32.6531 968.022 Q27.4968 963.279 27.4968 955.259 Q27.4968 948.065 32.1438 943.896 Q36.7589 939.694 44.7161 939.694 M42.9973 945.551 Q38.1912 945.614 35.3266 948.256 Q32.4621 950.866 32.4621 955.195 Q32.4621 960.096 35.2312 963.057 Q38.0002 965.985 43.0292 966.43 L42.9973 945.551 Z" fill="#000000" fill-rule="evenodd" fill-opacity="1"></path><path clip-path="url(#clip350)" d="M28.3562 934.284 L28.3562 928.077 L58.275 916.937 L28.3562 905.797 L28.3562 899.59 L64.0042 912.958 L64.0042 920.916 L28.3562 934.284 Z" fill="#000000" fill-rule="evenodd" fill-opacity="1"></path><path clip-path="url(#clip350)" d="M28.3562 891.506 L28.3562 885.65 L64.0042 885.65 L64.0042 891.506 L28.3562 891.506 M14.479 891.506 L14.479 885.65 L21.895 885.65 L21.895 891.506 L14.479 891.506 Z" fill="#000000" fill-rule="evenodd" fill-opacity="1"></path><path clip-path="url(#clip350)" d="M46.0847 857.195 Q46.0847 864.293 47.7079 867.03 Q49.3312 869.767 53.2461 869.767 Q56.3653 869.767 58.2114 867.73 Q60.0256 865.661 60.0256 862.128 Q60.0256 857.258 56.5881 854.33 Q53.1188 851.37 47.3897 851.37 L46.0847 851.37 L46.0847 857.195 M43.6657 845.514 L64.0042 845.514 L64.0042 851.37 L58.5933 851.37 Q61.8398 853.375 63.3994 856.367 Q64.9272 859.359 64.9272 863.688 Q64.9272 869.162 61.8716 872.409 Q58.7843 875.624 53.6281 875.624 Q47.6125 875.624 44.5569 871.613 Q41.5014 867.571 41.5014 859.582 L41.5014 851.37 L40.9285 851.37 Q36.8862 851.37 34.6901 854.044 Q32.4621 856.686 32.4621 861.492 Q32.4621 864.547 33.1941 867.444 Q33.9262 870.34 35.3903 873.014 L29.9795 873.014 Q28.7381 869.799 28.1334 866.775 Q27.4968 863.751 27.4968 860.887 Q27.4968 853.153 31.5072 849.333 Q35.5176 845.514 43.6657 845.514 Z" fill="#000000" fill-rule="evenodd" fill-opacity="1"></path><path clip-path="url(#clip350)" d="M18.2347 827.658 L28.3562 827.658 L28.3562 815.595 L32.9077 815.595 L32.9077 827.658 L52.2594 827.658 Q56.6199 827.658 57.8613 826.48 Q59.1026 825.271 59.1026 821.611 L59.1026 815.595 L64.0042 815.595 L64.0042 821.611 Q64.0042 828.39 61.4897 830.968 Q58.9434 833.546 52.2594 833.546 L32.9077 833.546 L32.9077 837.843 L28.3562 837.843 L28.3562 833.546 L18.2347 833.546 L18.2347 827.658 Z" fill="#000000" fill-rule="evenodd" fill-opacity="1"></path><path clip-path="url(#clip350)" d="M32.4621 794.079 Q32.4621 798.789 36.1542 801.527 Q39.8145 804.264 46.212 804.264 Q52.6095 804.264 56.3017 801.559 Q59.9619 798.821 59.9619 794.079 Q59.9619 789.4 56.2698 786.663 Q52.5777 783.926 46.212 783.926 Q39.8781 783.926 36.186 786.663 Q32.4621 789.4 32.4621 794.079 M27.4968 794.079 Q27.4968 786.44 32.4621 782.079 Q37.4273 777.719 46.212 777.719 Q54.9649 777.719 59.9619 782.079 Q64.9272 786.44 64.9272 794.079 Q64.9272 801.75 59.9619 806.11 Q54.9649 810.439 46.212 810.439 Q37.4273 810.439 32.4621 806.11 Q27.4968 801.75 27.4968 794.079 Z" fill="#000000" fill-rule="evenodd" fill-opacity="1"></path><path clip-path="url(#clip350)" d="M33.8307 747.355 Q33.2578 748.341 33.0032 749.519 Q32.7167 750.665 32.7167 752.065 Q32.7167 757.03 35.9632 759.704 Q39.1779 762.346 45.2253 762.346 L64.0042 762.346 L64.0042 768.234 L28.3562 768.234 L28.3562 762.346 L33.8944 762.346 Q30.6479 760.5 29.0883 757.54 Q27.4968 754.58 27.4968 750.346 Q27.4968 749.742 27.5923 749.01 Q27.656 748.278 27.8151 747.386 L33.8307 747.355 Z" fill="#000000" fill-rule="evenodd" fill-opacity="1"></path><path clip-path="url(#clip350)" d="M28.3562 741.212 L28.3562 735.355 L64.0042 735.355 L64.0042 741.212 L28.3562 741.212 M14.479 741.212 L14.479 735.355 L21.895 735.355 L21.895 741.212 L14.479 741.212 Z" fill="#000000" fill-rule="evenodd" fill-opacity="1"></path><path clip-path="url(#clip350)" d="M29.7248 697.447 L35.1993 697.447 Q33.8307 699.93 33.1623 702.444 Q32.4621 704.927 32.4621 707.473 Q32.4621 713.171 36.0905 716.322 Q39.6872 719.473 46.212 719.473 Q52.7369 719.473 56.3653 716.322 Q59.9619 713.171 59.9619 707.473 Q59.9619 704.927 59.2935 702.444 Q58.5933 699.93 57.2247 697.447 L62.6355 697.447 Q63.7814 699.898 64.3543 702.54 Q64.9272 705.15 64.9272 708.11 Q64.9272 716.163 59.8664 720.905 Q54.8057 725.647 46.212 725.647 Q37.491 725.647 32.4939 720.873 Q27.4968 716.067 27.4968 707.728 Q27.4968 705.023 28.0697 702.444 Q28.6108 699.866 29.7248 697.447 Z" fill="#000000" fill-rule="evenodd" fill-opacity="1"></path><path clip-path="url(#clip350)" d="M29.4065 643.816 L34.9447 643.816 Q33.6716 646.299 33.035 648.973 Q32.3984 651.646 32.3984 654.511 Q32.3984 658.871 33.7352 661.067 Q35.072 663.232 37.7456 663.232 Q39.7826 663.232 40.9603 661.672 Q42.1061 660.113 43.1565 655.402 L43.6021 653.397 Q44.9389 647.158 47.3897 644.548 Q49.8086 641.907 54.1691 641.907 Q59.1344 641.907 62.0308 645.853 Q64.9272 649.768 64.9272 656.643 Q64.9272 659.508 64.3543 662.627 Q63.8132 665.714 62.6992 669.152 L56.6518 669.152 Q58.3387 665.905 59.198 662.754 Q60.0256 659.603 60.0256 656.516 Q60.0256 652.378 58.6251 650.15 Q57.1929 647.922 54.6147 647.922 Q52.2276 647.922 50.9545 649.545 Q49.6813 651.137 48.5037 656.58 L48.0262 658.617 Q46.8804 664.059 44.5251 666.478 Q42.138 668.897 38.0002 668.897 Q32.9713 668.897 30.2341 665.332 Q27.4968 661.768 27.4968 655.211 Q27.4968 651.964 27.9743 649.1 Q28.4517 646.235 29.4065 643.816 Z" fill="#000000" fill-rule="evenodd" fill-opacity="1"></path><path clip-path="url(#clip350)" d="M18.2347 626.788 L28.3562 626.788 L28.3562 614.725 L32.9077 614.725 L32.9077 626.788 L52.2594 626.788 Q56.6199 626.788 57.8613 625.61 Q59.1026 624.401 59.1026 620.741 L59.1026 614.725 L64.0042 614.725 L64.0042 620.741 Q64.0042 627.52 61.4897 630.098 Q58.9434 632.676 52.2594 632.676 L32.9077 632.676 L32.9077 636.973 L28.3562 636.973 L28.3562 632.676 L18.2347 632.676 L18.2347 626.788 Z" fill="#000000" fill-rule="evenodd" fill-opacity="1"></path><path clip-path="url(#clip350)" d="M33.8307 586.366 Q33.2578 587.353 33.0032 588.53 Q32.7167 589.676 32.7167 591.076 Q32.7167 596.042 35.9632 598.715 Q39.1779 601.357 45.2253 601.357 L64.0042 601.357 L64.0042 607.245 L28.3562 607.245 L28.3562 601.357 L33.8944 601.357 Q30.6479 599.511 29.0883 596.551 Q27.4968 593.591 27.4968 589.358 Q27.4968 588.753 27.5923 588.021 Q27.656 587.289 27.8151 586.398 L33.8307 586.366 Z" fill="#000000" fill-rule="evenodd" fill-opacity="1"></path><path clip-path="url(#clip350)" d="M44.7161 551.163 L47.5806 551.163 L47.5806 578.09 Q53.6281 577.708 56.8109 574.462 Q59.9619 571.184 59.9619 565.359 Q59.9619 561.985 59.1344 558.834 Q58.3069 555.651 56.6518 552.532 L62.1899 552.532 Q63.5267 555.683 64.227 558.993 Q64.9272 562.303 64.9272 565.709 Q64.9272 574.239 59.9619 579.236 Q54.9967 584.201 46.5303 584.201 Q37.7774 584.201 32.6531 579.491 Q27.4968 574.748 27.4968 566.728 Q27.4968 559.534 32.1438 555.365 Q36.7589 551.163 44.7161 551.163 M42.9973 557.02 Q38.1912 557.084 35.3266 559.725 Q32.4621 562.335 32.4621 566.664 Q32.4621 571.566 35.2312 574.526 Q38.0002 577.454 43.0292 577.899 L42.9973 557.02 Z" fill="#000000" fill-rule="evenodd" fill-opacity="1"></path><path clip-path="url(#clip350)" d="M29.4065 518.826 L34.9447 518.826 Q33.6716 521.308 33.035 523.982 Q32.3984 526.656 32.3984 529.52 Q32.3984 533.881 33.7352 536.077 Q35.072 538.241 37.7456 538.241 Q39.7826 538.241 40.9603 536.681 Q42.1061 535.122 43.1565 530.411 L43.6021 528.406 Q44.9389 522.168 47.3897 519.558 Q49.8086 516.916 54.1691 516.916 Q59.1344 516.916 62.0308 520.863 Q64.9272 524.778 64.9272 531.653 Q64.9272 534.517 64.3543 537.636 Q63.8132 540.724 62.6992 544.161 L56.6518 544.161 Q58.3387 540.915 59.198 537.764 Q60.0256 534.613 60.0256 531.525 Q60.0256 527.388 58.6251 525.16 Q57.1929 522.932 54.6147 522.932 Q52.2276 522.932 50.9545 524.555 Q49.6813 526.146 48.5037 531.589 L48.0262 533.626 Q46.8804 539.069 44.5251 541.488 Q42.138 543.907 38.0002 543.907 Q32.9713 543.907 30.2341 540.342 Q27.4968 536.777 27.4968 530.22 Q27.4968 526.974 27.9743 524.109 Q28.4517 521.245 29.4065 518.826 Z" fill="#000000" fill-rule="evenodd" fill-opacity="1"></path><path clip-path="url(#clip350)" d="M29.4065 484.865 L34.9447 484.865 Q33.6716 487.347 33.035 490.021 Q32.3984 492.694 32.3984 495.559 Q32.3984 499.92 33.7352 502.116 Q35.072 504.28 37.7456 504.28 Q39.7826 504.28 40.9603 502.72 Q42.1061 501.161 43.1565 496.45 L43.6021 494.445 Q44.9389 488.207 47.3897 485.597 Q49.8086 482.955 54.1691 482.955 Q59.1344 482.955 62.0308 486.902 Q64.9272 490.817 64.9272 497.692 Q64.9272 500.556 64.3543 503.675 Q63.8132 506.763 62.6992 510.2 L56.6518 510.2 Q58.3387 506.954 59.198 503.803 Q60.0256 500.652 60.0256 497.564 Q60.0256 493.427 58.6251 491.199 Q57.1929 488.971 54.6147 488.971 Q52.2276 488.971 50.9545 490.594 Q49.6813 492.185 48.5037 497.628 L48.0262 499.665 Q46.8804 505.108 44.5251 507.527 Q42.138 509.946 38.0002 509.946 Q32.9713 509.946 30.2341 506.381 Q27.4968 502.816 27.4968 496.259 Q27.4968 493.013 27.9743 490.148 Q28.4517 487.284 29.4065 484.865 Z" fill="#000000" fill-rule="evenodd" fill-opacity="1"></path><path clip-path="url(#clip350)" d="M14.5426 438.841 Q21.8632 443.106 29.0246 445.174 Q36.186 447.243 43.5384 447.243 Q50.8908 447.243 58.1159 445.174 Q65.3091 443.074 72.5979 438.841 L72.5979 443.933 Q65.1182 448.707 57.8931 451.095 Q50.668 453.45 43.5384 453.45 Q36.4406 453.45 29.2474 451.095 Q22.0542 448.739 14.5426 443.933 L14.5426 438.841 Z" fill="#000000" fill-rule="evenodd" fill-opacity="1"></path><path clip-path="url(#clip350)" d="M16.4842 427.223 L16.4842 417.643 L48.8219 405.516 L16.4842 393.326 L16.4842 383.745 L64.0042 383.745 L64.0042 390.016 L22.277 390.016 L54.8694 402.27 L54.8694 408.731 L22.277 420.985 L64.0042 420.985 L64.0042 427.223 L16.4842 427.223 Z" fill="#000000" fill-rule="evenodd" fill-opacity="1"></path><path clip-path="url(#clip350)" d="M21.7677 364.553 L39.6235 364.553 L39.6235 356.468 Q39.6235 351.981 37.3 349.53 Q34.9765 347.079 30.6797 347.079 Q26.4147 347.079 24.0912 349.53 Q21.7677 351.981 21.7677 356.468 L21.7677 364.553 M16.4842 370.982 L16.4842 356.468 Q16.4842 348.479 20.1126 344.405 Q23.7092 340.299 30.6797 340.299 Q37.7138 340.299 41.3104 344.405 Q44.907 348.479 44.907 356.468 L44.907 364.553 L64.0042 364.553 L64.0042 370.982 L16.4842 370.982 Z" fill="#000000" fill-rule="evenodd" fill-opacity="1"></path><path clip-path="url(#clip350)" d="M46.0847 318.656 Q46.0847 325.754 47.7079 328.491 Q49.3312 331.228 53.2461 331.228 Q56.3653 331.228 58.2114 329.191 Q60.0256 327.122 60.0256 323.589 Q60.0256 318.72 56.5881 315.791 Q53.1188 312.831 47.3897 312.831 L46.0847 312.831 L46.0847 318.656 M43.6657 306.975 L64.0042 306.975 L64.0042 312.831 L58.5933 312.831 Q61.8398 314.837 63.3994 317.828 Q64.9272 320.82 64.9272 325.149 Q64.9272 330.624 61.8716 333.87 Q58.7843 337.085 53.6281 337.085 Q47.6125 337.085 44.5569 333.074 Q41.5014 329.032 41.5014 321.043 L41.5014 312.831 L40.9285 312.831 Q36.8862 312.831 34.6901 315.505 Q32.4621 318.147 32.4621 322.953 Q32.4621 326.008 33.1941 328.905 Q33.9262 331.801 35.3903 334.475 L29.9795 334.475 Q28.7381 331.26 28.1334 328.236 Q27.4968 325.213 27.4968 322.348 Q27.4968 314.614 31.5072 310.794 Q35.5176 306.975 43.6657 306.975 Z" fill="#000000" fill-rule="evenodd" fill-opacity="1"></path><path clip-path="url(#clip350)" d="M14.5426 295.835 L14.5426 290.742 Q22.0542 285.968 29.2474 283.613 Q36.4406 281.226 43.5384 281.226 Q50.668 281.226 57.8931 283.613 Q65.1182 285.968 72.5979 290.742 L72.5979 295.835 Q65.3091 291.602 58.1159 289.533 Q50.8908 287.432 43.5384 287.432 Q36.186 287.432 29.0246 289.533 Q21.8632 291.602 14.5426 295.835 Z" fill="#000000" fill-rule="evenodd" fill-opacity="1"></path><polyline clip-path="url(#clip352)" style="stroke:#000000; stroke-linecap:round; stroke-linejoin:round; stroke-width:8; stroke-opacity:1; fill:none" points="
  289.201,1384.24 292.882,1380.42 296.563,1376.6 300.243,1372.78 303.924,1368.96 307.605,1365.14 311.285,1361.31 314.966,1357.49 318.647,1353.67 322.328,1349.85 
  326.008,1346.03 329.689,1342.21 333.37,1338.39 337.051,1334.57 340.731,1330.75 344.412,1326.93 348.093,1323.11 351.773,1319.29 355.454,1315.47 359.135,1311.65 
  362.816,1307.83 366.496,1304.01 370.177,1300.18 373.858,1296.36 377.538,1292.54 381.219,1288.72 384.9,1284.9 388.581,1281.08 392.261,1277.26 395.942,1273.44 
  399.623,1269.62 403.303,1265.8 406.984,1261.98 410.665,1258.16 414.346,1254.34 418.026,1250.52 421.707,1246.7 425.388,1242.88 429.069,1239.05 432.749,1235.23 
  436.43,1231.41 440.111,1227.59 443.791,1223.77 447.472,1219.95 451.153,1216.13 454.834,1212.31 458.514,1208.49 462.195,1204.67 465.876,1200.85 469.556,1197.03 
  473.237,1193.21 476.918,1189.39 480.599,1185.57 484.279,1181.75 487.96,1177.92 491.641,1174.1 495.321,1170.28 499.002,1166.46 502.683,1162.64 506.364,1158.82 
  510.044,1155 513.725,1151.18 517.406,1147.36 521.087,1143.54 524.767,1139.72 528.448,1135.9 532.129,1132.08 535.809,1128.26 539.49,1124.44 543.171,1120.62 
  546.852,1116.79 550.532,1112.97 554.213,1109.15 557.894,1105.33 561.574,1101.51 565.255,1097.69 568.936,1093.87 572.617,1090.05 576.297,1086.23 579.978,1082.41 
  583.659,1078.59 587.339,1074.77 591.02,1070.95 594.701,1067.13 598.382,1063.31 602.062,1059.49 605.743,1055.66 609.424,1051.84 613.105,1048.02 616.785,1044.2 
  620.466,1040.38 624.147,1036.56 627.827,1032.74 631.508,1028.92 635.189,1025.1 638.87,1021.28 642.55,1017.46 646.231,1013.64 649.912,1009.82 653.592,1006 
  657.273,1002.18 660.954,998.355 664.635,994.535 668.315,990.714 671.996,986.893 675.677,983.073 679.357,979.252 683.038,975.431 686.719,971.611 690.4,967.79 
  694.08,963.97 697.761,960.149 701.442,956.328 705.123,952.508 708.803,948.687 712.484,944.866 716.165,941.046 719.845,937.225 723.526,933.404 727.207,929.584 
  730.888,925.763 734.568,921.943 738.249,918.122 741.93,914.301 745.61,910.481 749.291,906.66 752.972,902.839 756.653,899.019 760.333,895.198 764.014,891.378 
  767.695,887.557 771.375,883.736 775.056,879.916 778.737,876.095 782.418,872.274 786.098,868.454 789.779,864.633 793.46,860.813 797.14,856.992 800.821,853.171 
  804.502,849.351 808.183,845.53 811.863,841.709 815.544,837.889 819.225,834.068 822.906,830.247 826.586,826.426 830.267,822.606 833.948,818.785 837.628,814.965 
  841.309,811.144 844.99,807.324 848.671,803.505 852.351,799.685 856.032,795.865 859.713,792.047 863.393,788.235 867.074,784.437 870.755,780.656 874.436,776.898 
  878.116,773.171 881.797,769.48 885.478,765.833 889.158,762.238 892.839,758.701 896.52,755.22 900.201,751.783 903.881,748.381 907.562,745.02 911.243,741.696 
  914.924,738.394 918.604,735.105 922.285,731.834 925.966,728.578 929.646,725.333 933.327,722.099 937.008,718.874 940.689,715.659 944.369,712.452 948.05,709.251 
  951.731,706.057 955.411,702.869 959.092,699.687 962.773,696.512 966.454,693.342 970.134,690.178 973.815,687.019 977.496,683.865 981.176,680.717 984.857,677.574 
  988.538,674.436 992.219,671.304 995.899,668.176 999.58,665.053 1003.26,661.936 1006.94,658.824 1010.62,655.716 1014.3,652.613 1017.98,649.516 1021.66,646.423 
  1025.35,643.336 1029.03,640.253 1032.71,637.176 1036.39,634.103 1040.07,631.036 1043.75,627.973 1047.43,624.915 1051.11,621.863 1054.79,618.815 1058.47,615.773 
  1062.15,612.735 1065.83,609.703 1069.51,606.675 1073.19,603.653 1076.88,600.636 1080.56,597.624 1084.24,594.617 1087.92,591.615 1091.6,588.618 1095.28,585.627 
  1098.96,582.64 1102.64,579.659 1106.32,576.683 1110,573.712 1113.68,570.746 1117.36,567.785 1121.04,564.829 1124.72,561.877 1128.41,558.931 1132.09,555.99 
  1135.77,553.054 1139.45,550.125 1143.13,547.201 1146.81,544.283 1150.49,541.371 1154.17,538.465 1157.85,535.565 1161.53,532.671 1165.21,529.782 1168.89,526.899 
  1172.57,524.021 1176.25,521.148 1179.94,518.28 1183.62,515.415 1187.3,512.555 1190.98,509.701 1194.66,506.852 1198.34,504.01 1202.02,501.172 1205.7,498.341 
  1209.38,495.516 1213.06,492.696 1216.74,489.882 1220.42,487.074 1224.1,484.271 1227.78,481.475 1231.47,478.683 1235.15,475.897 1238.83,473.116 1242.51,470.341 
  1246.19,467.572 1249.87,464.808 1253.55,462.051 1257.23,459.3 1260.91,456.555 1264.59,453.816 1268.27,451.083 1271.95,448.357 1275.63,445.637 1279.31,442.923 
  1283,440.214 1286.68,437.511 1290.36,434.814 1294.04,432.122 1297.72,429.436 1301.4,426.755 1305.08,424.081 1308.76,421.413 1312.44,418.751 1316.12,416.095 
  1319.8,413.446 1323.48,410.803 1327.16,408.167 1330.84,405.537 1334.53,402.914 1338.21,400.297 1341.89,397.686 1345.57,395.081 1349.25,392.482 1352.93,389.889 
  1356.61,387.302 1360.29,384.721 1363.97,382.147 1367.65,379.579 1371.33,377.017 1375.01,374.463 1378.69,371.915 1382.37,369.375 1386.06,366.841 1389.74,364.314 
  1393.42,361.794 1397.1,359.281 1400.78,356.775 1404.46,354.275 1408.14,351.782 1411.82,349.295 1415.5,346.814 1419.18,344.339 1422.86,341.871 1426.54,339.41 
  1430.22,336.956 1433.91,334.509 1437.59,332.069 1441.27,329.637 1444.95,327.212 1448.63,324.794 1452.31,322.384 1455.99,319.981 1459.67,317.586 1463.35,315.198 
  1467.03,312.817 1470.71,310.443 1474.39,308.076 1478.07,305.716 1481.75,303.363 1485.44,301.016 1489.12,298.677 1492.8,296.346 1496.48,294.022 1500.16,291.706 
  1503.84,289.397 1507.52,287.097 1511.2,284.805 1514.88,282.521 1518.56,280.246 1522.24,277.978 1525.92,275.718 1529.6,273.467 1533.28,271.224 1536.97,268.988 
  1540.65,266.76 1544.33,264.54 1548.01,262.326 1551.69,260.121 1555.37,257.924 1559.05,255.734 1562.73,253.553 1566.41,251.381 1570.09,249.217 1573.77,247.063 
  1577.45,244.917 1581.13,242.78 1584.81,240.652 1588.5,238.534 1592.18,236.424 1595.86,234.324 1599.54,232.232 1603.22,230.15 1606.9,228.076 1610.58,226.011 
  1614.26,223.955 1617.94,221.907 1621.62,219.867 1625.3,217.837 1628.98,215.816 1632.66,213.804 1636.34,211.803 1640.03,209.811 1643.71,207.829 1647.39,205.857 
  1651.07,203.896 1654.75,201.945 1658.43,200.005 1662.11,198.075 1665.79,196.156 1669.47,194.247 1673.15,192.348 1676.83,190.46 1680.51,188.582 1684.19,186.714 
  1687.87,184.856 1691.56,183.008 1695.24,181.17 1698.92,179.343 1702.6,177.528 1706.28,175.723 1709.96,173.93 1713.64,172.149 1717.32,170.379 1721,168.622 
  1724.68,166.877 1728.36,165.145 1732.04,163.425 1735.72,161.717 1739.4,160.023 1743.09,158.34 1746.77,156.671 1750.45,155.014 1754.13,153.369 1757.81,151.737 
  1761.49,150.117 1765.17,148.509 1768.85,146.914 1772.53,145.333 1776.21,143.765 1779.89,142.211 1783.57,140.671 1787.25,139.146 1790.93,137.636 1794.62,136.141 
  1798.3,134.661 1801.98,133.197 1805.66,131.749 1809.34,130.317 1813.02,128.9 1816.7,127.5 1820.38,126.116 1824.06,124.748 1827.74,123.397 1831.42,122.062 
  1835.1,120.743 1838.78,119.441 1842.46,118.156 1846.15,116.888 1849.83,115.638 1853.51,114.406 1857.19,113.194 1860.87,112.001 1864.55,110.828 1868.23,109.675 
  1871.91,108.543 1875.59,107.432 1879.27,106.343 1882.95,105.275 1886.63,104.23 1890.31,103.208 1894,102.209 1897.68,101.233 1901.36,100.281 1905.04,99.3523 
  1908.72,98.4483 1912.4,97.5687 1916.08,96.7143 1919.76,95.8861 1923.44,95.0847 1927.12,94.3111 1930.8,93.5659 1934.48,92.85 1938.16,92.1644 1941.84,91.5099 
  1945.53,90.8874 1949.21,90.2981 1952.89,89.7428 1956.57,89.2228 1960.25,88.7391 1963.93,88.2928 1967.61,87.8852 1971.29,87.5175 1974.97,87.1909 1978.65,86.9068 
  1982.33,86.6665 1986.01,86.4713 1989.69,86.3228 1993.37,86.226 1997.06,86.1857 2000.74,86.2013 2004.42,86.2729 2008.1,86.4012 2011.78,86.5878 2015.46,86.8349 
  2019.14,87.1454 2022.82,87.5232 2026.5,87.9724 2030.18,88.4984 2033.86,89.107 2037.54,89.8048 2041.22,90.5991 2044.9,91.4979 2048.59,92.5101 2052.27,93.6451 
  2055.95,94.9132 2059.63,96.3254 2063.31,97.8932 2066.99,99.6292 2070.67,101.548 2074.35,103.675 2078.03,106.032 2081.71,108.648 2085.39,111.566 2089.07,114.837 
  2092.75,118.527 2096.43,122.752 2100.12,127.648 2103.8,133.192 2107.48,139.646 2111.16,147.598 2114.84,157.96 2118.52,172.215 2122.2,195.971 2125.06,371.868 
  
  "></polyline>
<path clip-path="url(#clip350)" d="
M234.125 1423.18 L2180.13 1423.18 L2180.13 47.2441 L234.125 47.2441  Z
  " fill="#000000" fill-rule="evenodd" fill-opacity="0"></path>
<polyline clip-path="url(#clip350)" style="stroke:#000000; stroke-linecap:round; stroke-linejoin:round; stroke-width:4; stroke-opacity:1; fill:none" points="
  2180.13,1423.18 2180.13,47.2441 
  "></polyline>
<polyline clip-path="url(#clip350)" style="stroke:#000000; stroke-linecap:round; stroke-linejoin:round; stroke-width:4; stroke-opacity:1; fill:none" points="
  2180.13,1384.23 2161.24,1384.23 
  "></polyline>
<polyline clip-path="url(#clip350)" style="stroke:#000000; stroke-linecap:round; stroke-linejoin:round; stroke-width:4; stroke-opacity:1; fill:none" points="
  2180.13,1038.09 2161.24,1038.09 
  "></polyline>
<polyline clip-path="url(#clip350)" style="stroke:#000000; stroke-linecap:round; stroke-linejoin:round; stroke-width:4; stroke-opacity:1; fill:none" points="
  2180.13,691.942 2161.24,691.942 
  "></polyline>
<polyline clip-path="url(#clip350)" style="stroke:#000000; stroke-linecap:round; stroke-linejoin:round; stroke-width:4; stroke-opacity:1; fill:none" points="
  2180.13,345.796 2161.24,345.796 
  "></polyline>
<path clip-path="url(#clip350)" d="M2228.08 1370.03 Q2224.47 1370.03 2222.64 1373.6 Q2220.83 1377.14 2220.83 1384.27 Q2220.83 1391.38 2222.64 1394.94 Q2224.47 1398.48 2228.08 1398.48 Q2231.71 1398.48 2233.52 1394.94 Q2235.35 1391.38 2235.35 1384.27 Q2235.35 1377.14 2233.52 1373.6 Q2231.71 1370.03 2228.08 1370.03 M2228.08 1366.33 Q2233.89 1366.33 2236.94 1370.94 Q2240.02 1375.52 2240.02 1384.27 Q2240.02 1393 2236.94 1397.6 Q2233.89 1402.19 2228.08 1402.19 Q2222.27 1402.19 2219.19 1397.6 Q2216.13 1393 2216.13 1384.27 Q2216.13 1375.52 2219.19 1370.94 Q2222.27 1366.33 2228.08 1366.33 Z" fill="#000000" fill-rule="evenodd" fill-opacity="1"></path><path clip-path="url(#clip350)" d="M2248.24 1395.64 L2253.12 1395.64 L2253.12 1401.51 L2248.24 1401.51 L2248.24 1395.64 Z" fill="#000000" fill-rule="evenodd" fill-opacity="1"></path><path clip-path="url(#clip350)" d="M2267.34 1397.58 L2283.66 1397.58 L2283.66 1401.51 L2261.71 1401.51 L2261.71 1397.58 Q2264.37 1394.83 2268.96 1390.2 Q2273.56 1385.54 2274.74 1384.2 Q2276.99 1381.68 2277.87 1379.94 Q2278.77 1378.18 2278.77 1376.49 Q2278.77 1373.74 2276.83 1372 Q2274.91 1370.27 2271.8 1370.27 Q2269.61 1370.27 2267.15 1371.03 Q2264.72 1371.79 2261.94 1373.34 L2261.94 1368.62 Q2264.77 1367.49 2267.22 1366.91 Q2269.68 1366.33 2271.71 1366.33 Q2277.08 1366.33 2280.28 1369.02 Q2283.47 1371.7 2283.47 1376.19 Q2283.47 1378.32 2282.66 1380.24 Q2281.87 1382.14 2279.77 1384.73 Q2279.19 1385.4 2276.09 1388.62 Q2272.99 1391.82 2267.34 1397.58 Z" fill="#000000" fill-rule="evenodd" fill-opacity="1"></path><path clip-path="url(#clip350)" d="M2228.08 1023.89 Q2224.47 1023.89 2222.64 1027.45 Q2220.83 1030.99 2220.83 1038.12 Q2220.83 1045.23 2222.64 1048.79 Q2224.47 1052.34 2228.08 1052.34 Q2231.71 1052.34 2233.52 1048.79 Q2235.35 1045.23 2235.35 1038.12 Q2235.35 1030.99 2233.52 1027.45 Q2231.71 1023.89 2228.08 1023.89 M2228.08 1020.18 Q2233.89 1020.18 2236.94 1024.79 Q2240.02 1029.37 2240.02 1038.12 Q2240.02 1046.85 2236.94 1051.46 Q2233.89 1056.04 2228.08 1056.04 Q2222.27 1056.04 2219.19 1051.46 Q2216.13 1046.85 2216.13 1038.12 Q2216.13 1029.37 2219.19 1024.79 Q2222.27 1020.18 2228.08 1020.18 Z" fill="#000000" fill-rule="evenodd" fill-opacity="1"></path><path clip-path="url(#clip350)" d="M2248.24 1049.49 L2253.12 1049.49 L2253.12 1055.37 L2248.24 1055.37 L2248.24 1049.49 Z" fill="#000000" fill-rule="evenodd" fill-opacity="1"></path><path clip-path="url(#clip350)" d="M2276.16 1024.88 L2264.35 1043.33 L2276.16 1043.33 L2276.16 1024.88 M2274.93 1020.81 L2280.81 1020.81 L2280.81 1043.33 L2285.74 1043.33 L2285.74 1047.22 L2280.81 1047.22 L2280.81 1055.37 L2276.16 1055.37 L2276.16 1047.22 L2260.55 1047.22 L2260.55 1042.71 L2274.93 1020.81 Z" fill="#000000" fill-rule="evenodd" fill-opacity="1"></path><path clip-path="url(#clip350)" d="M2228.08 677.741 Q2224.47 677.741 2222.64 681.305 Q2220.83 684.847 2220.83 691.977 Q2220.83 699.083 2222.64 702.648 Q2224.47 706.19 2228.08 706.19 Q2231.71 706.19 2233.52 702.648 Q2235.35 699.083 2235.35 691.977 Q2235.35 684.847 2233.52 681.305 Q2231.71 677.741 2228.08 677.741 M2228.08 674.037 Q2233.89 674.037 2236.94 678.643 Q2240.02 683.227 2240.02 691.977 Q2240.02 700.704 2236.94 705.31 Q2233.89 709.893 2228.08 709.893 Q2222.27 709.893 2219.19 705.31 Q2216.13 700.704 2216.13 691.977 Q2216.13 683.227 2219.19 678.643 Q2222.27 674.037 2228.08 674.037 Z" fill="#000000" fill-rule="evenodd" fill-opacity="1"></path><path clip-path="url(#clip350)" d="M2248.24 703.342 L2253.12 703.342 L2253.12 709.222 L2248.24 709.222 L2248.24 703.342 Z" fill="#000000" fill-rule="evenodd" fill-opacity="1"></path><path clip-path="url(#clip350)" d="M2273.89 690.079 Q2270.74 690.079 2268.89 692.231 Q2267.06 694.384 2267.06 698.134 Q2267.06 701.861 2268.89 704.037 Q2270.74 706.19 2273.89 706.19 Q2277.04 706.19 2278.86 704.037 Q2280.72 701.861 2280.72 698.134 Q2280.72 694.384 2278.86 692.231 Q2277.04 690.079 2273.89 690.079 M2283.17 675.426 L2283.17 679.685 Q2281.41 678.852 2279.61 678.412 Q2277.82 677.972 2276.06 677.972 Q2271.43 677.972 2268.98 681.097 Q2266.55 684.222 2266.2 690.542 Q2267.57 688.528 2269.63 687.463 Q2271.69 686.375 2274.17 686.375 Q2279.37 686.375 2282.38 689.546 Q2285.42 692.694 2285.42 698.134 Q2285.42 703.458 2282.27 706.676 Q2279.12 709.893 2273.89 709.893 Q2267.89 709.893 2264.72 705.31 Q2261.55 700.704 2261.55 691.977 Q2261.55 683.782 2265.44 678.921 Q2269.33 674.037 2275.88 674.037 Q2277.64 674.037 2279.42 674.384 Q2281.23 674.731 2283.17 675.426 Z" fill="#000000" fill-rule="evenodd" fill-opacity="1"></path><path clip-path="url(#clip350)" d="M2228.08 331.594 Q2224.47 331.594 2222.64 335.159 Q2220.83 338.701 2220.83 345.83 Q2220.83 352.937 2222.64 356.501 Q2224.47 360.043 2228.08 360.043 Q2231.71 360.043 2233.52 356.501 Q2235.35 352.937 2235.35 345.83 Q2235.35 338.701 2233.52 335.159 Q2231.71 331.594 2228.08 331.594 M2228.08 327.891 Q2233.89 327.891 2236.94 332.497 Q2240.02 337.08 2240.02 345.83 Q2240.02 354.557 2236.94 359.164 Q2233.89 363.747 2228.08 363.747 Q2222.27 363.747 2219.19 359.164 Q2216.13 354.557 2216.13 345.83 Q2216.13 337.08 2219.19 332.497 Q2222.27 327.891 2228.08 327.891 Z" fill="#000000" fill-rule="evenodd" fill-opacity="1"></path><path clip-path="url(#clip350)" d="M2248.24 357.196 L2253.12 357.196 L2253.12 363.076 L2248.24 363.076 L2248.24 357.196 Z" fill="#000000" fill-rule="evenodd" fill-opacity="1"></path><path clip-path="url(#clip350)" d="M2273.31 346.664 Q2269.98 346.664 2268.05 348.446 Q2266.16 350.228 2266.16 353.353 Q2266.16 356.478 2268.05 358.261 Q2269.98 360.043 2273.31 360.043 Q2276.64 360.043 2278.56 358.261 Q2280.49 356.455 2280.49 353.353 Q2280.49 350.228 2278.56 348.446 Q2276.67 346.664 2273.31 346.664 M2268.63 344.673 Q2265.62 343.932 2263.93 341.872 Q2262.27 339.812 2262.27 336.849 Q2262.27 332.705 2265.21 330.298 Q2268.17 327.891 2273.31 327.891 Q2278.47 327.891 2281.41 330.298 Q2284.35 332.705 2284.35 336.849 Q2284.35 339.812 2282.66 341.872 Q2280.99 343.932 2278.01 344.673 Q2281.39 345.46 2283.26 347.752 Q2285.16 350.043 2285.16 353.353 Q2285.16 358.376 2282.08 361.062 Q2279.03 363.747 2273.31 363.747 Q2267.59 363.747 2264.51 361.062 Q2261.46 358.376 2261.46 353.353 Q2261.46 350.043 2263.36 347.752 Q2265.25 345.46 2268.63 344.673 M2266.92 337.289 Q2266.92 339.974 2268.59 341.478 Q2270.28 342.983 2273.31 342.983 Q2276.32 342.983 2278.01 341.478 Q2279.72 339.974 2279.72 337.289 Q2279.72 334.603 2278.01 333.099 Q2276.32 331.594 2273.31 331.594 Q2270.28 331.594 2268.59 333.099 Q2266.92 334.603 2266.92 337.289 Z" fill="#000000" fill-rule="evenodd" fill-opacity="1"></path><path clip-path="url(#clip350)" d="M2348.53 838.798 L2329.24 838.798 L2329.24 832.941 L2378.76 832.941 L2378.76 838.798 L2373.42 838.798 Q2376.6 840.644 2378.16 843.477 Q2379.69 846.278 2379.69 850.224 Q2379.69 856.686 2374.53 860.76 Q2369.37 864.802 2360.97 864.802 Q2352.57 864.802 2347.41 860.76 Q2342.26 856.686 2342.26 850.224 Q2342.26 846.278 2343.82 843.477 Q2345.34 840.644 2348.53 838.798 M2360.97 858.754 Q2367.43 858.754 2371.12 856.113 Q2374.79 853.439 2374.79 848.792 Q2374.79 844.145 2371.12 841.472 Q2367.43 838.798 2360.97 838.798 Q2354.51 838.798 2350.85 841.472 Q2347.16 844.145 2347.16 848.792 Q2347.16 853.439 2350.85 856.113 Q2354.51 858.754 2360.97 858.754 Z" fill="#000000" fill-rule="evenodd" fill-opacity="1"></path><path clip-path="url(#clip350)" d="M2360.84 804.678 Q2360.84 811.776 2362.47 814.513 Q2364.09 817.25 2368.01 817.25 Q2371.12 817.25 2372.97 815.213 Q2374.79 813.144 2374.79 809.611 Q2374.79 804.741 2371.35 801.813 Q2367.88 798.853 2362.15 798.853 L2360.84 798.853 L2360.84 804.678 M2358.43 792.997 L2378.76 792.997 L2378.76 798.853 L2373.35 798.853 Q2376.6 800.858 2378.16 803.85 Q2379.69 806.842 2379.69 811.171 Q2379.69 816.645 2376.63 819.892 Q2373.54 823.106 2368.39 823.106 Q2362.37 823.106 2359.32 819.096 Q2356.26 815.054 2356.26 807.065 L2356.26 798.853 L2355.69 798.853 Q2351.65 798.853 2349.45 801.527 Q2347.22 804.168 2347.22 808.975 Q2347.22 812.03 2347.95 814.927 Q2348.69 817.823 2350.15 820.497 L2344.74 820.497 Q2343.5 817.282 2342.89 814.258 Q2342.26 811.234 2342.26 808.37 Q2342.26 800.636 2346.27 796.816 Q2350.28 792.997 2358.43 792.997 Z" fill="#000000" fill-rule="evenodd" fill-opacity="1"></path><path clip-path="url(#clip350)" d="M2349.96 753.179 Q2346.01 750.983 2344.13 747.927 Q2342.26 744.872 2342.26 740.734 Q2342.26 735.164 2346.17 732.141 Q2350.05 729.117 2357.25 729.117 L2378.76 729.117 L2378.76 735.005 L2357.44 735.005 Q2352.31 735.005 2349.83 736.819 Q2347.35 738.634 2347.35 742.357 Q2347.35 746.909 2350.37 749.551 Q2353.4 752.192 2358.62 752.192 L2378.76 752.192 L2378.76 758.081 L2357.44 758.081 Q2352.28 758.081 2349.83 759.895 Q2347.35 761.709 2347.35 765.497 Q2347.35 769.985 2350.4 772.626 Q2353.43 775.268 2358.62 775.268 L2378.76 775.268 L2378.76 781.156 L2343.12 781.156 L2343.12 775.268 L2348.65 775.268 Q2345.38 773.263 2343.82 770.462 Q2342.26 767.661 2342.26 763.81 Q2342.26 759.927 2344.23 757.221 Q2346.2 754.484 2349.96 753.179 Z" fill="#000000" fill-rule="evenodd" fill-opacity="1"></path><path clip-path="url(#clip350)" d="M2360.84 701.235 Q2360.84 708.333 2362.47 711.07 Q2364.09 713.807 2368.01 713.807 Q2371.12 713.807 2372.97 711.77 Q2374.79 709.701 2374.79 706.168 Q2374.79 701.299 2371.35 698.37 Q2367.88 695.41 2362.15 695.41 L2360.84 695.41 L2360.84 701.235 M2358.43 689.554 L2378.76 689.554 L2378.76 695.41 L2373.35 695.41 Q2376.6 697.416 2378.16 700.407 Q2379.69 703.399 2379.69 707.728 Q2379.69 713.203 2376.63 716.449 Q2373.54 719.664 2368.39 719.664 Q2362.37 719.664 2359.32 715.653 Q2356.26 711.611 2356.26 703.622 L2356.26 695.41 L2355.69 695.41 Q2351.65 695.41 2349.45 698.084 Q2347.22 700.726 2347.22 705.532 Q2347.22 708.587 2347.95 711.484 Q2348.69 714.38 2350.15 717.054 L2344.74 717.054 Q2343.5 713.839 2342.89 710.815 Q2342.26 707.792 2342.26 704.927 Q2342.26 697.193 2346.27 693.373 Q2350.28 689.554 2358.43 689.554 Z" fill="#000000" fill-rule="evenodd" fill-opacity="1"></path><path clip-path="url(#clip350)" d="M2360.53 654.033 Q2354.16 654.033 2350.66 656.675 Q2347.16 659.285 2347.16 664.027 Q2347.16 668.738 2350.66 671.38 Q2354.16 673.99 2360.53 673.99 Q2366.86 673.99 2370.36 671.38 Q2373.86 668.738 2373.86 664.027 Q2373.86 659.285 2370.36 656.675 Q2366.86 654.033 2360.53 654.033 M2374.34 648.177 Q2383.44 648.177 2387.87 652.219 Q2392.32 656.261 2392.32 664.6 Q2392.32 667.688 2391.85 670.425 Q2391.4 673.162 2390.44 675.74 L2384.75 675.74 Q2386.15 673.162 2386.82 670.648 Q2387.48 668.133 2387.48 665.523 Q2387.48 659.762 2384.46 656.898 Q2381.47 654.033 2375.39 654.033 L2372.49 654.033 Q2375.64 655.848 2377.2 658.68 Q2378.76 661.513 2378.76 665.46 Q2378.76 672.016 2373.77 676.027 Q2368.77 680.037 2360.53 680.037 Q2352.25 680.037 2347.25 676.027 Q2342.26 672.016 2342.26 665.46 Q2342.26 661.513 2343.82 658.68 Q2345.38 655.848 2348.53 654.033 L2343.12 654.033 L2343.12 648.177 L2374.34 648.177 Z" fill="#000000" fill-rule="evenodd" fill-opacity="1"></path><path clip-path="url(#clip350)" d="M2359.48 605.622 L2362.34 605.622 L2362.34 632.549 Q2368.39 632.167 2371.57 628.921 Q2374.72 625.642 2374.72 619.818 Q2374.72 616.444 2373.89 613.293 Q2373.07 610.11 2371.41 606.991 L2376.95 606.991 Q2378.29 610.142 2378.99 613.452 Q2379.69 616.762 2379.69 620.168 Q2379.69 628.698 2374.72 633.695 Q2369.76 638.66 2361.29 638.66 Q2352.54 638.66 2347.41 633.949 Q2342.26 629.207 2342.26 621.186 Q2342.26 613.993 2346.9 609.823 Q2351.52 605.622 2359.48 605.622 M2357.76 611.479 Q2352.95 611.542 2350.09 614.184 Q2347.22 616.794 2347.22 621.123 Q2347.22 626.024 2349.99 628.984 Q2352.76 631.912 2357.79 632.358 L2357.76 611.479 Z" fill="#000000" fill-rule="evenodd" fill-opacity="1"></path><polyline clip-path="url(#clip352)" style="stroke:#b22222; stroke-linecap:round; stroke-linejoin:round; stroke-width:8; stroke-opacity:1; fill:none" points="
  289.201,1384.23 292.882,1384.23 296.563,1384.23 300.243,1384.23 303.924,1384.23 307.605,1384.23 311.285,1384.23 314.966,1384.23 318.647,1384.23 322.328,1384.23 
  326.008,1384.23 329.689,1384.23 333.37,1384.23 337.051,1384.23 340.731,1384.23 344.412,1384.23 348.093,1384.23 351.773,1384.23 355.454,1384.23 359.135,1384.23 
  362.816,1384.23 366.496,1384.23 370.177,1384.23 373.858,1384.23 377.538,1384.23 381.219,1384.23 384.9,1384.23 388.581,1384.23 392.261,1384.23 395.942,1384.23 
  399.623,1384.23 403.303,1384.23 406.984,1384.23 410.665,1384.23 414.346,1384.23 418.026,1384.23 421.707,1384.23 425.388,1384.23 429.069,1384.23 432.749,1384.23 
  436.43,1384.23 440.111,1384.23 443.791,1384.23 447.472,1384.23 451.153,1384.23 454.834,1384.23 458.514,1384.23 462.195,1384.23 465.876,1384.23 469.556,1384.23 
  473.237,1384.23 476.918,1384.23 480.599,1384.23 484.279,1384.23 487.96,1384.23 491.641,1384.23 495.321,1384.23 499.002,1384.23 502.683,1384.23 506.364,1384.23 
  510.044,1384.23 513.725,1384.23 517.406,1384.23 521.087,1384.23 524.767,1384.23 528.448,1384.23 532.129,1384.23 535.809,1384.23 539.49,1384.23 543.171,1384.23 
  546.852,1384.23 550.532,1384.23 554.213,1384.23 557.894,1384.23 561.574,1384.23 565.255,1384.23 568.936,1384.23 572.617,1384.23 576.297,1384.23 579.978,1384.23 
  583.659,1384.23 587.339,1384.23 591.02,1384.23 594.701,1384.23 598.382,1384.23 602.062,1384.23 605.743,1384.23 609.424,1384.23 613.105,1384.23 616.785,1384.23 
  620.466,1384.23 624.147,1384.23 627.827,1384.23 631.508,1384.23 635.189,1384.23 638.87,1384.23 642.55,1384.23 646.231,1384.23 649.912,1384.23 653.592,1384.23 
  657.273,1384.23 660.954,1384.23 664.635,1384.23 668.315,1384.23 671.996,1384.23 675.677,1384.23 679.357,1384.23 683.038,1384.23 686.719,1384.23 690.4,1384.23 
  694.08,1384.23 697.761,1384.23 701.442,1384.23 705.123,1384.23 708.803,1384.23 712.484,1384.23 716.165,1384.23 719.845,1384.23 723.526,1384.23 727.207,1384.23 
  730.888,1384.23 734.568,1384.23 738.249,1384.23 741.93,1384.23 745.61,1384.23 749.291,1384.23 752.972,1384.23 756.653,1384.23 760.333,1384.23 764.014,1384.23 
  767.695,1384.23 771.375,1384.23 775.056,1384.23 778.737,1384.23 782.418,1384.23 786.098,1384.23 789.779,1384.23 793.46,1384.23 797.14,1384.23 800.821,1384.23 
  804.502,1384.23 808.183,1384.23 811.863,1384.24 815.544,1384.24 819.225,1384.24 822.906,1384.24 826.586,1384.24 830.267,1384.24 833.948,1384.24 837.628,1384.24 
  841.309,1384.24 844.99,1384.23 848.671,1384.23 852.351,1384.22 856.032,1384.22 859.713,1384.21 863.393,1384.17 867.074,1384.07 870.755,1383.88 874.436,1383.6 
  878.116,1383.18 881.797,1382.6 885.478,1381.84 889.158,1380.85 892.839,1379.61 896.52,1378.15 900.201,1376.51 903.881,1374.74 907.562,1372.82 911.243,1370.75 
  914.924,1368.62 918.604,1366.46 922.285,1364.25 925.966,1362 929.646,1359.73 933.327,1357.44 937.008,1355.14 940.689,1352.82 944.369,1350.5 948.05,1348.18 
  951.731,1345.86 955.411,1343.53 959.092,1341.21 962.773,1338.89 966.454,1336.58 970.134,1334.26 973.815,1331.95 977.496,1329.65 981.176,1327.34 984.857,1325.05 
  988.538,1322.75 992.219,1320.47 995.899,1318.18 999.58,1315.9 1003.26,1313.63 1006.94,1311.36 1010.62,1309.09 1014.3,1306.83 1017.98,1304.58 1021.66,1302.32 
  1025.35,1300.08 1029.03,1297.84 1032.71,1295.6 1036.39,1293.36 1040.07,1291.13 1043.75,1288.91 1047.43,1286.68 1051.11,1284.47 1054.79,1282.25 1058.47,1280.04 
  1062.15,1277.83 1065.83,1275.63 1069.51,1273.43 1073.19,1271.24 1076.88,1269.04 1080.56,1266.85 1084.24,1264.67 1087.92,1262.48 1091.6,1260.3 1095.28,1258.12 
  1098.96,1255.95 1102.64,1253.78 1106.32,1251.61 1110,1249.44 1113.68,1247.27 1117.36,1245.11 1121.04,1242.96 1124.72,1240.81 1128.41,1238.66 1132.09,1236.51 
  1135.77,1234.36 1139.45,1232.21 1143.13,1230.07 1146.81,1227.92 1150.49,1225.77 1154.17,1223.63 1157.85,1221.48 1161.53,1219.33 1165.21,1217.19 1168.89,1215.04 
  1172.57,1212.9 1176.25,1210.76 1179.94,1208.63 1183.62,1206.5 1187.3,1204.37 1190.98,1202.25 1194.66,1200.13 1198.34,1198 1202.02,1195.88 1205.7,1193.75 
  1209.38,1191.63 1213.06,1189.51 1216.74,1187.39 1220.42,1185.26 1224.1,1183.14 1227.78,1181.02 1231.47,1178.9 1235.15,1176.78 1238.83,1174.66 1242.51,1172.55 
  1246.19,1170.43 1249.87,1168.31 1253.55,1166.2 1257.23,1164.08 1260.91,1161.96 1264.59,1159.84 1268.27,1157.72 1271.95,1155.6 1275.63,1153.47 1279.31,1151.35 
  1283,1149.23 1286.68,1147.11 1290.36,1144.98 1294.04,1142.86 1297.72,1140.74 1301.4,1138.62 1305.08,1136.5 1308.76,1134.38 1312.44,1132.26 1316.12,1130.14 
  1319.8,1128.01 1323.48,1125.89 1327.16,1123.76 1330.84,1121.63 1334.53,1119.5 1338.21,1117.37 1341.89,1115.23 1345.57,1113.1 1349.25,1110.97 1352.93,1108.83 
  1356.61,1106.7 1360.29,1104.57 1363.97,1102.43 1367.65,1100.29 1371.33,1098.16 1375.01,1096.01 1378.69,1093.87 1382.37,1091.72 1386.06,1089.58 1389.74,1087.43 
  1393.42,1085.27 1397.1,1083.12 1400.78,1080.96 1404.46,1078.8 1408.14,1076.64 1411.82,1074.48 1415.5,1072.32 1419.18,1070.16 1422.86,1067.99 1426.54,1065.83 
  1430.22,1063.66 1433.91,1061.49 1437.59,1059.32 1441.27,1057.14 1444.95,1054.96 1448.63,1052.78 1452.31,1050.59 1455.99,1048.4 1459.67,1046.21 1463.35,1044.02 
  1467.03,1041.82 1470.71,1039.62 1474.39,1037.42 1478.07,1035.21 1481.75,1033.01 1485.44,1030.8 1489.12,1028.59 1492.8,1026.38 1496.48,1024.16 1500.16,1021.94 
  1503.84,1019.72 1507.52,1017.49 1511.2,1015.26 1514.88,1013.02 1518.56,1010.78 1522.24,1008.53 1525.92,1006.28 1529.6,1004.03 1533.28,1001.77 1536.97,999.513 
  1540.65,997.249 1544.33,994.983 1548.01,992.714 1551.69,990.442 1555.37,988.167 1559.05,985.888 1562.73,983.604 1566.41,981.316 1570.09,979.022 1573.77,976.724 
  1577.45,974.42 1581.13,972.11 1584.81,969.796 1588.5,967.475 1592.18,965.149 1595.86,962.818 1599.54,960.481 1603.22,958.139 1606.9,955.793 1610.58,953.442 
  1614.26,951.086 1617.94,948.727 1621.62,946.364 1625.3,943.995 1628.98,941.621 1632.66,939.241 1636.34,936.855 1640.03,934.462 1643.71,932.063 1647.39,929.656 
  1651.07,927.243 1654.75,924.822 1658.43,922.393 1662.11,919.958 1665.79,917.515 1669.47,915.064 1673.15,912.607 1676.83,910.143 1680.51,907.673 1684.19,905.196 
  1687.87,902.713 1691.56,900.224 1695.24,897.729 1698.92,895.226 1702.6,892.715 1706.28,890.196 1709.96,887.669 1713.64,885.132 1717.32,882.587 1721,880.032 
  1724.68,877.467 1728.36,874.892 1732.04,872.308 1735.72,869.713 1739.4,867.109 1743.09,864.494 1746.77,861.87 1750.45,859.236 1754.13,856.592 1757.81,853.939 
  1761.49,851.278 1765.17,848.607 1768.85,845.926 1772.53,843.234 1776.21,840.532 1779.89,837.818 1783.57,835.091 1787.25,832.353 1790.93,829.601 1794.62,826.836 
  1798.3,824.057 1801.98,821.264 1805.66,818.457 1809.34,815.636 1813.02,812.8 1816.7,809.95 1820.38,807.085 1824.06,804.206 1827.74,801.312 1831.42,798.403 
  1835.1,795.481 1838.78,792.544 1842.46,789.591 1846.15,786.623 1849.83,783.638 1853.51,780.635 1857.19,777.615 1860.87,774.575 1864.55,771.516 1868.23,768.437 
  1871.91,765.338 1875.59,762.217 1879.27,759.074 1882.95,755.909 1886.63,752.722 1890.31,749.511 1894,746.277 1897.68,743.018 1901.36,739.736 1905.04,736.429 
  1908.72,733.097 1912.4,729.74 1916.08,726.356 1919.76,722.945 1923.44,719.506 1927.12,716.037 1930.8,712.537 1934.48,709.006 1938.16,705.441 1941.84,701.842 
  1945.53,698.207 1949.21,694.535 1952.89,690.825 1956.57,687.074 1960.25,683.283 1963.93,679.448 1967.61,675.569 1971.29,671.643 1974.97,667.67 1978.65,663.647 
  1982.33,659.572 1986.01,655.444 1989.69,651.261 1993.37,647.015 1997.06,642.699 2000.74,638.316 2004.42,633.864 2008.1,629.342 2011.78,624.75 2015.46,620.083 
  2019.14,615.337 2022.82,610.508 2026.5,605.59 2030.18,600.574 2033.86,595.453 2037.54,590.218 2041.22,584.859 2044.9,579.363 2048.59,573.718 2052.27,567.912 
  2055.95,561.929 2059.63,555.755 2063.31,549.372 2066.99,542.762 2070.67,535.906 2074.35,528.767 2078.03,521.315 2081.71,513.507 2085.39,505.283 2089.07,496.568 
  2092.75,487.271 2096.43,477.223 2100.12,466.226 2103.8,454.32 2107.48,441.124 2111.16,425.79 2114.84,407 2118.52,382.606 2122.2,344.482 2125.06,86.1857 
  
  "></polyline>
</svg>